<?xml version="1.0" standalone="no"?>
<!DOCTYPE svg PUBLIC "-//W3C//DTD SVG 1.1//EN" "http://www.w3.org/Graphics/SVG/1.1/DTD/svg11.dtd" >
<svg xmlns="http://www.w3.org/2000/svg" xmlns:xlink="http://www.w3.org/1999/xlink" version="1.1">
<metadata>
Created by FontForge 20170731 at Sun Apr  3 22:45:28 2016
 By Aleksey,,,
(c) 2016 DESIGNED BY PHITRADESIGN ALL RIGHTS RESERVED 
</metadata>
<defs>
<font id="Sequel-LightItalic" horiz-adv-x="462" >
  <font-face 
    font-family="Sequel Light Italic"
    font-weight="400"
    font-style="italic"
    font-stretch="normal"
    units-per-em="1000"
    panose-1="0 0 5 0 0 0 0 0 0 0"
    ascent="800"
    descent="-200"
    x-height="697"
    cap-height="700"
    bbox="-654 -226 973.143 909"
    underline-thickness="50"
    underline-position="-200"
    unicode-range="U+0020-2265"
  />
<missing-glyph horiz-adv-x="500" 
d="M410 800v-1000h-317v1000h317zM333 118h-166v-113h166v113zM300 85v-47h-100v47h100zM333 291h-100v-56h34v23h33v-47h-100v80h-33v-113h166v113zM333 413h-33v-66h-133v-34h166v100zM333 473h-166v-33h66v-37h-66v-33h100v70h66v33zM233 570v-36h-33v36h33zM267 604
h-100v-104h166v34h-66v70zM333 733h-165v-33h65v-37h-66v-33h166v33h-66v37h66v33zM333 -18h-166v-33h70l-70 -47v-33h166v33h-102l70 47h32v33z" />
    <glyph glyph-name="a_n_d.liga" unicode="and" horiz-adv-x="1013" 
d="M377 162q-4 0 -6 3q-2 0 -2 2l65 370v-1q0 1 2 4t3 5q1 0 4.5 1.5t5.5 1.5h68q1 0 10 -3l3 -6v-1l45 -277l44 276v1q0 3 3 6q8 4 10 4h43l6 -3q2 -2 2 -4v1l-65 -366v1q-3 -9 -7 -11q-3 -4 -7 -4h-62q-4 0 -5 3q-3 0 -5 6l-57 279l-42 -279l1 1q-2 -5 -7 -8q0 -2 -8 -2
h-42zM53 5q-13 0 -13 7l5 47q4 12 21 12h834q7 0 10.5 -2.5t2.5 -7.5l-7 -45q-2 -11 -18 -11h-835zM72 160l-6 2q-1 4 0 5l142 367q5 8 6 7q5 4 12 4h73q8 0 13 -6v-3l10 -367q0 -3 -3 -6q-5 -3 -10 -3h-47q-9 0 -9 7v97h-84l-33 -95q-2 -3 -6 -7q-4 -2 -7 -2h-51zM188 321
h67v147q0 8 -7 8q-4 0 -7 -5zM683 159q-3 0 -6 3l1 -1q-4 4 -2 8l66 363v1q0 3 5 9l-1 -1q4 4 10 4h117q24 0 50 -13h-1q17 -12 29 -34q7 -17 7 -33q0 -7 -2 -19l-34 -181q-6 -37 -18 -52q-13 -18 -48 -39q-21 -14 -52 -14l-67 -1h-54zM751 218h48q19 0 38 16l2 1
q17 20 20 36l32 179q0 16 -12.5 28.5t-29.5 12.5h-47q-6 0 -11 -4q-4 -6 -4 -10v1l-45 -250v1q-3 -11 9 -11zM125 629q-7 0 -11 3t-3 8l10 43q2 11 19 11h823q8 0 9.5 -3.5t-0.5 -12.5l-4 -36q-1 -5 -7 -9t-12 -4h-824z" />
    <glyph glyph-name="a_t.liga" unicode="at" horiz-adv-x="676" 
d="M89 152q-7 0 -8 3q-1 1 0 6v-1l148 386l4 4h1q3 3 11 3h74q9 0 10 -3q3 0 3 -5l12 -383q0 -4 -5 -6q-2 -4 -9 -4h-49q-8 0 -8 8l-1 101h-85l-36 -99l-1 -1q-1 -4 -4 -7q-4 -2 -8 -2h-49zM48 7q-10 0 -7 13l5 44q2 13 11 13h503q9 0 7 -13l-6 -44q-3 -13 -11 -13h-502z
M206 321h68l1 152q0 11 -7 11q-3 0 -8 -7zM404 152q-1 0 -7 4q-1 2 -1 8l59 333h-52q-11 0 -11 5l6 44q4 10 15 10h173q9 0 9 -8l-9 -45l-13 -6h-54l-58 -331q-4 -8 -6 -10q-6 -4 -8 -4h-43zM135 625q-10 0 -8 12l6 43q2 13 11 13h485q9 0 7 -13l-4 -41q-1 -7 -5 -10.5
t-7 -3.5h-485z" />
    <glyph glyph-name="b_y.liga" unicode="by" horiz-adv-x="676" 
d="M100 158q-7 0 -9 2q-5 5 -5 11l68 357q2 9 10 15q6 6 18 6h32l90 -1h8q16 0 25 -7q14 -6 22 -25q3 -8 3 -21q0 -5 -2 -15l-7 -43q-3 -24 -21 -48.5t-34 -27.5q17 -2 29.5 -20.5t12.5 -39.5q0 -3 -1.5 -10.5t-1.5 -11.5l-8 -39q-4 -36 -31.5 -59t-59.5 -23h-138zM48 7
q-10 0 -7 13l5 44q2 13 11 13h503q9 0 7 -13l-6 -44q-3 -13 -11 -13h-502zM169 207h44h2q24 4 33 14.5t15 33.5l6 24q3 9 3 19q0 12 -9 23q-12 12 -35 12h-36q-10 0 -13 -6q-4 -4 -4 -9l-20 -98v-1q0 -12 14 -12zM202 387l40 1q18 0 31 13t15 32q8 36 8 39q0 31 -37 31h-35
q-7 0 -10 -3q-4 -4 -7 -10l-16 -87l-1 -6q0 -10 12 -10zM419 153q-5 0 -9 4h-1h1q-3 3 -2 7l29 159q0 23 -2 34l-40 180q0 14 19 14h37q10 0 14 -10l2 -10l14 -102q2 -9 5 -12.5t7 -1.5t7 10l66 120q2 6 12 6h38q14 0 14 -14v1l-3 -5l-105 -175q-10 -25 -11 -28l-33 -164v-1
q0 -4 -3 -7q-9 -5 -13 -5h-43zM135 625q-10 0 -8 12l6 43q2 13 11 13h485q9 0 7 -13l-6 -43q-1 -3 -4.5 -7.5t-5.5 -4.5h-485z" />
    <glyph glyph-name="i_n.liga" unicode="in" horiz-adv-x="676" 
d="M246 160q-5 0 -9 4l1 -1q-3 3 -2 8l69 365v1q0 3 5 8q2 1 5.5 3t5.5 2h72q1 0 11 -5q3 -1 3 -6l46 -271l44 268q1 4 6 10l8 4h46q7 0 7 -4q3 -2 3 -4v1l-69 -366q-1 -8 -5 -12q-5 -5 -10 -5h-62q-4 0 -9 4q-5 2 -5 6v1l-57 273l-45 -272v-1q0 -4 -4 -8q-9 -3 -10 -3h-45z
M48 7q-10 0 -7 13l5 44q2 13 11 13h503q9 0 7 -13l-6 -44q-3 -13 -11 -13h-502zM106 158q-2 0 -6 4v-1q-1 2 -1 8l69 366q2 5 5 7v1q3 3 9 3h43q6 0 9 -3q1 -2 0 -6l-68 -367q-2 -6 -5 -8h1q-8 -4 -11 -4h-45zM135 625q-10 0 -8 12l6 43q2 13 11 13h485q9 0 7 -13l-6 -43
q-1 -3 -4.5 -7.5t-5.5 -4.5h-485z" />
    <glyph glyph-name="o_f.liga" unicode="of" horiz-adv-x="708" 
d="M41 20l5 44q2 13 11 13h517q9 0 7 -13l-6 -44q-3 -13 -12 -13h-515q-10 0 -7 13zM105 229q0 3 2 19l35 195q7 52 43.5 81.5t83.5 29.5h22q39 0 64.5 -26t25.5 -65v-18l-34 -194q-10 -47 -48 -79.5t-84 -32.5h-18q-39 0 -65.5 25.5t-26.5 64.5zM127 637l6 43q2 13 12 13
h516q9 0 7 -13l-6 -43q-1 -3 -4.5 -7.5t-6.5 -4.5h-515q-11 0 -9 12zM175 252q-4 -20 8.5 -35t31.5 -15h4q20 0 36.5 14.5t20.5 34.5l34 194q4 21 -8 35t-34 14h-2q-22 -1 -38.5 -15t-18.5 -33zM370 145l2 22l34 192l2 14l1 1l20 116v-7v8l1 7l1 6l6 31q4 14 16 14h170
q9 0 9 -12l1 -1l-7 -42q-2 -9 -17 -9h-116l-18 -99h90q10 0 10 -8v-3h1l-7 -41q-6 -12 -15 -12h-90l-29 -165q-6 -12 -16 -12h-38q-9 0 -10 6l-1 3v-9zM402 319l1 8l-1 4v-12zM429 490v1v1v-2z" />
    <glyph glyph-name="o_n.liga" unicode="on" horiz-adv-x="718" 
d="M344 161q-5 0 -6 4q-3 2 -3 8v-1l72 355v1q5 12 14 12h67q14 0 15 -12l37 -264l46 263q1 6 6 9.5t8 3.5h43q3 0 8 -5v-1l-71 -358q-2 -7 -5 -10q-5 -5 -9 -5h-58q-5 0 -9 4q-5 5 -5 7l-47 266l-47 -264v-1q0 -4 -4 -8t-10 -4h-42zM48 7q-10 0 -7 13l5 44q2 13 12 13h538
q9 0 7 -13l-6 -44q-1 -4 -5 -8.5t-8 -4.5h-536zM153 156q-29 0 -51 14q-17 10 -29 39q-6 12 -6 31q0 4 1 11t1 10v-1l37 181q5 33 24 54q14 18 45 35q26 14 55 14h18q28 0 51 -14q21 -14 28 -35v-1q8 -14 8 -31q0 -3 -1 -10.5t-1 -10.5v1l-36 -181q-6 -27 -25 -53
q-21 -25 -45 -36q-30 -17 -55 -17h-19zM172 214h3q21 0 36 15h-1q15 10 22 32h1l35 181l1 7v1q0 14 -9 27q-16 12 -34 12h-1q-19 0 -37 -12q-16 -14 -20 -33l-35 -181q-1 -3 -1 -10q0 -16 7 -23q12 -16 33 -16zM136 625q-11 0 -9 12l6 43q2 13 12 13h526q9 0 7 -13l-6 -43
q-1 -3 -4.5 -7.5t-6.5 -4.5h-525z" />
    <glyph glyph-name="t_h_e.liga" unicode="the" horiz-adv-x="953" 
d="M304 144q-10 0 -10 12h2v10l66 370q2 13 15 13h43q10 0 10 -12l-2 -10l-26 -139h120l27 148q2 13 15 13h44q11 0 11 -12l-2 -10l-67 -370q-1 -5 -5.5 -9t-8.5 -4h-44q-10 0 -8 11l27 170h-119l-31 -168q-1 -5 -5.5 -9t-8.5 -4h-43zM52 5q-12 0 -12 7l5 47q3 12 19 12h766
q6 0 9.5 -3t2.5 -7l-7 -45q-2 -11 -16 -11h-767zM133 144q-10 0 -8 11l59 338h-53q-6 0 -9.5 2t-2.5 6l8 42q5 7 15 7h172q12 0 12 -9l-2 -10l-5 -28q-2 -10 -15 -10h-52l-60 -336q-2 -13 -15 -13h-44zM613 146q-12 0 -10 10l7 40l25 138l9 40l20 122l7 41q2 13 15 13h170
q5 0 8 -3.5t2 -7.5l-6 -41q-2 -11 -15 -11h-119l-19 -99h94q7 0 8 -6l-7 -46q-2 -13 -14 -13h-91l-21 -114h121q9 0 10 -6l-9 -51v6h1q-4 -12 -15 -12h-171zM124 629q-6 0 -10 3.5t-3 7.5l9 43q2 11 18 11h766q7 0 8.5 -3t0.5 -13l-4 -36q-1 -5 -6.5 -9t-11.5 -4h-767z" />
    <glyph glyph-name="t_o.liga" unicode="to" horiz-adv-x="674" 
d="M396 141q-39 0 -65.5 25.5t-26.5 64.5q0 3 2 19l35 195q8 52 44 81.5t83 29.5h22q39 0 64.5 -26t25.5 -65v-18l-34 -194q-10 -47 -48 -79.5t-84 -32.5h-18zM46 7q-6 0 -6 17l3 36q2 17 12 17h503q10 0 7 -20l-6 -37q-2 -13 -12 -13h-501zM140 148q-1 0 -7 4q-1 2 -1 8
l59 333h-52q-11 0 -11 5l6 44q4 10 15 10h173q9 0 9 -8l-9 -45l-13 -6h-54l-58 -331q-4 -8 -6 -10q-6 -4 -8 -4h-43zM414 204h4q20 0 36.5 14.5t20.5 34.5l34 194q4 21 -8 35t-34 14h-2q-22 -1 -38.5 -15t-18.5 -33l-34 -194q-4 -20 8.5 -35t31.5 -15zM119 625q-10 0 -8 14
l5 39q3 15 12 15h499q9 0 6 -17l-5 -39q-2 -12 -11 -12h-498z" />
    <glyph glyph-name=".notdef" horiz-adv-x="500" 
d="M410 800v-1000h-317v1000h317zM333 118h-166v-113h166v113zM300 85v-47h-100v47h100zM333 291h-100v-56h34v23h33v-47h-100v80h-33v-113h166v113zM333 413h-33v-66h-133v-34h166v100zM333 473h-166v-33h66v-37h-66v-33h100v70h66v33zM233 570v-36h-33v36h33zM267 604
h-100v-104h166v34h-66v70zM333 733h-165v-33h65v-37h-66v-33h166v33h-66v37h66v33zM333 -18h-166v-33h70l-70 -47v-33h166v33h-102l70 47h32v33z" />
    <glyph glyph-name=".null" horiz-adv-x="0" 
 />
    <glyph glyph-name="nonmarkingreturn" horiz-adv-x="333" 
 />
    <glyph glyph-name="space" unicode=" " horiz-adv-x="250" 
 />
    <glyph glyph-name="exclam" unicode="!" horiz-adv-x="213" 
d="M-8 190q-5 0 -8.5 4.5t-2.5 9.5l78 474q3 16 16 16h76q5 0 8.5 -5t2.5 -11l-94 -475q-3 -13 -15 -13h-61zM-39 0q-8 0 -13 6t-3 14l12 66q1 8 8 14t14 6h61q8 0 13 -6t3 -14l-12 -66q-4 -20 -22 -20h-61z" />
    <glyph glyph-name="quotedbl" unicode="&#x22;" horiz-adv-x="266" 
d="M148 494q-9 0 -15 6.5t-5 14.5l30 170q2 8 10 14t17 6h33q9 0 14.5 -6t3.5 -14l-30 -170q-2 -8 -9 -14.5t-16 -6.5h-33zM30 494q-9 0 -15 6.5t-5 14.5l30 170q2 8 10 14t17 6h33q9 0 14.5 -6t3.5 -14l-30 -170q-2 -8 -9 -14.5t-16 -6.5h-33z" />
    <glyph glyph-name="numbersign" unicode="#" horiz-adv-x="591" 
d="M-4 -1q-9 0 -12.5 6t-1.5 14l73 207h-84q-8 0 -12 6t-1 15l19 48q3 14 19 14h87l47 128h-84q-8 0 -12.5 6.5t-2.5 14.5l18 48q5 14 20 14q17 1 90 1l56 162q7 15 21 15h50q8 0 12 -7t1 -14l-56 -156h123l58 164q7 15 21 15h49q8 0 12 -6.5t1 -14.5l-55 -158h68
q8 0 12.5 -6t0.5 -14l-17 -49q-4 -15 -19 -15h-74l-45 -128h67q8 0 12.5 -6t1.5 -15l-16 -48q-5 -15 -20 -15h-75l-74 -209q-4 -15 -19 -15h-50q-8 0 -13 6.5t-2 13.5l72 204l-123 1l-74 -212q-4 -15 -20 -15h-49zM169 309h123l45 128h-122z" />
    <glyph glyph-name="dollar" unicode="$" horiz-adv-x="405" 
d="M57 -37q-8 0 -13.5 7.5t-4.5 17.5l7 37l-11 5q-43 18 -60 44q-35 48 -23 115v1q1 6 6.5 10.5t9.5 4.5h53h12q7 -1 5 -10l-2 -9q-4 -25 7 -51q21 -33 58 -33h15q32 5 59 27q22 22 29 57l10 45q9 57 -32 83l-1 -2l1 2q-11 6 -61 15l-28 1q-35 3 -57 23q-21 21 -25 55l1 1
q-8 25 2 81l3 17q1 2 1.5 6.5t0.5 6.5l3 14h-1h1q9 53 55 92v1q33 26 69 35l13 4l9 53q2 10 9.5 16.5t16.5 6.5h42q10 0 15 -6.5t3 -16.5l-10 -57l12 -3q26 -6 53 -37l1 1l-1 -1q14 -17 24 -49q2 -34 -2 -60v-1q-2 -12 -11 -12h-60q-9 3 -7 11l1 6q4 25 -8.5 47t-35.5 30
q-9 3 -23 3h-3q-34 0 -65 -27q-24 -19 -29 -53l-10 -55q-4 -40 26 -55q26 -10 70 -11h3q72 0 99 -44l2 1l-2 -1q16 -25 15 -52q6 -25 -1 -73q-6 -32 -16 -58h2h-2q-16 -52 -51 -88q-33 -34 -81 -49l-11 -3l-8 -41q-1 -11 -8.5 -18t-17.5 -7h-42z" />
    <glyph glyph-name="percent" unicode="%" horiz-adv-x="516" 
d="M-37 -2q-8 0 -10.5 6t1.5 13l429 669q11 16 27 16h43q8 0 11 -6t-1 -13l-429 -669q-12 -16 -28 -16h-43zM264 -3q-31 0 -50 27v2l2 1v-3h-2q-15 23 -11 48l21 120q8 42 49 65q16 8 38 8h12q41 0 58 -36q6 -14 2 -37l-20 -120q-7 -42 -49 -65q-22 -10 -38 -10h-12zM278 47
h1q10 0 19 7.5t11 19.5l20 118q5 24 -20 24h-1q-25 0 -30 -24l-20 -118q-2 -12 3.5 -19.5t16.5 -7.5zM84 426q-36 0 -53 26l1 2l2 1l-1 -3h-2q-14 17 -8 48l21 120q6 39 47 65l2 -1v-1h-1v-1l-2 1l1 2q18 9 40 9h12q41 0 58 -36l-2 -2h-1l1 3l2 -1q5 -14 2 -37l-21 -121
q-4 -19 -17.5 -37t-31.5 -27q-19 -10 -37 -10h-12zM96 476h2q10 0 18.5 7.5t10.5 19.5l21 118q3 23 -20 23h-2q-25 0 -29 -23l-21 -118q-2 -12 4 -19.5t16 -7.5z" />
    <glyph glyph-name="ampersand" unicode="&#x26;" horiz-adv-x="454" 
d="M52 100q-52 0 -81.5 33.5t-20.5 86.5q10 52 55 106q26 31 109 87q4 0 2 6l-9 18q-27 53 -18 106q8 44 39 71q39 32 77 32q36 0 67 -27l3 -4q32 -39 23 -85q-11 -61 -93 -120q-5 -5 -3 -8l11 -22t14 -27.5t12 -24.5q5 -2 7 1q7 10 19 32t16 29q3 7 14 9l41 4q7 0 10.5 -6
t-0.5 -13q-22 -53 -71 -121v1h1v-6q23 -45 62 -110q2 -8 1 -12q-4 -19 -21 -22l-40 -4q-14 0 -16 9l-36 73q-2 4 -6 0q-80 -92 -168 -92zM40 193q15 -16 37 -16q29 0 58 24t38 40q0 1 0.5 1t0.5 1q1 7 -4 12l-40 92h1q-89 -51 -99 -112q-6 -28 8 -42zM182 462q47 32 54 71
q4 21 -7.5 36t-30.5 15q-9 0 -16 -3q-24 -8 -29 -32q-5 -29 24 -86q1 -3 5 -1z" />
    <glyph glyph-name="quotesingle" unicode="'" horiz-adv-x="142" 
d="M30 494q-18 0 -14 24l23 169q1 7 10 12.5t18 5.5h33q9 0 15 -6.5t5 -14.5l-37 -169q-4 -21 -20 -21h-33z" />
    <glyph glyph-name="parenleft" unicode="(" horiz-adv-x="264" 
d="M-76 -171q-11 0 -17 8t-4 19l4 22h-4v2h4l172 976h-4l1 2h5l-1 -1q1 10 10 17t20 7h268q11 0 17 -7t5 -17l-6 -33q-2 -10 -10.5 -17t-19.5 -7h-207l-157 -887h207q11 0 17 -8t4 -19l-5 -30q-2 -11 -11 -19t-20 -8h-268z" />
    <glyph glyph-name="parenright" unicode=")" horiz-adv-x="264" 
d="M-220 -173q-11 0 -17 8t-4 19l5 30q2 11 11 19t20 8h207l156 887h-207q-10 0 -16.5 7t-5.5 17l6 33q2 10 11 17t19 7h268q11 0 17.5 -7t4.5 -17l-1 1h5v-2h-4l-172 -976h4v-2h-4l-4 -22q-2 -11 -11 -19t-20 -8h-268z" />
    <glyph glyph-name="asterisk" unicode="*" horiz-adv-x="363" 
d="M124 414q-9 0 -7 11l17 93q1 4 -3 4l-4 -3l-63 -59q-9 -7 -13 0l-8 11q-7 9 2 14l64 59q6 6 -3 6h-71q-7 0 -7 10l4 19q0 8 10 8h60q3 0 4.5 3t-0.5 5l-34 49q-5 3 2 13l12 10q8 8 13 0l44 -58q1 -6 5 -2l2 3l14 81q2 9 10 9h12q10 0 8 -9l-12 -70q-1 -4 0.5 -5t4.5 2
l60 55q8 3 13 0l9 -12q2 -4 1 -7q0 -2 -4 -8l-55 -51q-3 -2 -2 -5t4 -3h67q10 0 10 -8l-4 -19q0 -3 -4.5 -6.5t-8.5 -3.5h-79q-9 0 -4 -6l47 -61q3 -10 -2 -15l-14 -12q-8 -8 -12 0l-40 55q-6 3 -7 -3l-15 -83q-2 -11 -11 -11h-12zM293 590q2 3 6 5z" />
    <glyph glyph-name="plus" unicode="+" horiz-adv-x="314" 
d="M61 234q-9 0 -7 9l40 225q2 8 9 8h44q5 0 7.5 -2.5t1.5 -5.5l-40 -225q-2 -9 -11 -9h-44zM-8 329q-4 0 -6.5 3t-1.5 5l8 43q0 2 3 5t7 3h217q7 0 7 -8l-8 -43q-2 -8 -9 -8h-217z" />
    <glyph glyph-name="comma" unicode="," horiz-adv-x="199" 
d="M-76 -56q-4 0 -4 4q0 1 1 2.5t2 2.5l24 31l3 6q2 8 -5 11l-1 1q-14 3 -10 22l10 60q5 24 28 24h62q10 0 15.5 -7t3.5 -17l-10 -60q-1 -8 -10 -18l-56 -61v1q0 -2 -8 -2h-45z" />
    <glyph glyph-name="hyphen" unicode="-" horiz-adv-x="296" 
d="M-9 329q-8 0 -12 5.5t-3 12.5l6 36q4 17 21 17h200q7 0 12 -5t3 -12l-6 -36q-4 -18 -21 -18h-200z" />
    <glyph glyph-name="period" unicode="." horiz-adv-x="159" 
d="M-66 0q-8 0 -13 6t-3 14l12 66q1 8 7.5 14t14.5 6h61q8 0 13 -6t3 -14l-12 -66q-4 -20 -22 -20h-61z" />
    <glyph glyph-name="slash" unicode="/" horiz-adv-x="289" 
d="M-46 2q-9 0 -13.5 7.5t-1.5 17.5l224 655q7 18 23 18h41q9 0 14 -7.5t2 -17.5l-221 -655q-7 -18 -24 -18h-44z" />
    <glyph glyph-name="zero" unicode="0" horiz-adv-x="452" 
d="M29 3q-3 1 -8.5 4t-19 16t-23 30.5t-15 50t-1.5 71.5l63 357q3 18 20 62q20 37 40 57q19 22 48 38q20 13 44 20q17 7 43 7h32q29 0 51 -12q26 -8 46 -33q21 -19 27 -46q16 -40 7 -93l-64 -363h-8l2 10h8q-8 -42 -31 -80t-36 -50.5t-22 -19.5q-56 -46 -121 -46
q-22 0 -42.5 5t-30.5 10zM121 79h5q23 0 50 15q21 15 40 39q16 25 20 53l61 342q4 29 -4 51q-6 20 -26 38l1 -1q-22 14 -45 14h-5q-17 0 -47 -13q-29 -19 -41 -37q-19 -27 -22 -52l-59 -342q-5 -26 3 -51q10 -27 27 -41q19 -15 42 -15z" />
    <glyph glyph-name="one" unicode="1" horiz-adv-x="354" 
d="M113 0q-9 0 -14 5.5t-4 14.5l97 548h1h-1l1 5l-2 -2l-3 -3l-79 -94q-10 -12 -23 -9l-51 12q-16 3 -13 20q2 6 6 12l162 183q4 9 17 9h73q10 0 14.5 -6t2.5 -15l-116 -660q-4 -20 -24 -20h-44z" />
    <glyph glyph-name="two" unicode="2" horiz-adv-x="446" 
d="M-18 0q-22 0 -22 27q1 17 5 40q8 45 29.5 84.5t37 57t41.5 41.5q17 15 36 31t30.5 25.5t21.5 19.5q74 78 101 152q8 23 12 43q14 89 -39 102l1 2l-1 -2q-15 3 -27 3q-64 0 -85 -68q-2 -9 -11 -15.5t-19 -6.5h-27q-11 0 -18 8.5t-4 19.5q20 70 70.5 110t112.5 40
q27 0 56 -9l-2 -4h-1l2 4q98 -36 74 -173q-2 -13 -12 -50q-10 -45 -35 -89t-45.5 -68t-51.5 -56q-25 -25 -87 -77q-42 -37 -72 -100l207 -1q11 0 17.5 -8t4.5 -19l-7 -37q-1 -11 -10.5 -19t-20.5 -8h-262z" />
    <glyph glyph-name="three" unicode="3" horiz-adv-x="435" 
d="M102 -6q-12 0 -24 1.5t-18 2.5l-5 2q-30 8 -50 24.5t-27.5 34t-10.5 34t-1 27.5l1 10l7 33q2 11 10.5 18.5t18.5 7.5h36q11 0 17 -8t4 -18l-3 -20q-6 -28 9 -49t45 -24h12q17 1 33 12q17 10 28 27q12 17 15 34l16 92q2 13 -3 34q-4 22 -34 30q-18 9 -15 32l9 53
q5 21 23 26q38 15 49 36q11 24 13 35l16 90q3 18 -3 34t-19 25q-13 10 -31 10h-10q-29 -1 -52 -21q-21 -18 -27 -48l-7 -41q-1 -10 -9.5 -16.5t-18.5 -6.5h-38q-10 0 -15.5 6t-3.5 16l7 44q1 4 2.5 11t10.5 26.5t22 35.5t39 34t59 27q22 6 50 6q11 0 22 -1.5t17 -3.5l5 -1
q30 -9 50.5 -26.5t27.5 -35.5t10 -34.5t1 -26.5l-1 -11l-22 -110q-13 -69 -73 -107q-5 -4 2 -9q44 -35 32 -106l-18 -111q-1 -4 -2.5 -11t-10.5 -26t-22 -35t-39 -33t-59 -25q-22 -6 -47 -6z" />
    <glyph glyph-name="four" unicode="4" horiz-adv-x="496" 
d="M195 1q-11 0 -17 7t-4 17l24 139h-227q-12 0 -18.5 8t-4.5 20l5 24q0 3 3 9v1l267 456q12 17 30 17h64v1h1v-1h28q11 0 16.5 -7.5t3.5 -17.5l-75 -429h65q12 0 18.5 -8.5t4.5 -20.5l-5 -24q-1 -12 -11 -20t-22 -8h-65l-24 -139q-5 -24 -29 -24h-28zM64 251h142q6 0 7 6
l61 345q0 3 -1.5 4.5t-4.5 0.5t-5 -4l-203 -344v-2q-2 -6 4 -6z" />
    <glyph glyph-name="five" unicode="5" horiz-adv-x="426" 
d="M91 -2q-40 0 -69 19v2h1h1v-1l-2 -1q-27 20 -44 54q-13 35 -9 68v1q1 7 7.5 12t11.5 5h50q15 0 15 -14q0 -18 5 -28q5 -15 22 -25q13 -10 33 -10h3q20 0 39 11q15 7 28 26q12 17 16 38l25 144q4 19 -2 36q-8 19 -21 26q-15 10 -34 10h-3q-22 0 -38 -11q-20 -12 -32 -30
h-1q-3 -4 -9 -7q-7 -3 -11 -3h-51q-9 0 -12.5 6.5t-2.5 13.5l1 6l59 336q0 5 4 10q4 6 11 7h-1q5 3 10 3h250q8 0 13 -6t3 -13l-7 -40q-2 -8 -8.5 -14t-14.5 -6h-192l-33 -186l-3 2l1 2q35 17 79 17q49 0 78 -19q28 -17 42 -54q13 -34 6 -74l-29 -164q-6 -40 -32 -74
q-25 -36 -61 -56q-37 -19 -75 -19h-17z" />
    <glyph glyph-name="six" unicode="6" horiz-adv-x="429" 
d="M89 -9q-39 0 -70 22l1 1v-1q-27 15 -45 52q-13 34 -6 73l79 447q6 37 31 66q24 27 61 44q38 15 79 15h18q38 0 69 -17q32 -21 43 -49q11 -30 8 -58q-2 -12 -14 -12h-61q-10 0 -10 12l1 2l4 2l-1 -4l-3 -1v1h-1q-3 21 -18.5 33t-29.5 13l-14 2v1v-1q-33 0 -55 -14
q-26 -15 -34 -48h-1l10 48l-9 -49h-1h1q-12 -72 -20 -115q-5 -37 -7 -37h-2v1v2q40 21 93 19v-1v1q40 0 69 -19t44 -52q11 -32 5 -73l-28 -159q-8 -38 -31 -73q-30 -36 -61 -53q-41 -21 -77 -21h-17zM111 71h2q20 0 38 11q16 8 29 27q14 18 17 37l25 139q4 19 -4 36
q-7 20 -20 29q-13 10 -34 10h-2q-22 0 -40 -10q-19 -9 -32 -27q-14 -21 -16 -38l-25 -139q-3 -21 5 -38q5 -19 21 -27q18 -10 36 -10z" />
    <glyph glyph-name="seven" unicode="7" horiz-adv-x="374" 
d="M-34 3q-5 0 -3 7q1 3 2 7l1 3l1 -1h-1l2 10l1 -4v1l258 595h-175q-2 0 -5 0.5t-6.5 4.5t-2.5 11l8 50q3 13 18 13l266 1q13 0 9 -16l-6 -19l-280 -649q-5 -14 -31 -14h-56z" />
    <glyph glyph-name="eight" unicode="8" horiz-adv-x="413" 
d="M90 -11q-13 0 -24.5 1.5t-16.5 3.5l-5 1q-30 9 -50 26t-27.5 34.5t-10 33.5t-0.5 26l1 10l21 113q16 73 68 105q8 5 8 7q1 2 -7 7q-39 34 -29 105l18 114q1 4 2.5 11t10.5 25.5t22 34.5t39 33t59 26q19 7 49 7q12 0 23 -1.5t16 -3.5l5 -2q30 -9 50 -25.5t27.5 -34
t10 -33.5t0.5 -27l-1 -10l-22 -114q-11 -67 -65 -103q-9 -6 -9 -8q-1 -3 6 -7q42 -36 28 -106l-17 -113q-1 -4 -2.5 -10.5t-10.5 -25t-22 -34.5t-39 -33.5t-59 -26.5q-21 -6 -47 -6zM113 71l-1 1q21 2 37 13q16 6 28 27q15 25 17 38l16 92q2 12 -3 36q-15 22 -20 26l1 -1
l-2 1q-15 10 -33 10h-10q-36 -3 -55 -23q-22 -18 -28 -49l-16 -92q-6 -30 8 -54q17 -23 48 -24h11l1 4h2zM168 395l-1 1q27 3 39 14l1 -1l-1 1q15 9 28 28t16 36l16 93q4 19 -3 35q-5 17 -20 27q-14 11 -35 11h-10q-32 -1 -54 -22q-23 -21 -28 -51l-16 -93q-6 -32 9 -51
q13 -24 46 -27h11l1 3h2z" />
    <glyph glyph-name="nine" unicode="9" horiz-adv-x="430" 
d="M103 -10l-18 1q-39 0 -68 18q-32 19 -45 47q-11 26 -8 54q3 17 18 18h48q9 0 13.5 -3.5t5 -5.5t0.5 -5l-2 -1h-1l1 2h3q4 -30 32 -42t50 -12h4q0 2 -25 2v1v1q33 0 56 17q27 15 33 47v1q0 3 2.5 16.5t6.5 35.5t7 39q10 63 14 63l1 -1v-1h-2l2 -1h1v-1l-1 -1
q-40 -21 -95 -19l1 1l-1 -1q-41 0 -67 19q-28 16 -45 52q-12 34 -5 73l28 159q6 36 31 74q34 37 62 52q39 22 76 22h17q38 0 71 -22h3l-4 -3v1l1 2v-1l1 1q21 -13 43 -52q12 -33 6 -74l-79 -447q-5 -33 -31 -67q-26 -28 -61 -42q-34 -17 -80 -17zM158 342h2q24 0 39 9
q20 11 32 27q14 21 17 38l24 139q5 20 -4 37q-9 22 -21 28q-17 10 -36 10h-2q-15 0 -38 -10q-17 -8 -29 -26q-12 -16 -17 -39l-24 -139q-3 -19 4 -36q5 -16 18 -29q15 -9 35 -9z" />
    <glyph glyph-name="colon" unicode=":" horiz-adv-x="201" 
d="M29 426q-8 0 -13 6t-3 14l12 66q2 8 8.5 14t13.5 6h61q8 0 13 -6t3 -14l-12 -66q-4 -20 -22 -20h-61zM-46 0q-8 0 -13 6t-3 14l12 66q1 8 7.5 14t14.5 6h61q8 0 13 -6t3 -14l-12 -66q-4 -20 -22 -20h-61z" />
    <glyph glyph-name="semicolon" unicode=";" horiz-adv-x="201" 
d="M-66 -39q-8 0 -6 7q0 3 4 7l20 26q1 1 1 3q1 5 -3 5q-15 4 -11 23l9 51q1 10 9.5 16.5t17.5 6.5h52q10 0 16.5 -7t4.5 -16l-9 -51q-1 -8 -10 -18l-47 -51q-4 -2 -10 -2h-38zM29 426q-8 0 -13 6t-3 14l12 66q2 8 8.5 14t13.5 6h61q8 0 13 -6t3 -14l-12 -66q-4 -20 -22 -20
h-61z" />
    <glyph glyph-name="less" unicode="&#x3c;" horiz-adv-x="296" 
d="M125 208q-12 0 -22 7l-106 117q-2 7 -1 18q3 13 14 23l146 116q14 9 24 9q5 0 8 -1l19 -16q7 -5 5 -18q-2 -14 -13 -22l-114 -90l81 -88q7 -7 4 -20q-2 -13 -10 -19l-9 -6q-13 -10 -26 -10z" />
    <glyph glyph-name="equal" unicode="=" horiz-adv-x="321" 
d="M19 395q-18 0 -15 18l7 36q1 7 7.5 12.5t13.5 5.5h199q7 0 11.5 -5.5t3.5 -12.5l-7 -36q-3 -18 -21 -18h-199zM-9 244q-8 0 -12 5.5t-3 12.5l6 36q4 17 21 17h200q7 0 12 -5t3 -12l-6 -36q-4 -18 -21 -18h-200z" />
    <glyph glyph-name="greater" unicode="&#x3e;" horiz-adv-x="286" 
d="M21 208q-12 0 -22 10l-7 6q-5 8 -4 19q4 15 12 20l111 88l-82 90q-7 7 -5 22q1 10 11 18l25 16q3 1 8 1q12 0 22 -9l104 -116q9 -10 6 -23q-1 -9 -7 -18l-148 -117q-11 -7 -24 -7z" />
    <glyph glyph-name="question" unicode="?" horiz-adv-x="414" 
d="M56 171h-2q-7 0 -13 6q-5 9 -4 19l1 6v2q1 2 1 3q8 41 27 72.5t64 60.5q12 8 42 16.5t48 25.5t28 57q1 4 7 34q14 81 1 113q-13 25 -37 30q-16 2 -23 2q-32 0 -58 -18q-34 -26 -47 -70q-6 -20 -26 -22h-37q-10 0 -17 8q-4 9 -2 20q30 110 104 149q39 25 97 25
q106 0 133 -78q13 -34 2 -121l-1 -4q-8 -55 -21.5 -96t-26.5 -63t-31 -36.5t-28 -19t-24 -7.5q-48 -13 -73 -70q-1 -3 -3 -10t-3 -11q-8 -22 -25 -22l-52 -1h-1zM25 0q-8 0 -13 6t-3 14l12 66q1 8 8 14t14 6h61q8 0 13 -6t3 -14l-12 -66q-4 -20 -22 -20h-61z" />
    <glyph glyph-name="at" unicode="@" horiz-adv-x="773" 
d="M212 -1q-123 0 -194 96q-69 101 -44 244q14 78 56 145q39 67 100 119q130 111 285 111q129 0 208 -68q41 -36 58 -77q20 -40 23 -94v-5q0 -37 -8 -80q-13 -79 -51 -144q-48 -83 -134 -118q-45 -17 -85 -17q-60 0 -83 48q-4 7 -6 20v2q0 8 -1 10l-1 1l1 1q0 11 -16 11
q-3 0 -4 -1h-2q-40 -10 -64 -10q-64 0 -90 50q-18 41 -7 106q10 54 31 86q32 51 68 75q37 26 78 26q36 0 70 -18q4 -3 9 -3q10 0 20 10q5 3 9 3l33 3q15 0 23 -10q9 -11 6 -27l-1 -1l-65 -248q-2 0 -1 -17t9 -27q8 -9 23 -9h1q17 1 27.5 4t16 6.5t18.5 13.5q67 51 88 165
q3 21 3 23q6 35 -4 82l-1 5q-8 38 -26 63q-20 30 -47 47q-53 35 -136 35q-68 0 -132 -26q-60 -28 -104 -66q-46 -40 -77 -93q-33 -56 -43 -112q-9 -55 0 -103q8 -48 35 -85q55 -75 155 -75l26 1q8 0 13 -6t4 -14l-7 -37v-1q-8 -19 -24 -20h-39zM280 273q20 0 47 8
q28 12 31 32l22 86q8 35 -22 50q-13 7 -31 7q-20 0 -38 -12q-24 -14 -39 -39q-16 -21 -22 -56q-6 -33 4 -51v-1q13 -24 48 -24z" />
    <glyph glyph-name="A" unicode="A" 
d="M-74 0q-10 0 -15 7.5t-2 17.5l249 649q5 12 16 20t24 8h77q11 0 18.5 -7t7.5 -18l21 -646q0 -12 -9 -21.5t-21 -9.5h-37q-11 0 -18 7t-7 17l-1 186q-1 3 -4 3h-153q-3 0 -3 -3l-67 -182q-4 -12 -14.5 -20t-22.5 -8h-39zM104 295h119q4 0 4 4l-6 304q0 3 -2.5 3t-4.5 -3
l-114 -304q0 -4 4 -4z" />
    <glyph glyph-name="B" unicode="B" horiz-adv-x="456" 
d="M69 0l-39 1h-51q-14 0 -22.5 10t-5.5 24l112 635q1 12 11.5 20.5t21.5 8.5h28q119 4 180 -11q3 -1 8.5 -3.5t19 -11t23.5 -19.5t16 -29.5t3 -40.5l-19 -125q-1 -6 -5 -18q-20 -55 -54 -77q25 -17 34.5 -46t6.5 -50q-2 -17 -8 -51l-6 -34l-16 -64q-10 -38 -35.5 -65
t-45.5 -35l-20 -8q-43 -11 -137 -11zM89 74q44 0 73 7q5 1 14 5t26 20.5t23 39.5l18 83q0 2 1 6t0.5 15t-3 20.5t-10 19t-19.5 14.5q-22 10 -83 10q-26 0 -41 -1l-45 -237q21 -2 46 -2zM101 396h16q11 1 30 1q20 1 36.5 3t22.5 4l6 2q23 8 38 25.5t18 31.5l4 14l12 80
q2 22 -9.5 38t-23.5 21l-12 4q-37 8 -97 6z" />
    <glyph glyph-name="C" unicode="C" horiz-adv-x="450" 
d="M93 -7q-27 0 -56 12q-22 10 -44 33q-15 16 -28 50h-1v1q-16 42 -7 94l61 345q4 31 22 63q13 27 38 54q24 25 54 42l3 2q40 19 83 19h33q34 0 57 -10q30 -11 44 -29q17 -18 30 -48q14 -42 8 -78q-1 -7 -3 -12t-5 -8l-5 -5t-7 -2.5t-8 -1t-10.5 -0.5h-11.5h-22
q-19 0 -21 19q1 28 -5 49q-8 22 -27 34q-16 12 -46 12h-3q-27 0 -50 -13q-24 -12 -41 -34q-18 -22 -23 -52l-60 -340q-5 -31 5 -53q9 -23 29 -38q20 -16 44 -16h3q25 0 51 15q22 13 40 39q7 10 19 46q3 14 19 14l58 2q7 0 11.5 -5t3.5 -12q-5 -38 -20 -63q-16 -33 -36 -55
q-31 -32 -52 -43q-47 -27 -91 -27h-33z" />
    <glyph glyph-name="D" unicode="D" horiz-adv-x="472" 
d="M-36 -2q-7 0 -12 6t-4 15l116 660q1 8 8.5 14t15.5 6h63h2h132q45 0 79 -26q62 -48 45 -144q-5 -27 -20 -116t-24 -138l-22 -121q-7 -38 -35 -78.5t-77 -62.5q-33 -15 -66 -15h-201zM47 88h97q101 0 117 88l55 314q3 20 3.5 36t-1 28t-6.5 21.5t-9 15.5t-12 10.5t-13 6.5
t-14 3t-12.5 1h-11.5h-8h-93z" />
    <glyph glyph-name="E" unicode="E" horiz-adv-x="421" 
d="M-35 -1q-8 0 -13 6.5t-4 15.5l116 656q1 9 9 15.5t16 6.5h278q9 0 14.5 -6.5t3.5 -15.5l-8 -47q-2 -9 -9.5 -16t-16.5 -7h-208l-35 -197h168q8 0 13.5 -7t3.5 -16l-7 -41q-6 -22 -25 -22h-168l-42 -235h208q9 0 14.5 -7.5t3.5 -15.5l-8 -45q-1 -9 -9 -15.5t-17 -6.5h-278
z" />
    <glyph glyph-name="F" unicode="F" horiz-adv-x="422" 
d="M-33 0q-9 0 -14.5 6.5t-4.5 15.5l116 656q1 9 9 15.5t17 6.5h278q9 0 14.5 -6.5t3.5 -15.5l-8 -47q-2 -9 -9.5 -16t-16.5 -7h-208l-35 -197h167q10 0 15.5 -6.5t3.5 -16.5l-7 -41q-1 -9 -9 -15.5t-17 -6.5h-168l-53 -298q-1 -11 -10.5 -19t-20.5 -8h-43z" />
    <glyph glyph-name="G" unicode="G" horiz-adv-x="465" 
d="M101 -5q-36 0 -58 11q-26 10 -48 32q-17 20 -31 51q-16 42 -7 93l61 347q6 35 21 62q14 29 39 55q24 23 55 39v-1l-1 1q45 24 94 24h33q28 0 55 -8q27 -9 49 -25q14 -13 32 -40q12 -27 12 -58q1 -10 -8.5 -19.5t-20.5 -9.5h-45q-15 0 -19 18q0 20 -9 32q-13 19 -32 25
t-46 6h-4q-27 0 -53 -13q-28 -16 -43 -36q-18 -21 -23 -50l-61 -344q-4 -7 -1.5 -23.5t7.5 -34.5t25.5 -32t52.5 -15h3q33 -1 58 13t38 36t18.5 36.5t8.5 26.5l11 54q1 3 -0.5 5t-4.5 2.5t-5.5 0.5h-7.5h-7q-5 0 -16.5 0.5t-16.5 0.5q-9 0 -14.5 6.5t-3.5 15.5l7 40
q1 10 9.5 17t18.5 7l125 -1q9 0 14 -6t4 -16l-24 -137q-6 -37 -22 -64q-16 -31 -41 -57q-25 -27 -53 -42q-43 -25 -92 -25h-33z" />
    <glyph glyph-name="H" unicode="H" horiz-adv-x="496" 
d="M-52 18l116 660q3 19 23 19h51q8 0 13 -5.5t4 -13.5l-45 -258h194l45 258q3 19 23 19h51q8 0 13 -5.5t4 -13.5l-116 -660q-1 -8 -8.5 -13.5t-15.5 -5.5h-51q-19 0 -16 19l55 314h-194l-55 -314q-1 -8 -8.5 -13.5t-15.5 -5.5h-51q-19 0 -16 19z" />
    <glyph glyph-name="I" unicode="I" horiz-adv-x="220" 
d="M-31 -2q-8 0 -12.5 6t-3.5 15l116 660q2 8 9 14.5t15 6.5h49q8 0 13 -6t4 -15l-116 -660q-2 -8 -9 -14.5t-16 -6.5h-49z" />
    <glyph glyph-name="J" unicode="J" horiz-adv-x="411" 
d="M76 -13q-70 2 -111 51q-23 28 -26 70q-2 19 -1 25q2 10 9.5 17.5t18.5 7.5h22q27 0 32 -25q2 -22 18 -38q17 -23 57 -23q30 0 51 16.5t26 43.5q17 84 55 295l44 257q2 7 8.5 13t13.5 6h46q9 0 14 -6t3 -14l-91 -517q-10 -59 -23.5 -86.5t-37.5 -49.5q-49 -42 -128 -42v1
v1h1z" />
    <glyph glyph-name="K" unicode="K" horiz-adv-x="492" 
d="M-36 -1q-9 0 -13.5 6t-2.5 15l117 661q4 20 23 20h43q9 0 14.5 -5.5t4.5 -14.5l-45 -252l213 263q4 9 18 9h73q6 0 8 -6.5t-3 -11.5l-233 -289q-3 -5 -1 -7l169 -369v-6q-4 -13 -13 -13h-80q-10 0 -14 9l-150 336q-1 1 -2 0l-57 -324q-1 -9 -9 -15t-17 -6h-43z" />
    <glyph glyph-name="L" unicode="L" horiz-adv-x="376" 
d="M-34 1q-9 0 -14 5.5t-4 14.5l116 657q1 8 9 14.5t16 6.5h46q8 0 13.5 -6.5t3.5 -14.5l-104 -590h177q8 0 13.5 -6.5t3.5 -14.5l-8 -46q-1 -9 -8.5 -14.5t-15.5 -5.5h-244z" />
    <glyph glyph-name="M" unicode="M" horiz-adv-x="638" 
d="M-36 0q-19 0 -16 18l116 658q1 9 9 16t17 7h100q16 0 18 -16l50 -372l181 372q8 16 25 16h100q8 0 13.5 -6.5t4.5 -16.5l-117 -660q-2 -16 -18 -16h-54q-7 0 -11 5t-3 12l95 555v2q-2 1 -3 -1l-179 -365q-10 -21 -33 -21h-45q-23 0 -25 21l-52 372q-1 2 -2.5 2t-1.5 -2
l-98 -562q-4 -18 -21 -18h-50z" />
    <glyph glyph-name="N" unicode="N" horiz-adv-x="544" 
d="M-35 1q-8 0 -13.5 6.5t-3.5 14.5l116 656q2 8 9 14.5t15 6.5h104v1l1 -1v-1h4q17 0 19 -14l93 -544l85 532q2 9 11 18t17 9h49q8 0 13 -6.5t4 -14.5l-115 -655q-2 -8 -9.5 -14.5t-15.5 -6.5h-90q-14 0 -19 15l-110 574l-91 -569q-2 -8 -9 -14.5t-16 -6.5h-48z" />
    <glyph glyph-name="O" unicode="O" 
d="M118 -10q-23 0 -45 4.5t-33 9.5l-10 5q-4 1 -9.5 4t-20 15.5t-25 29.5t-17 48.5t-2.5 70.5l62 353q5 27 21 61q21 36 41 55q20 22 51 38q24 13 46 19q19 6 46 6h35q31 0 55 -11q28 -9 48 -32q22 -18 30 -45q18 -40 9 -91l-63 -356h-2l1 4h2q-17 -87 -92 -144
q-58 -44 -128 -44zM129 84h4q29 0 57 15q27 18 45 39q17 24 21 53l59 333q4 22 -5 51q-11 23 -31 38q-22 13 -51 13h-4q-26 0 -54 -13q-30 -16 -46 -37q-18 -25 -23 -52l-57 -333q-5 -28 5 -52q9 -23 30 -40q23 -15 50 -15z" />
    <glyph glyph-name="P" unicode="P" horiz-adv-x="430" 
d="M-28 -5q-12 0 -18.5 9t-4.5 21l112 638q3 15 15 25.5t26 10.5h48q114 3 163 -10q3 -1 7.5 -3t15.5 -11t19.5 -20t14 -31.5t2.5 -45.5l-19 -130q-2 -14 -4 -19q-9 -29 -31 -61t-59 -46q-40 -24 -139 -24q-26 0 -41 1l1 1l-48 -275q-2 -12 -11.5 -21t-21.5 -9h-27zM102 390
l-1 1q13 -1 36 -1q27 0 49 2.5t30 5.5l8 2q20 8 33 25.5t17 31.5l3 14l12 82q2 22 -7.5 37.5t-19.5 20.5l-11 5q-21 5 -66 5l-45 -1l1 1z" />
    <glyph glyph-name="Q" unicode="Q" horiz-adv-x="497" 
d="M271 -151q-7 0 -11 4l-226 151l-28 20l-7 4q-28 29 -39 66q-11 41 -4 84l62 352q6 32 23 63q19 33 41 55q29 28 56 41q22 13 45 18q22 7 49 7h35q33 0 60 -12q28 -11 48 -31q23 -25 32 -49q17 -43 8 -92l-62 -352h1l-1 -6q-4 -25 -21 -60q-17 -31 -42 -56
q-26 -26 -56 -43l-26 -15l108 -74q11 -8 8 -21q0 -5 -6 -13l-24 -29q-10 -12 -23 -12zM134 73h3q33 0 58 15q26 16 44 39q18 25 23 54l61 347q5 29 -5 51q-11 25 -32 37q-19 14 -51 14h-3q-31 -2 -56 -14q-26 -13 -45 -35q-20 -25 -25 -53l-60 -347q-5 -29 7 -55
q11 -24 31 -38q22 -15 50 -15z" />
    <glyph glyph-name="R" unicode="R" horiz-adv-x="468" 
d="M-27 -3q-13 0 -19.5 9t-4.5 21l113 637q2 14 14.5 25t26.5 11h50q119 3 170 -10q3 -1 7.5 -3t16.5 -11t20.5 -20t14.5 -31.5t4 -45.5l-19 -130q-2 -10 -5 -19q-26 -81 -93 -106l-4 -2l51 -294q1 -11 -7 -20t-19 -9h-39q-21 0 -26 20l-45 267q-4 14 -17 14h-19h-24.5
h-22.5q-14 0 -16 -12l-46 -261q-2 -12 -12 -21t-22 -9h-28zM136 391q30 0 54 2.5t33 5.5l9 3q21 7 34.5 24.5t17.5 31.5l3 14l12 82q1 22 -9 37.5t-21 20.5l-11 5q-24 5 -71 5h-28l-15 -1l-38 -229q6 0 16 -0.5t14 -0.5z" />
    <glyph glyph-name="S" unicode="S" horiz-adv-x="429" 
d="M87 -7q-23 0 -45 5q-39 10 -63 33.5t-30 48.5t-8 50.5t3 39.5q4 18 21 18h55q6 0 10 -4.5t3 -11.5q-2 -33 7 -54t26.5 -28t26.5 -8.5t18 -1.5h1l-1 1l-1 -2h1q0 2 2 2v-1q31 1 54 14.5t35.5 34t19 37t9.5 34.5q0 3 0.5 7t1 6t0.5 3l2 13l-1 1v-1q6 34 -2 56t-28.5 31
t-36 11.5t-39.5 3.5q-46 1 -75.5 18.5t-38.5 44t-12 57t4 57.5l18 65q15 41 40.5 69.5t54 41t50 17t42.5 4.5q5 0 10 -0.5t8 -0.5h4l-1 1l-2 -2h1q0 2 2 2v-1q38 -3 64 -17t38 -33t17 -42.5t4.5 -41t-3.5 -33.5q-4 -18 -19 -18h-43q-6 0 -10 4.5t-3 11.5q11 90 -70 90
q-9 0 -33 -3q-41 -5 -62 -36.5t-27 -68.5l-3 -26q0 -26 7 -42.5t21.5 -23.5t24.5 -9.5t30 -2.5t25 -1q157 -15 128 -189q-8 -43 -35 -109q-33 -65 -87 -93t-110 -28z" />
    <glyph glyph-name="T" unicode="T" horiz-adv-x="355" 
d="M16 630l8 50q2 8 9 13.5t15 5.5h164h111q8 0 13 -5.5t3 -13.5l-8 -50q-2 -8 -9 -13.5t-15 -5.5h-92l-104 -593q-1 -7 -8 -13t-15 -6h-53q-7 0 -12 5.5t-3 13.5l104 593h-92q-8 0 -13 5.5t-3 13.5z" />
    <glyph glyph-name="U" unicode="U" horiz-adv-x="482" 
d="M124 -4q-37 -1 -67.5 11t-47 29.5t-25 30.5t-11.5 22q-15 44 -6 93l88 503q4 18 20 18h55q7 0 11.5 -5.5t3.5 -12.5l-87 -496q-4 -7 -2 -23.5t6.5 -33t22.5 -29.5t46 -14h17q29 1 51.5 13.5t34.5 31t17.5 31.5t7.5 24l88 496q2 7 8 12.5t13 5.5h55q7 0 11.5 -5.5
t2.5 -12.5l-89 -503q-9 -49 -39 -93l-1 -2v-1q-80 -92 -184 -90z" />
    <glyph glyph-name="V" unicode="V" horiz-adv-x="469" 
d="M79 2q-11 0 -18 6.5t-7 16.5l-20 646q-1 11 7.5 20t19.5 9h37q21 0 23 -22l19 -553l212 549q10 26 37 26h38q10 0 14.5 -7t0.5 -17l-250 -648q-9 -26 -37 -26h-76z" />
    <glyph glyph-name="W" unicode="W" horiz-adv-x="702" 
d="M66 -2q-11 0 -18 6.5t-7 16.5l-7 659l1 2q1 6 6.5 11.5t12.5 5.5l52 -1q15 0 17 -16l7 -500q-1 -3 2.5 -3t5.5 3l165 500q1 7 8 12t14 5h67q7 0 11.5 -4.5t3.5 -11.5l-12 -499q0 -3 3 -3t4 3l187 499q7 16 22 16h54q7 0 10.5 -5.5t1.5 -12.5l-240 -661q-3 -9 -12.5 -15.5
t-19.5 -6.5h-74q-10 0 -16 6.5t-6 15.5l9 447l-151 -447q-3 -9 -11.5 -15.5t-17.5 -6.5h-72z" />
    <glyph glyph-name="X" unicode="X" horiz-adv-x="452" 
d="M-76 2l1 5l1 1v-1q-4 1 -7 8q-2 5 0 8q0 5 2 8h1l6 11l195 324l-76 307h1v1h-1v4q0 4 3 8h1l2 1h-1q1 4 7 7t13 3h56q7 0 11 -4q5 -3 6 -6h-1v2q8 -37 22 -110.5t22 -109.5l132 216q1 2 9 10q8 2 11 2h56q6 0 11 -3q6 -4 7 -8q1 -2 1 -8q0 -3 -2 -4h-1v-1h1l-189 -307
l85 -336v-3l2 -1l-1 -4q0 -5 -4 -7h1q-3 -4 -8 -8q-7 -3 -14 -3h-56q-7 0 -10 3q-5 3 -7 9l-57 246l-145 -246q-3 -7 -9 -9v1q-4 -4 -11 -4h-54q-6 0 -10 3h2z" />
    <glyph glyph-name="Y" unicode="Y" horiz-adv-x="435" 
d="M76 0q-7 0 -11.5 6t-3.5 14l42 242q9 62 3 85l-71 329q-1 3 0 6q1 7 6.5 12t12.5 5h57q10 0 15 -12l50 -265l143 265q9 12 20 12l55 1q10 0 14 -7.5t0 -16.5q-122 -212 -180 -313q-17 -30 -23 -58l1 1q-3 -6 -3 -11l-2 -7l-50 -268q-4 -20 -22 -20h-53z" />
    <glyph glyph-name="Z" unicode="Z" horiz-adv-x="444" 
d="M-65 0q-11 0 -8 12q0 6 6 16l340 588h-212q-15 0 -13 14l9 53q3 17 19 17h305q8 0 14.5 -6.5t0.5 -17.5l-333 -592h223q7 0 11.5 -4t2.5 -12l-8 -50q-3 -18 -20 -18h-337z" />
    <glyph glyph-name="bracketleft" unicode="[" horiz-adv-x="293" 
d="M76 -120q-45 37 -68 78q-35 60 -43 120q-13 87 6 186l16 87l15 88q17 103 59 184q30 61 86 121q39 42 95 78q7 4 14 4q12 0 16 -9l10 -27q3 -8 2 -15q-3 -13 -14 -22q-46 -39 -85 -88q-33 -43 -60 -109q-21 -46 -37 -121l-29 -167h1l-1 -2h-2l2 1q-1 -1 -3 -17t-4 -43
t0 -61q5 -65 22 -108q20 -43 55 -89q8 -8 5 -21q-2 -9 -7 -16l-20 -26q-6 -10 -19 -10q-6 0 -12 4z" />
    <glyph glyph-name="backslash" unicode="\" horiz-adv-x="284" 
d="M60 2q-18 0 -18 18l11 655v3q1 9 8.5 15.5t15.5 6.5h41q17 0 17 -18l-8 -655v-4q-2 -8 -8.5 -14.5t-14.5 -6.5h-44z" />
    <glyph glyph-name="bracketright" unicode="]" horiz-adv-x="293" 
d="M-57 -120q-8 -4 -14 -4q-12 0 -16 10l-10 26q-3 8 -2 16q4 15 14 21q49 44 85 89q37 48 61 108q8 19 14.5 38t10.5 33.5t6.5 26t3.5 17.5l2 6v-1h-2l1 2h1l29 167q7 46 7 121q-4 61 -23 109q-21 47 -55 88q-8 10 -5 22q0 6 7 15l20 27q6 9 18 9q9 0 13 -4q41 -32 69 -78
q35 -61 42 -121q14 -87 -5 -184l-17 -88l-14 -87q-16 -99 -60 -186q-30 -60 -85 -120q-41 -45 -96 -78z" />
    <glyph glyph-name="asciicircum" unicode="^" horiz-adv-x="343" 
d="M43 520q-10 0 -18 10l-9 15l8 -7v-2l-2 -1q-12 13 -10 24q2 12 17 25l132 111q12 8 21 8q11 0 19 -8l81 -101l7 -9q9 -21 9 -23q-2 -8 -20 -24l-7 -6q-19 -12 -22 -12q-6 0 -19 13l-64 85l-101 -88l-1 -1q-11 -9 -21 -9z" />
    <glyph glyph-name="underscore" unicode="_" horiz-adv-x="394" 
d="M-47 0q-12 0 -19 8t-5 20l4 23q2 11 11.5 19t21.5 8h259q11 0 17.5 -8t4.5 -19l-4 -23q-1 -12 -10.5 -20t-20.5 -8h-259z" />
    <glyph glyph-name="grave" unicode="`" horiz-adv-x="600" 
d="M289 740l-78 102q-10 10 4 22l31 25q11 8 19 -2l81 -102q9 -13 -2 -21l-32 -25q-12 -12 -23 1z" />
    <glyph glyph-name="a" unicode="a" 
d="M-74 0q-10 0 -15 7.5t-2 17.5l249 649q5 12 16 20t24 8h77q11 0 18.5 -7t7.5 -18l21 -646q0 -12 -9 -21.5t-21 -9.5h-37q-11 0 -18 7t-7 17l-1 186q-1 3 -4 3h-153q-3 0 -3 -3l-67 -182q-4 -12 -14.5 -20t-22.5 -8h-39zM104 295h119q4 0 4 4l-6 304q0 3 -2.5 3t-4.5 -3
l-114 -304q0 -4 4 -4z" />
    <glyph glyph-name="b" unicode="b" horiz-adv-x="456" 
d="M69 0l-39 1h-51q-14 0 -22.5 10t-5.5 24l112 635q1 12 11.5 20.5t21.5 8.5h28q119 4 180 -11q3 -1 8.5 -3.5t19 -11t23.5 -19.5t16 -29.5t3 -40.5l-19 -125q-1 -6 -5 -18q-20 -55 -54 -77q25 -17 34.5 -46t6.5 -50q-2 -17 -8 -51l-6 -34l-16 -64q-10 -38 -35.5 -65
t-45.5 -35l-20 -8q-43 -11 -137 -11zM89 74q44 0 73 7q5 1 14 5t26 20.5t23 39.5l18 83q0 2 1 6t0.5 15t-3 20.5t-10 19t-19.5 14.5q-22 10 -83 10q-26 0 -41 -1l-45 -237q21 -2 46 -2zM101 396h16q11 1 30 1q20 1 36.5 3t22.5 4l6 2q23 8 38 25.5t18 31.5l4 14l12 80
q2 22 -9.5 38t-23.5 21l-12 4q-37 8 -97 6z" />
    <glyph glyph-name="c" unicode="c" horiz-adv-x="450" 
d="M93 -7q-27 0 -56 12q-22 10 -44 33q-15 16 -28 50h-1v1q-16 42 -7 94l61 345q4 31 22 63q13 27 38 54q24 25 54 42l3 2q40 19 83 19h33q34 0 57 -10q30 -11 44 -29q17 -18 30 -48q14 -42 8 -78q-1 -7 -3 -12t-5 -8l-5 -5t-7 -2.5t-8 -1t-10.5 -0.5h-11.5h-22
q-19 0 -21 19q1 28 -5 49q-8 22 -27 34q-16 12 -46 12h-3q-27 0 -50 -13q-24 -12 -41 -34q-18 -22 -23 -52l-60 -340q-5 -31 5 -53q9 -23 29 -38q20 -16 44 -16h3q25 0 51 15q22 13 40 39q7 10 19 46q3 14 19 14l58 2q7 0 11.5 -5t3.5 -12q-5 -38 -20 -63q-16 -33 -36 -55
q-31 -32 -52 -43q-47 -27 -91 -27h-33z" />
    <glyph glyph-name="d" unicode="d" horiz-adv-x="472" 
d="M-36 -2q-7 0 -12 6t-4 15l116 660q1 8 8.5 14t15.5 6h63h2h132q45 0 79 -26q62 -48 45 -144q-5 -27 -20 -116t-24 -138l-22 -121q-7 -38 -35 -78.5t-77 -62.5q-33 -15 -66 -15h-201zM47 88h97q101 0 117 88l55 314q3 20 3.5 36t-1 28t-6.5 21.5t-9 15.5t-12 10.5t-13 6.5
t-14 3t-12.5 1h-11.5h-8h-93z" />
    <glyph glyph-name="e" unicode="e" horiz-adv-x="421" 
d="M-35 -1q-8 0 -13 6.5t-4 15.5l116 656q1 9 9 15.5t16 6.5h278q9 0 14.5 -6.5t3.5 -15.5l-8 -47q-2 -9 -9.5 -16t-16.5 -7h-208l-35 -197h168q8 0 13.5 -7t3.5 -16l-7 -41q-6 -22 -25 -22h-168l-42 -235h208q9 0 14.5 -7.5t3.5 -15.5l-8 -45q-1 -9 -9 -15.5t-17 -6.5h-278
z" />
    <glyph glyph-name="f" unicode="f" horiz-adv-x="422" 
d="M-33 0q-9 0 -14.5 6.5t-4.5 15.5l116 656q1 9 9 15.5t17 6.5h278q9 0 14.5 -6.5t3.5 -15.5l-8 -47q-2 -9 -9.5 -16t-16.5 -7h-208l-35 -197h167q10 0 15.5 -6.5t3.5 -16.5l-7 -41q-1 -9 -9 -15.5t-17 -6.5h-168l-53 -298q-1 -11 -10.5 -19t-20.5 -8h-43z" />
    <glyph glyph-name="g" unicode="g" horiz-adv-x="465" 
d="M101 -5q-36 0 -58 11q-26 10 -48 32q-17 20 -31 51q-16 42 -7 93l61 347q6 35 21 62q14 29 39 55q24 23 55 39v-1l-1 1q45 24 94 24h33q28 0 55 -8q27 -9 49 -25q14 -13 32 -40q12 -27 12 -58q1 -10 -8.5 -19.5t-20.5 -9.5h-45q-15 0 -19 18q0 20 -9 32q-13 19 -32 25
t-46 6h-4q-27 0 -53 -13q-28 -16 -43 -36q-18 -21 -23 -50l-61 -344q-4 -7 -1.5 -23.5t7.5 -34.5t25.5 -32t52.5 -15h3q33 -1 58 13t38 36t18.5 36.5t8.5 26.5l11 54q1 3 -0.5 5t-4.5 2.5t-5.5 0.5h-7.5h-7q-5 0 -16.5 0.5t-16.5 0.5q-9 0 -14.5 6.5t-3.5 15.5l7 40
q1 10 9.5 17t18.5 7l125 -1q9 0 14 -6t4 -16l-24 -137q-6 -37 -22 -64q-16 -31 -41 -57q-25 -27 -53 -42q-43 -25 -92 -25h-33z" />
    <glyph glyph-name="h" unicode="h" horiz-adv-x="496" 
d="M-52 18l116 660q3 19 23 19h51q8 0 13 -5.5t4 -13.5l-45 -258h194l45 258q3 19 23 19h51q8 0 13 -5.5t4 -13.5l-116 -660q-1 -8 -8.5 -13.5t-15.5 -5.5h-51q-19 0 -16 19l55 314h-194l-55 -314q-1 -8 -8.5 -13.5t-15.5 -5.5h-51q-19 0 -16 19z" />
    <glyph glyph-name="i" unicode="i" horiz-adv-x="220" 
d="M-31 -2q-8 0 -12.5 6t-3.5 15l116 660q2 8 9 14.5t15 6.5h49q8 0 13 -6t4 -15l-116 -660q-2 -8 -9 -14.5t-16 -6.5h-49z" />
    <glyph glyph-name="j" unicode="j" horiz-adv-x="411" 
d="M76 -13q-70 2 -111 51q-23 28 -26 70q-2 19 -1 25q2 10 9.5 17.5t18.5 7.5h22q27 0 32 -25q2 -22 18 -38q17 -23 57 -23q30 0 51 16.5t26 43.5q17 84 55 295l44 257q2 7 8.5 13t13.5 6h46q9 0 14 -6t3 -14l-91 -517q-10 -59 -23.5 -86.5t-37.5 -49.5q-49 -42 -128 -42v1
v1h1z" />
    <glyph glyph-name="k" unicode="k" horiz-adv-x="492" 
d="M-36 -1q-9 0 -13.5 6t-2.5 15l117 661q4 20 23 20h43q9 0 14.5 -5.5t4.5 -14.5l-45 -252l213 263q4 9 18 9h73q6 0 8 -6.5t-3 -11.5l-233 -289q-3 -5 -1 -7l169 -369v-6q-4 -13 -13 -13h-80q-10 0 -14 9l-150 336q-1 1 -2 0l-57 -324q-1 -9 -9 -15t-17 -6h-43z" />
    <glyph glyph-name="l" unicode="l" horiz-adv-x="376" 
d="M-34 1q-9 0 -14 5.5t-4 14.5l116 657q1 8 9 14.5t16 6.5h46q8 0 13.5 -6.5t3.5 -14.5l-104 -590h177q8 0 13.5 -6.5t3.5 -14.5l-8 -46q-1 -9 -8.5 -14.5t-15.5 -5.5h-244z" />
    <glyph glyph-name="m" unicode="m" horiz-adv-x="638" 
d="M-36 0q-19 0 -16 18l116 658q1 9 9 16t17 7h100q16 0 18 -16l50 -372l181 372q8 16 25 16h100q8 0 13.5 -6.5t4.5 -16.5l-117 -660q-2 -16 -18 -16h-54q-7 0 -11 5t-3 12l95 555v2q-2 1 -3 -1l-179 -365q-10 -21 -33 -21h-45q-23 0 -25 21l-52 372q-1 2 -2.5 2t-1.5 -2
l-98 -562q-4 -18 -21 -18h-50z" />
    <glyph glyph-name="n" unicode="n" horiz-adv-x="544" 
d="M-35 1q-8 0 -13.5 6.5t-3.5 14.5l116 656q2 8 9 14.5t15 6.5h104v1l1 -1v-1h4q17 0 19 -14l93 -544l85 532q2 9 11 18t17 9h49q8 0 13 -6.5t4 -14.5l-115 -655q-2 -8 -9.5 -14.5t-15.5 -6.5h-90q-14 0 -19 15l-110 574l-91 -569q-2 -8 -9 -14.5t-16 -6.5h-48z" />
    <glyph glyph-name="o" unicode="o" 
d="M118 -10q-23 0 -45 4.5t-33 9.5l-10 5q-4 1 -9.5 4t-20 15.5t-25 29.5t-17 48.5t-2.5 70.5l62 353q5 27 21 61q21 36 41 55q20 22 51 38q24 13 46 19q19 6 46 6h35q31 0 55 -11q28 -9 48 -32q22 -18 30 -45q18 -40 9 -91l-63 -356h-2l1 4h2q-17 -87 -92 -144
q-58 -44 -128 -44zM129 84h4q29 0 57 15q27 18 45 39q17 24 21 53l59 333q4 22 -5 51q-11 23 -31 38q-22 13 -51 13h-4q-26 0 -54 -13q-30 -16 -46 -37q-18 -25 -23 -52l-57 -333q-5 -28 5 -52q9 -23 30 -40q23 -15 50 -15z" />
    <glyph glyph-name="p" unicode="p" horiz-adv-x="430" 
d="M-28 -5q-12 0 -18.5 9t-4.5 21l112 638q3 15 15 25.5t26 10.5h48q114 3 163 -10q3 -1 7.5 -3t15.5 -11t19.5 -20t14 -31.5t2.5 -45.5l-19 -130q-2 -14 -4 -19q-9 -29 -31 -61t-59 -46q-40 -24 -139 -24q-26 0 -41 1l1 1l-48 -275q-2 -12 -11.5 -21t-21.5 -9h-27zM102 390
l-1 1q13 -1 36 -1q27 0 49 2.5t30 5.5l8 2q20 8 33 25.5t17 31.5l3 14l12 82q2 22 -7.5 37.5t-19.5 20.5l-11 5q-21 5 -66 5l-45 -1l1 1z" />
    <glyph glyph-name="q" unicode="q" horiz-adv-x="497" 
d="M271 -151q-7 0 -11 4l-226 151l-28 20l-7 4q-28 29 -39 66q-11 41 -4 84l62 352q6 32 23 63q19 33 41 55q29 28 56 41q22 13 45 18q22 7 49 7h35q33 0 60 -12q28 -11 48 -31q23 -25 32 -49q17 -43 8 -92l-62 -352h1l-1 -6q-4 -25 -21 -60q-17 -31 -42 -56
q-26 -26 -56 -43l-26 -15l108 -74q11 -8 8 -21q0 -5 -6 -13l-24 -29q-10 -12 -23 -12zM134 73h3q33 0 58 15q26 16 44 39q18 25 23 54l61 347q5 29 -5 51q-11 25 -32 37q-19 14 -51 14h-3q-31 -2 -56 -14q-26 -13 -45 -35q-20 -25 -25 -53l-60 -347q-5 -29 7 -55
q11 -24 31 -38q22 -15 50 -15z" />
    <glyph glyph-name="r" unicode="r" horiz-adv-x="468" 
d="M-27 -3q-13 0 -19.5 9t-4.5 21l113 637q2 14 14.5 25t26.5 11h50q119 3 170 -10q3 -1 7.5 -3t16.5 -11t20.5 -20t14.5 -31.5t4 -45.5l-19 -130q-2 -10 -5 -19q-26 -81 -93 -106l-4 -2l51 -294q1 -11 -7 -20t-19 -9h-39q-21 0 -26 20l-45 267q-4 14 -17 14h-19h-24.5
h-22.5q-14 0 -16 -12l-46 -261q-2 -12 -12 -21t-22 -9h-28zM136 391q30 0 54 2.5t33 5.5l9 3q21 7 34.5 24.5t17.5 31.5l3 14l12 82q1 22 -9 37.5t-21 20.5l-11 5q-24 5 -71 5h-28l-15 -1l-38 -229q6 0 16 -0.5t14 -0.5z" />
    <glyph glyph-name="s" unicode="s" horiz-adv-x="429" 
d="M87 -7q-23 0 -45 5q-39 10 -63 33.5t-30 48.5t-8 50.5t3 39.5q4 18 21 18h55q6 0 10 -4.5t3 -11.5q-2 -33 7 -54t26.5 -28t26.5 -8.5t18 -1.5h1l-1 1l-1 -2h1q0 2 2 2v-1q31 1 54 14.5t35.5 34t19 37t9.5 34.5q0 3 0.5 7t1 6t0.5 3l2 13l-1 1v-1q6 34 -2 56t-28.5 31
t-36 11.5t-39.5 3.5q-46 1 -75.5 18.5t-38.5 44t-12 57t4 57.5l18 65q15 41 40.5 69.5t54 41t50 17t42.5 4.5q5 0 10 -0.5t8 -0.5h4l-1 1l-2 -2h1q0 2 2 2v-1q38 -3 64 -17t38 -33t17 -42.5t4.5 -41t-3.5 -33.5q-4 -18 -19 -18h-43q-6 0 -10 4.5t-3 11.5q11 90 -70 90
q-9 0 -33 -3q-41 -5 -62 -36.5t-27 -68.5l-3 -26q0 -26 7 -42.5t21.5 -23.5t24.5 -9.5t30 -2.5t25 -1q157 -15 128 -189q-8 -43 -35 -109q-33 -65 -87 -93t-110 -28z" />
    <glyph glyph-name="t" unicode="t" horiz-adv-x="355" 
d="M16 630l8 50q2 8 9 13.5t15 5.5h164h111q8 0 13 -5.5t3 -13.5l-8 -50q-2 -8 -9 -13.5t-15 -5.5h-92l-104 -593q-1 -7 -8 -13t-15 -6h-53q-7 0 -12 5.5t-3 13.5l104 593h-92q-8 0 -13 5.5t-3 13.5z" />
    <glyph glyph-name="u" unicode="u" horiz-adv-x="482" 
d="M124 -4q-37 -1 -67.5 11t-47 29.5t-25 30.5t-11.5 22q-15 44 -6 93l88 503q4 18 20 18h55q7 0 11.5 -5.5t3.5 -12.5l-87 -496q-4 -7 -2 -23.5t6.5 -33t22.5 -29.5t46 -14h17q29 1 51.5 13.5t34.5 31t17.5 31.5t7.5 24l88 496q2 7 8 12.5t13 5.5h55q7 0 11.5 -5.5
t2.5 -12.5l-89 -503q-9 -49 -39 -93l-1 -2v-1q-80 -92 -184 -90z" />
    <glyph glyph-name="v" unicode="v" horiz-adv-x="469" 
d="M79 2q-11 0 -18 6.5t-7 16.5l-20 646q-1 11 7.5 20t19.5 9h37q21 0 23 -22l19 -553l212 549q10 26 37 26h38q10 0 14.5 -7t0.5 -17l-250 -648q-9 -26 -37 -26h-76z" />
    <glyph glyph-name="w" unicode="w" horiz-adv-x="702" 
d="M66 -2q-11 0 -18 6.5t-7 16.5l-7 659l1 2q1 6 6.5 11.5t12.5 5.5l52 -1q15 0 17 -16l7 -500q-1 -3 2.5 -3t5.5 3l165 500q1 7 8 12t14 5h67q7 0 11.5 -4.5t3.5 -11.5l-12 -499q0 -3 3 -3t4 3l187 499q7 16 22 16h54q7 0 10.5 -5.5t1.5 -12.5l-240 -661q-3 -9 -12.5 -15.5
t-19.5 -6.5h-74q-10 0 -16 6.5t-6 15.5l9 447l-151 -447q-3 -9 -11.5 -15.5t-17.5 -6.5h-72z" />
    <glyph glyph-name="x" unicode="x" horiz-adv-x="452" 
d="M-76 2l1 5l1 1v-1q-4 1 -7 8q-2 5 0 8q0 5 2 8h1l6 11l195 324l-76 307h1v1h-1v4q0 4 3 8h1l2 1h-1q1 4 7 7t13 3h56q7 0 11 -4q5 -3 6 -6h-1v2q8 -37 22 -110.5t22 -109.5l132 216q1 2 9 10q8 2 11 2h56q6 0 11 -3q6 -4 7 -8q1 -2 1 -8q0 -3 -2 -4h-1v-1h1l-189 -307
l85 -336v-3l2 -1l-1 -4q0 -5 -4 -7h1q-3 -4 -8 -8q-7 -3 -14 -3h-56q-7 0 -10 3q-5 3 -7 9l-57 246l-145 -246q-3 -7 -9 -9v1q-4 -4 -11 -4h-54q-6 0 -10 3h2z" />
    <glyph glyph-name="y" unicode="y" horiz-adv-x="435" 
d="M76 0q-7 0 -11.5 6t-3.5 14l42 242q9 62 3 85l-71 329q-1 3 0 6q1 7 6.5 12t12.5 5h57q10 0 15 -12l50 -265l143 265q9 12 20 12l55 1q10 0 14 -7.5t0 -16.5q-122 -212 -180 -313q-17 -30 -23 -58l1 1q-3 -6 -3 -11l-2 -7l-50 -268q-4 -20 -22 -20h-53z" />
    <glyph glyph-name="z" unicode="z" horiz-adv-x="444" 
d="M-65 0q-11 0 -8 12q0 6 6 16l340 588h-212q-15 0 -13 14l9 53q3 17 19 17h305q8 0 14.5 -6.5t0.5 -17.5l-333 -592h223q7 0 11.5 -4t2.5 -12l-8 -50q-3 -18 -20 -18h-337z" />
    <glyph glyph-name="braceleft" unicode="{" horiz-adv-x="367" 
d="M28 -168q-11 0 -17.5 7.5t-4.5 18.5l5 23h-4v2h4l56 287q13 71 -17.5 116.5t-74.5 69.5q-7 5 -5 14t10 13q107 52 149 174q2 4 2 5q9 29 24 110l28 186v1v1v1q7 23 30 23h268q11 0 17 -7.5t5 -17.5l-6 -33q-1 -10 -10 -16.5t-20 -6.5h-207q-43 -220 -59 -293
q-16 -82 -93 -120q-9 -3 -10 -9q-1 -4 7 -10q36 -23 47 -42q17 -30 8 -77l-56 -336h207q11 0 17 -8.5t4 -19.5l-6 -30q-2 -11 -10.5 -18.5t-19.5 -7.5h-268z" />
    <glyph glyph-name="bar" unicode="|" horiz-adv-x="600" 
d="M-70 18q-2 5 0 11l113 643q2 8 4 11q4 18 22 18h31h4q8 0 13 -5.5t4 -12.5q2 -5 0 -11l-113 -643q-2 -8 -4 -11v-1q-1 -7 -8.5 -12.5t-15.5 -5.5h-35q-7 0 -11.5 5.5t-3.5 13.5z" />
    <glyph glyph-name="braceright" unicode="}" horiz-adv-x="377" 
d="M-219 -168q-11 0 -17.5 7.5t-4.5 18.5l6 30q2 11 11 19.5t20 8.5h207l62 336q4 28 14 48.5t28 35t26 19.5t29 16q10 6 10 10q1 5 -7 9q-61 37 -51 120l45 293h-207q-11 0 -17 6.5t-5 16.5l6 33q1 10 10 17.5t20 7.5h268q11 0 17 -6.5t5 -16.5v-1v-1v-1q-22 -99 -38 -186
q-14 -77 -14 -110q-7 -124 87 -179q8 -5 6 -13q-2 -9 -11 -14q-51 -24 -98 -69.5t-60 -116.5l-44 -287h4v-2h-4l-5 -23q-2 -11 -10.5 -18.5t-19.5 -7.5h-268z" />
    <glyph glyph-name="asciitilde" unicode="~" 
d="M236 246q-24 0 -41 9q-31 15 -51 60v2l-3 4q-2 15 -14.5 25t-28.5 10q-9 0 -18 -3q-18 -5 -31 -19t-16 -31q-1 -3 -1 -10v-4q-2 -13 -15 -18l-28 -9q-3 -1 -7 -1q-5 0 -8 2l1 -1l-1 2q-6 3 -8 11l-2 -1h2q-1 13 2 28q4 31 25 58q30 42 76 57q19 6 39 6q36 0 63.5 -20
t35.5 -54q8 -35 42 -35q9 0 20 3q39 11 46 49q1 3 1 11v2q4 14 16 19l28 10q13 2 14 -1v1l1 -2q6 -3 7 -11q2 -16 -1 -29q-6 -32 -25 -56q-29 -41 -76 -57q-20 -7 -44 -7z" />
    <glyph glyph-name="exclamdown" unicode="&#xa1;" horiz-adv-x="213" 
d="M-50 4q-5 0 -8.5 5t-2.5 11l94 475q3 13 15 13h61q5 0 8.5 -4.5t2.5 -9.5l-78 -474q-3 -16 -16 -16h-76zM61 592q-8 0 -13 6t-3 14l12 66q4 20 23 20h61q8 0 12.5 -6t2.5 -14l-12 -66q-1 -8 -7.5 -14t-14.5 -6h-61z" />
    <glyph glyph-name="cent" unicode="&#xa2;" horiz-adv-x="455" 
d="M89 16q-9 0 -14 6t-3 15l12 68q-24 5 -46 20q-35 22 -49.5 61t-6.5 86l27 153q19 98 107 147q25 14 46 16l13 75q5 22 25 22h51q9 0 14.5 -6.5t3.5 -15.5l-12 -70q73 -14 103 -81q13 -43 4 -87v-2v-1q-2 -11 -13 -11h-67q-13 0 -11 14l1 3q7 39 -13.5 64.5t-58.5 25.5h-4
q-37 0 -68.5 -27t-36.5 -64l-28 -156q-7 -37 14 -64t59 -27h4q38 0 67.5 25.5t36.5 63.5v3q4 14 16 14h67q4 0 7 -4.5t2 -8.5q-9 -47 -36 -87q-46 -65 -124 -79l-12 -70q-4 -21 -25 -21h-52z" />
    <glyph glyph-name="sterling" unicode="&#xa3;" horiz-adv-x="460" 
d="M-66 17q-12 0 -10 11l10 55q2 9 9 11h2q120 40 135 125q9 47 -10 104h-64q-11 0 -9 9l10 54q2 11 13 11h37q-6 72 4 126q13 80 62 127q4 5 12.5 13t37 23.5t59.5 20.5q16 3 45 3q116 0 134 -115q1 -2 1 -4q-2 -8 -10 -8l-56 -5h-2q-11 0 -16 9q-5 20 -23 32.5t-42 12.5
q-16 0 -37 -7q-27 -10 -47 -29.5t-29 -40.5q-8 -24 -10 -36q-10 -51 9 -122h82q14 0 12 -16l-8 -44q-3 -14 -13 -14h-63l9 -28q7 -27 3 -72q-6 -58 -67 -109l-26 -20h233h2q12 0 10 -17l-8 -43q0 -16 -17 -16z" />
    <glyph glyph-name="currency" unicode="&#xa4;" horiz-adv-x="537" 
d="M-3 118l-42 51q-1 7 0 8l2 2l79 68q6 6 6 10q1 3 -1 8q-16 40 -8 91q4 20 11 37q12 28 28 50q2 4 2 6q1 6 -2 11l-57 70q-2 1 -1 4q0 2 3 5l2 2l55 46q3 2 6 2q2 0 5 -3l59 -69q5 -7 15 -2q41 20 86 20q15 0 40 -5l6 -2q6 -2 14.5 -6t15.5 -7q5 -3 8 -3q5 0 9 4l87 72
q1 1 4 1q4 0 5 -1l41 -49l1 -1v-3q-1 -3 -3 -6l-84 -70q-4 -3 -6 -10q0 -5 1 -8q16 -40 7 -84q-3 -17 -11 -40l-1 -1q-4 -14 -7 -20l-10 -20l-6 -14q-1 -2 -1 -8q0 -1 2 -3l59 -72q2 -3 1 -4q0 -3 -3 -6l-57 -47h-1q0 -3 -5 -3q-2 0 -4 2l-2 2l-59 71q-5 7 -16 2
q-48 -21 -89 -21q-14 0 -37 5q-29 8 -38 14q-6 2 -8 2q-6 0 -11 -4l-83 -72q-4 -2 -6 -2h-1zM194 249q45 0 81.5 31.5t43.5 76.5q8 45 -18 76t-71 31q-44 0 -81.5 -32t-45.5 -76t18.5 -75.5t72.5 -31.5z" />
    <glyph glyph-name="yen" unicode="&#xa5;" horiz-adv-x="460" 
d="M88 -2q-7 0 -10.5 4.5t-2.5 11.5l21 119h-87q-16 0 -12 16l6 38q4 16 18 16h83h1h1l3 2l7 39v1l-2 2h-2h-83q-16 0 -12 16l7 38q2 16 17 16h81l-82 357v6q4 16 19 16l62 1q13 0 13 -11l51 -289l151 289q7 11 17 11l63 -1q9 0 12.5 -7t-1.5 -15l-210 -357h87q17 0 15 -16
l-7 -38q-4 -16 -20 -16h-92l-8 -44h92q18 0 14 -16l-6 -38q-4 -16 -20 -16h-92l-21 -119q-4 -16 -20 -16h-51z" />
    <glyph glyph-name="brokenbar" unicode="&#xa6;" horiz-adv-x="155" 
d="M-57 -1q-8 0 -12.5 5.5t-3.5 12.5l40 232q3 13 17 13h47q6 0 10 -4t3 -9l-40 -232q-4 -18 -25 -18h-36zM37 517q-9 0 -14.5 6t-4.5 15l26 145q4 18 23 18h36q8 0 13.5 -5.5t4.5 -12.5l-26 -149q-4 -17 -21 -17h-37z" />
    <glyph glyph-name="section" unicode="&#xa7;" horiz-adv-x="384" 
d="M74 0q-63 0 -101 41q-35 35 -26 94q2 8 14 8h62h-2q1 0 2.5 -0.5t3.5 -4t2 -7.5l-1 -5q-3 -16 9 -35q11 -18 34 -26q11 -4 23 -4l14 1q31 4 54 23t28 46l8 49v1q5 31 -24 46q-19 9 -72 12q-74 0 -103 38q-28 37 -16 107l25 145l2 13q0 2 1 5.5t1 5.5l7 42q9 45 51 78
q44 35 108 35q29 0 46.5 -1.5t42 -10.5t38.5 -27q35 -36 25 -95q-2 -9 -12 -9h-62q-10 0 -8 9v4q4 23 -8 42q-12 18 -37 26q-3 1 -20 1h-11h-1q-33 -3 -57 -22t-28 -47l-7 -50q-1 -32 27 -45q19 -9 70 -11h1q72 0 102 -38q28 -36 16 -108l-24 -134q-1 -6 -3 -21.5t-3 -19.5
l-6 -36q-9 -49 -49 -78l-1 -1q-22 -17 -62 -27q-38 -11 -73 -9zM211 296h-1q0 1 1 1l6 39q4 22 -6 42q-9 17 -31 27q-24 12 -71 13l-18 1l-29 -1l-6 -33q-4 -23 6 -43q9 -17 29 -27q22 -12 74 -13l18 -1q8 0 14.5 -1.5t10.5 -2.5z" />
    <glyph glyph-name="dieresis" unicode="&#xa8;" horiz-adv-x="600" 
d="M211 745q-15 0 -15 14v42q0 13 15 13h50q14 0 14 -13v-42q0 -6 -4.5 -10t-9.5 -4h-50zM323 745q-14 0 -14 14v42q0 13 14 13h51q14 0 14 -13v-42q0 -14 -14 -14h-51z" />
    <glyph glyph-name="copyright" unicode="&#xa9;" horiz-adv-x="759" 
d="M257 5q-139 0 -220 100.5t-56 243.5q26 143 142.5 244.5t255.5 101.5q138 0 218 -101.5t55 -244.5q-25 -142 -141 -243t-254 -101zM265 78q110 0 202 79.5t111 191.5q20 113 -43.5 192.5t-173.5 79.5t-201.5 -79.5t-111.5 -192.5t43.5 -192t173.5 -79zM279 158
q-24 0 -46 8q-5 1 -25 12h-1q-26 19 -37.5 50.5t-4.5 66.5l20 117q14 77 86 117l8 4q28 14 62 14q27 0 63 -11l-3 -5l3 5q38 -19 52 -57q11 -35 5 -67v-3q-4 -16 -19 -16h-50q-5 0 -9 6t-3 12v2q5 27 -9 44.5t-40 17.5h-2q-25 0 -44.5 -18t-24.5 -44l-21 -120q-5 -26 9 -44
t38 -18h2q25 0 46 18t25 43l1 3q1 7 6.5 12t11.5 5h50q6 0 10 -4.5t3 -10.5q-6 -30 -29 -70l-13 -14q-28 -32 -76 -50l-7 -1l-10 -2q-18 -2 -27 -2z" />
    <glyph glyph-name="guillemotleft" unicode="&#xab;" horiz-adv-x="415" 
d="M94 169q-2 0 -14 12l-102 131q-8 6 -4 22q1 8 12 20l159 145q8 7 14 7q4 0 18 -14l-1 1l14 -18q3 -3 2 -10q0 -4 -5 -9l-133 -122l85 -114q5 -6 3 -12q-1 -6 -7 -11l-26 -22q-7 -6 -15 -6zM94 169q-2 0 -14 12l-102 131q-8 6 -4 22q1 8 12 20l159 145q8 7 14 7
q4 0 18 -14l-1 1l14 -18q3 -3 2 -10q0 -4 -5 -9l-133 -122l85 -114q5 -6 3 -12q-1 -6 -7 -11l-26 -22q-7 -6 -15 -6zM282 169q-2 0 -14 12l-102 131q-8 6 -4 22q1 8 12 20l159 145q8 7 14 7q4 0 18 -14l-1 1l14 -18q3 -3 2 -10q0 -4 -5 -9l-133 -122l85 -114q5 -6 3 -12
q-1 -6 -7 -11l-26 -22q-7 -6 -15 -6z" />
    <glyph glyph-name="logicalnot" unicode="&#xac;" horiz-adv-x="555" 
d="M333 1q-10 0 -16 7t-4 17l20 114h-352q-9 0 -14 6t-4 15l6 37q5 22 26 22h410q10 0 15 -6.5t3 -16.5q1 -1 1 -2l-30 -169q-5 -24 -29 -24h-32z" />
    <glyph glyph-name="registered" unicode="&#xae;" horiz-adv-x="313" 
d="M118 435q-58 0 -90.5 40t-22.5 97q10 56 57 95.5t104 39.5q56 0 89 -39.5t23 -95.5q-10 -57 -57 -97t-103 -40zM122 470q43 0 77.5 29.5t42.5 70.5q7 43 -17.5 72.5t-66.5 29.5t-77 -30t-42 -72q-8 -41 16.5 -70.5t66.5 -29.5zM91 504q-6 0 -6 4l23 128q0 5 8 5h47
q16 0 24.5 -7.5t6.5 -19.5l-5 -25q-2 -13 -21 -22l12 -59l1 -3q-2 -1 -4 -1h-22q-5 0 -5 3l-3 11l-7 39q-4 2 -8 2q-7 0 -8 -4l-8 -47q0 -4 -5 -4h-20zM133 581h11q15 0 17 13l3 17q1 5 -2.5 8.5t-10.5 3.5h-13q-5 0 -5 -6l-5 -31q-1 -5 5 -5z" />
    <glyph glyph-name="macron" unicode="&#xaf;" horiz-adv-x="600" 
d="M159 760q0 21 20 21h259q16 0 16 -17v-31q0 -17 -16 -17h-263q-16 0 -16 17v27z" />
    <glyph glyph-name="degree" unicode="&#xb0;" horiz-adv-x="231" 
d="M86 488q-39 0 -61.5 30t-15.5 73t40.5 73t72.5 30q40 0 62.5 -30t15.5 -73q-8 -43 -41 -73t-73 -30zM96 540q19 0 35 15.5t20 36.5t-7 36.5t-30 15.5q-20 0 -36 -15t-20 -37t7 -37t31 -15z" />
    <glyph glyph-name="plusminus" unicode="&#xb1;" horiz-adv-x="314" 
d="M68 276q-8 0 -6 9l39 225q2 8 10 8h44q10 0 8 -8l-39 -225q-2 -9 -12 -9h-44zM-12 169q-14 0 -12 16l6 33q1 6 6.5 10.5t11.5 4.5h170q5 0 9 -5t3 -10l-6 -33q-1 -6 -7 -11t-11 -5h-170zM-1 371q-8 0 -8 8l8 43q0 2 3 5t7 3h217q9 0 7 -8l-8 -43q-2 -8 -9 -8h-217z" />
    <glyph glyph-name="acute" unicode="&#xb4;" horiz-adv-x="600" 
d="M303 754q-11 -13 -23 -1l-32 25q-11 8 -2 21l81 102q8 10 19 2l31 -25q14 -12 4 -22z" />
    <glyph glyph-name="paragraph" unicode="&#xb6;" horiz-adv-x="600" 
d="M217 -8q-18 0 -16 17l55 309q-89 6 -143 63t-40 131q14 82 95 140t177 55l-1 -7h-4l1 7h38q7 0 11 -5t3 -12l-120 -681q-1 -7 -7 -12t-13 -5h-36zM341 -8q-18 0 -16 17l120 681q4 17 22 17h36q7 0 11 -5t3 -12l-120 -681q-1 -7 -7 -12t-13 -5h-36z" />
    <glyph glyph-name="periodcentered" unicode="&#xb7;" horiz-adv-x="197" 
d="M40 313q-23 0 -36.5 16t-9.5 38q5 23 24 39t41 16q23 0 36 -16t8 -39q-4 -23 -22.5 -38.5t-40.5 -15.5z" />
    <glyph glyph-name="cedilla" unicode="&#xb8;" horiz-adv-x="600" 
d="M344 -201q-26 0 -44 12q-6 4 -6 11q0 4 5 10.5t10 11t6 4.5l1 2q5 4 15 2q10 -4 14 -4q15 0 26.5 11t11.5 27q0 13 -11.5 23t-26.5 10q-2 0 -7 -0.5t-8 -0.5v2v-2h-3q-6 0 -9.5 2t-8.5 7t-10 8l1 2l-1 -2q-6 5 -6 11v88h4q0 -3 -4 -3v4h71v-4v-64q28 -5 46.5 -26
t20.5 -50v-12q-2 -34 -27.5 -57t-59.5 -23z" />
    <glyph glyph-name="guillemotright" unicode="&#xbb;" horiz-adv-x="415" 
d="M-12 169q-8 0 -13 6l-18 22q-4 5 -3 11q1 4 7 12l125 114l-89 122q-3 3 -3 9q1 5 6 10l20 18l-1 -1q20 14 24 14t10 -7l109 -145q6 -9 4 -20v-3q-2 -13 -10 -19l-150 -131q-15 -12 -18 -12zM-12 169q-8 0 -13 6l-18 22q-4 5 -3 11q1 4 7 12l125 114l-89 122q-3 3 -3 9
q1 5 6 10l20 18l-1 -1q20 14 24 14t10 -7l109 -145q6 -9 4 -20v-3q-2 -13 -10 -19l-150 -131q-15 -12 -18 -12zM160 169q-8 0 -13 6l-18 22q-4 5 -3 11q1 4 7 12l125 114l-89 122q-3 3 -3 9q1 5 6 10l20 18l-1 -1q20 14 24 14t10 -7l109 -145q6 -9 4 -20v-3q-2 -13 -10 -19
l-150 -131q-15 -12 -18 -12z" />
    <glyph glyph-name="questiondown" unicode="&#xbf;" horiz-adv-x="427" 
d="M96 -16q-107 0 -137 77q-13 35 -3 120l1 4q9 67 26 113t39 67t36 28.5t32 11.5q49 12 76 72q1 3 3 10t3 11q8 20 24 20l55 1h1h2q6 0 11 -5q5 -9 3 -18l-1 -6q0 -1 -0.5 -2.5t-0.5 -2.5q-8 -42 -27 -72.5t-65 -58.5q-12 -8 -42.5 -16.5t-50 -26.5t-29.5 -58
q-4 -22 -6 -32q-15 -81 0 -116q13 -26 39 -31q16 -2 23 -2q36 0 62 19q36 26 48 71q6 18 25 20h38q9 0 16 -7q5 -6 2 -19q-30 -109 -105 -147q-38 -25 -98 -25zM204 573q-13 0 -20 9.5t-5 22.5l11 61q2 13 12.5 22.5t23.5 9.5h60q13 0 19.5 -9.5t4.5 -22.5l-11 -61
q-2 -13 -13 -22.5t-22 -9.5h-60z" />
    <glyph glyph-name="Agrave" unicode="&#xc0;" 
d="M-74 0q-10 0 -15 7.5t-2 17.5l249 649q5 12 16 20t24 8h77q11 0 18.5 -7t7.5 -18l21 -646q0 -12 -9 -21.5t-21 -9.5h-37q-11 0 -18 7t-7 17l-1 186q-1 3 -4 3h-153q-3 0 -3 -3l-67 -182q-4 -12 -14.5 -20t-22.5 -8h-39zM104 295h119q4 0 4 4l-6 304q0 3 -2.5 3t-4.5 -3
l-114 -304q0 -4 4 -4zM254 747q-8 -6 -12 -6q-5 0 -11 7l-60 102q-4 6 -3 10t11 12l36 25q5 3 9 3q6 0 9 -5l63 -102q3 -6 3 -11q-1 -5 -8 -10z" />
    <glyph glyph-name="Aacute" unicode="&#xc1;" 
d="M-74 0q-10 0 -15 7.5t-2 17.5l249 649q5 12 16 20t24 8h77q11 0 18.5 -7t7.5 -18l21 -646q0 -12 -9 -21.5t-21 -9.5h-37q-11 0 -18 7t-7 17l-1 186q-1 3 -4 3h-153q-3 0 -3 -3l-67 -182q-4 -12 -14.5 -20t-22.5 -8h-39zM104 295h119q4 0 4 4l-6 304q0 3 -2.5 3t-4.5 -3
l-114 -304q0 -4 4 -4zM246 753l-27 25q-5 4 -5 10q2 5 6 11l99 102q5 5 12 5q3 0 8 -3l26 -25q8 -6 7 -12q0 -4 -7 -10l-96 -102q-7 -7 -13 -7q-4 0 -10 6z" />
    <glyph glyph-name="Acircumflex" unicode="&#xc2;" 
d="M-74 0q-10 0 -15 7.5t-2 17.5l249 649q5 12 16 20t24 8h77q11 0 18.5 -7t7.5 -18l21 -646q0 -12 -9 -21.5t-21 -9.5h-37q-11 0 -18 7t-7 17l-1 186q-1 3 -4 3h-153q-3 0 -3 -3l-67 -182q-4 -12 -14.5 -20t-22.5 -8h-39zM104 295h119q4 0 4 4l-6 304q0 3 -2.5 3t-4.5 -3
l-114 -304q0 -4 4 -4zM166 733l-9 4l-16 21q-4 4 -3 9q0 4 10 14l1 -1v1l91 81q12 9 20 9t17 -8l72 -86q2 -4 2 -10q-2 -7 -5 -9l-25 -21l-6 -3h-3l-1 -1q-9 0 -16 12l-45 56l-63 -56q-15 -12 -21 -12z" />
    <glyph glyph-name="Atilde" unicode="&#xc3;" 
d="M-74 0q-10 0 -15 7.5t-2 17.5l249 649q5 12 16 20t24 8h77q11 0 18.5 -7t7.5 -18l21 -646q0 -12 -9 -21.5t-21 -9.5h-37q-11 0 -18 7t-7 17l-1 186q-1 3 -4 3h-153q-3 0 -3 -3l-67 -182q-4 -12 -14.5 -20t-22.5 -8h-39zM104 295h119q4 0 4 4l-6 304q0 3 -2.5 3t-4.5 -3
l-114 -304q0 -4 4 -4zM300 735q-14 0 -27 6q-24 11 -34 45q-2 20 -22 20q-3 0 -9 -2h-1q-10 -3 -17.5 -12.5t-6.5 -19.5v1q0 -4 -1 -5q-2 -13 -12 -16l-18 -6q-5 -1 -10 0l-4 3q-3 3 -4 5l-2 10q0 4 2 12q3 21 16 40q20 28 49 39q12 4 27 4q23 0 40.5 -13.5t22.5 -36.5
q5 -20 22 -20q2 0 10 2q24 7 24 32v3q2 12 13 17l19 7q6 2 9 2q8 0 9 -15q1 -7 -1 -19q-3 -19 -16 -39q-18 -27 -49 -39q-15 -5 -29 -5z" />
    <glyph glyph-name="Adieresis" unicode="&#xc4;" 
d="M-74 0q-10 0 -15 7.5t-2 17.5l249 649q5 12 16 20t24 8h77q11 0 18.5 -7t7.5 -18l21 -646q0 -12 -9 -21.5t-21 -9.5h-37q-11 0 -18 7t-7 17l-1 186q-1 3 -4 3h-153q-3 0 -3 -3l-67 -182q-4 -12 -14.5 -20t-22.5 -8h-39zM104 295h119q4 0 4 4l-6 304q0 3 -2.5 3t-4.5 -3
l-114 -304q0 -4 4 -4zM169 746q-15 0 -12 14l7 42q2 13 17 13h50q14 0 12 -13l-7 -42q-4 -14 -17 -14h-50zM281 746q-15 0 -11 14l7 42q2 13 16 13h51q14 0 12 -13l-7 -42q-3 -14 -17 -14h-51z" />
    <glyph glyph-name="Aring" unicode="&#xc5;" 
d="M-74 0q-10 0 -15 7.5t-2 17.5l249 649q5 12 16 20t24 8h77q11 0 18.5 -7t7.5 -18l21 -646q0 -12 -9 -21.5t-21 -9.5h-37q-11 0 -18 7t-7 17l-1 186q-1 3 -4 3h-153q-3 0 -3 -3l-67 -182q-4 -12 -14.5 -20t-22.5 -8h-39zM104 295h119q4 0 4 4l-6 304q0 3 -2.5 3t-4.5 -3
l-114 -304q0 -4 4 -4zM242 731q-35 0 -54.5 23.5t-13.5 58.5t34 59t63 24t54.5 -24t13.5 -59q-6 -34 -34.5 -58t-62.5 -24zM252 777q13 0 26 12t15 26q3 15 -5.5 26.5t-22.5 11.5q-16 0 -29.5 -11t-16.5 -27q-2 -16 7.5 -27t25.5 -11z" />
    <glyph glyph-name="AE" unicode="&#xc6;" horiz-adv-x="791" 
d="M608 -2l-310 2q-10 0 -15.5 7t-3.5 17l1 172h-172l-65 -179q-7 -18 -21 -18h-74q-4 0 -6.5 1.5t-3 4t0 4.5t1.5 4v2l250 665q8 22 31 22l504 -1q20 0 20 -24l-6 -35l-1 -2q0 -3 -1 -6t-2.5 -6.5t-4 -6.5t-5.5 -6t-8 -4.5t-11 -1.5h-238l-36 -201h190h1q6 0 10.5 -0.5
t9 -5.5t2.5 -14l-8 -45q0 -3 -1 -8t-8 -11.5t-19 -6.5h-192l-38 -220h243q14 0 15.5 -17t-1.5 -19l-7 -42v-2q-4 -19 -21 -19zM143 292h144l-8 289q0 24 -7 24q-6 0 -16 -26z" />
    <glyph glyph-name="Ccedilla" unicode="&#xc7;" horiz-adv-x="450" 
d="M-43 183l61 345q4 31 22 63q13 27 38 54q24 25 54 42l3 2q40 19 83 19h33q34 0 57 -10q30 -11 44 -29q17 -18 30 -48q14 -42 8 -78q-1 -7 -3 -12t-5 -8l-5 -5t-7 -2.5t-8 -1t-10.5 -0.5h-11.5h-22q-19 0 -21 19q1 28 -5 49q-8 22 -27 34q-16 12 -46 12h-3q-27 0 -50 -13
q-24 -12 -41 -34q-18 -22 -23 -52l-60 -340q-5 -31 5 -53q9 -23 29 -38q20 -16 44 -16h3q25 0 51 15q22 13 40 39q7 10 19 46q3 14 19 14l58 2q7 0 11.5 -5t3.5 -12q-5 -38 -20 -63q-16 -33 -36 -55q-31 -32 -52 -43q-40 -23 -77 -26l-5 -27q26 -5 41 -26t12 -50l-2 -12
q-8 -34 -37.5 -57t-63.5 -23q-25 0 -42 12q-5 5 -4 11q1 4 7.5 10.5t12 11t6.5 4.5l1 2q6 4 15 2q10 -4 14 -4q15 0 28.5 11t15.5 27q3 13 -7 23t-25 10q-2 0 -7 -0.5t-8 -0.5h-3q-6 0 -9 1.5t-7.5 7t-8.5 8.5q-5 5 -4 11l8 49q-8 2 -31 10q-22 10 -44 33q-15 16 -28 50h-1
v1q-16 42 -7 94z" />
    <glyph glyph-name="Egrave" unicode="&#xc8;" horiz-adv-x="421" 
d="M-35 -1q-8 0 -13 6.5t-4 15.5l116 656q1 9 9 15.5t16 6.5h278q9 0 14.5 -6.5t3.5 -15.5l-8 -47q-2 -9 -9.5 -16t-16.5 -7h-208l-35 -197h168q8 0 13.5 -7t3.5 -16l-7 -41q-6 -22 -25 -22h-168l-42 -235h208q9 0 14.5 -7.5t3.5 -15.5l-8 -45q-1 -9 -9 -15.5t-17 -6.5h-278
zM247 744q-8 -6 -12 -6q-7 0 -11 7l-60 102q-4 5 -4 10q1 5 12 12l35 25q5 3 9 3q7 0 10 -5l63 -102q3 -7 2 -11q0 -5 -8 -10z" />
    <glyph glyph-name="Eacute" unicode="&#xc9;" horiz-adv-x="421" 
d="M-35 -1q-8 0 -13 6.5t-4 15.5l116 656q1 9 9 15.5t16 6.5h278q9 0 14.5 -6.5t3.5 -15.5l-8 -47q-2 -9 -9.5 -16t-16.5 -7h-208l-35 -197h168q8 0 13.5 -7t3.5 -16l-7 -41q-6 -22 -25 -22h-168l-42 -235h208q9 0 14.5 -7.5t3.5 -15.5l-8 -45q-1 -9 -9 -15.5t-17 -6.5h-278
zM227 742l-27 25q-5 4 -5 10q2 5 6 11l99 102q5 5 12 5q4 0 8 -3l26 -25q8 -6 7 -12q0 -4 -7 -10l-95 -102q-8 -7 -14 -7q-4 0 -10 6z" />
    <glyph glyph-name="Ecircumflex" unicode="&#xca;" horiz-adv-x="421" 
d="M-35 -1q-8 0 -13 6.5t-4 15.5l116 656q1 9 9 15.5t16 6.5h278q9 0 14.5 -6.5t3.5 -15.5l-8 -47q-2 -9 -9.5 -16t-16.5 -7h-208l-35 -197h168q8 0 13.5 -7t3.5 -16l-7 -41q-6 -22 -25 -22h-168l-42 -235h208q9 0 14.5 -7.5t3.5 -15.5l-8 -45q-1 -9 -9 -15.5t-17 -6.5h-278
zM156 739l-8 4l-17 21q-4 4 -3 9t10 14l1 -1v1l92 81q9 9 19 9q8 0 17 -8l72 -86q3 -6 2 -10q-2 -7 -5 -9l-24 -21l-7 -3h-3l-1 -1q-9 0 -16 12l-45 56l-63 -56q-15 -12 -21 -12z" />
    <glyph glyph-name="Edieresis" unicode="&#xcb;" horiz-adv-x="421" 
d="M-35 -1q-8 0 -13 6.5t-4 15.5l116 656q1 9 9 15.5t16 6.5h278q9 0 14.5 -6.5t3.5 -15.5l-8 -47q-2 -9 -9.5 -16t-16.5 -7h-208l-35 -197h168q8 0 13.5 -7t3.5 -16l-7 -41q-6 -22 -25 -22h-168l-42 -235h208q9 0 14.5 -7.5t3.5 -15.5l-8 -45q-1 -9 -9 -15.5t-17 -6.5h-278
zM154 745q-6 0 -10 4t-3 10l8 42q2 13 17 13h50q14 0 12 -13l-8 -42q-2 -14 -16 -14h-50zM266 745q-14 0 -12 14l8 42q2 13 16 13h51q14 0 12 -13l-8 -42q-2 -14 -16 -14h-51z" />
    <glyph glyph-name="Igrave" unicode="&#xcc;" horiz-adv-x="220" 
d="M-31 -2q-8 0 -12.5 6t-3.5 15l116 660q2 8 9 14.5t15 6.5h49q8 0 13 -6t4 -15l-116 -660q-2 -8 -9 -14.5t-16 -6.5h-49zM128 742q-6 0 -10 7l-60 102q-4 4 -4 10q1 4 11 12l36 25q5 3 9 3q7 0 9 -5l64 -102q2 -4 2 -11q-1 -5 -8 -10l-37 -25q-6 -6 -12 -6z" />
    <glyph glyph-name="Iacute" unicode="&#xcd;" horiz-adv-x="220" 
d="M-31 -2q-8 0 -12.5 6t-3.5 15l116 660q2 8 9 14.5t15 6.5h49q8 0 13 -6t4 -15l-116 -660q-2 -8 -9 -14.5t-16 -6.5h-49zM136 747q-4 0 -10 6l-27 25q-5 4 -5 10q2 5 6 11l99 102q5 5 11 5q4 0 9 -3l26 -25q8 -6 7 -12q0 -4 -7 -10l-96 -102q-6 -7 -13 -7z" />
    <glyph glyph-name="Icircumflex" unicode="&#xce;" horiz-adv-x="220" 
d="M-31 -2q-8 0 -12.5 6t-3.5 15l116 660q2 8 9 14.5t15 6.5h49q8 0 13 -6t4 -15l-116 -660q-2 -8 -9 -14.5t-16 -6.5h-49zM48 734l-8 4l-17 21q-4 4 -3 9q1 2 10 14l1 -1v1l92 81q9 9 19 9q8 0 17 -8l72 -86q3 -6 2 -10q-2 -7 -5 -9l-24 -21l-7 -3l-4 -1q-9 0 -16 12
l-45 56l-63 -56q-15 -12 -21 -12z" />
    <glyph glyph-name="Idieresis" unicode="&#xcf;" horiz-adv-x="220" 
d="M-31 -2q-8 0 -12.5 6t-3.5 15l116 660q2 8 9 14.5t15 6.5h49q8 0 13 -6t4 -15l-116 -660q-2 -8 -9 -14.5t-16 -6.5h-49zM48 745q-6 0 -10 4t-3 10l8 42q2 13 17 13h50q14 0 12 -13l-8 -42q-2 -14 -16 -14h-50zM160 745q-14 0 -12 14l8 42q2 13 16 13h51q14 0 12 -13
l-8 -42q-2 -14 -16 -14h-51z" />
    <glyph glyph-name="Eth" unicode="&#xd0;" horiz-adv-x="496" 
d="M-47 329l8 50q1 8 9.5 14t16.5 6h52l49 280q1 8 8.5 14t15.5 6h63h2h132q45 0 79 -26q62 -48 45 -144q-5 -27 -20 -116t-24 -138l-22 -121q-7 -38 -35 -78.5t-77 -62.5q-33 -15 -66 -15h-201q-7 0 -12 6t-4 15l51 290h-52q-8 0 -13.5 6t-4.5 14zM71 88h97q101 0 117 88
l55 314q3 20 3.5 36t-1 28t-6.5 21.5t-9 15.5t-12 10.5t-13 6.5t-14 3t-12.5 1h-11.5h-8h-93l-37 -213h52q9 0 14.5 -6t3.5 -14l-8 -50q-1 -8 -9 -14t-17 -6h-52z" />
    <glyph glyph-name="Ntilde" unicode="&#xd1;" horiz-adv-x="544" 
d="M-35 1q-8 0 -13.5 6.5t-3.5 14.5l116 656q2 8 9 14.5t15 6.5h104v1l1 -1v-1h4q17 0 19 -14l93 -544l85 532q2 9 11 18t17 9h49q8 0 13 -6.5t4 -14.5l-115 -655q-2 -8 -9.5 -14.5t-15.5 -6.5h-90q-14 0 -19 15l-110 574l-91 -569q-2 -8 -9 -14.5t-16 -6.5h-48zM340 732
q-14 0 -27 6q-26 12 -34 45q-2 20 -22 20q-3 0 -9 -2h-1q-11 -3 -18 -12.5t-7 -19.5v1v-5q-2 -13 -12 -16l-18 -6q-6 -1 -10 0l-5 3q-1 1 -3 5l-2 10q0 8 1 12q5 22 17 40q19 28 49 39q12 4 26 4q24 0 41.5 -13.5t22.5 -36.5q3 -20 21 -20q4 0 10 2q11 3 18 12.5t6 19.5v3
q3 12 14 17l19 7q6 2 8 2q9 0 10 -15q0 -13 -1 -19q-5 -23 -17 -39q-19 -28 -49 -39q-14 -5 -28 -5z" />
    <glyph glyph-name="Ograve" unicode="&#xd2;" 
d="M118 -10q-23 0 -45 4.5t-33 9.5l-10 5q-4 1 -9.5 4t-20 15.5t-25 29.5t-17 48.5t-2.5 70.5l62 353q5 27 21 61q21 36 41 55q20 22 51 38q24 13 46 19q19 6 46 6h35q31 0 55 -11q28 -9 48 -32q22 -18 30 -45q18 -40 9 -91l-63 -356h-2l1 4h2q-17 -87 -92 -144
q-58 -44 -128 -44zM129 84h4q29 0 57 15q27 18 45 39q17 24 21 53l59 333q4 22 -5 51q-11 23 -31 38q-22 13 -51 13h-4q-26 0 -54 -13q-30 -16 -46 -37q-18 -25 -23 -52l-57 -333q-5 -28 5 -52q9 -23 30 -40q23 -15 50 -15zM264 743q-8 -6 -13 -6q-6 0 -10 7l-60 102
q-4 5 -4 10q1 5 12 12l35 25q4 3 9 3q7 0 10 -5l63 -102q3 -7 2 -11q-2 -6 -8 -10z" />
    <glyph glyph-name="Oacute" unicode="&#xd3;" 
d="M118 -10q-23 0 -45 4.5t-33 9.5l-10 5q-4 1 -9.5 4t-20 15.5t-25 29.5t-17 48.5t-2.5 70.5l62 353q5 27 21 61q21 36 41 55q20 22 51 38q24 13 46 19q19 6 46 6h35q31 0 55 -11q28 -9 48 -32q22 -18 30 -45q18 -40 9 -91l-63 -356h-2l1 4h2q-17 -87 -92 -144
q-58 -44 -128 -44zM129 84h4q29 0 57 15q27 18 45 39q17 24 21 53l59 333q4 22 -5 51q-11 23 -31 38q-22 13 -51 13h-4q-26 0 -54 -13q-30 -16 -46 -37q-18 -25 -23 -52l-57 -333q-5 -28 5 -52q9 -23 30 -40q23 -15 50 -15zM231 753l-27 25q-5 4 -5 10q2 5 6 11l99 102
q5 5 12 5q4 0 8 -3l26 -25q8 -6 7 -12q0 -4 -7 -10l-96 -102q-7 -7 -13 -7q-4 0 -10 6z" />
    <glyph glyph-name="Ocircumflex" unicode="&#xd4;" 
d="M118 -10q-23 0 -45 4.5t-33 9.5l-10 5q-4 1 -9.5 4t-20 15.5t-25 29.5t-17 48.5t-2.5 70.5l62 353q5 27 21 61q21 36 41 55q20 22 51 38q24 13 46 19q19 6 46 6h35q31 0 55 -11q28 -9 48 -32q22 -18 30 -45q18 -40 9 -91l-63 -356h-2l1 4h2q-17 -87 -92 -144
q-58 -44 -128 -44zM129 84h4q29 0 57 15q27 18 45 39q17 24 21 53l59 333q4 22 -5 51q-11 23 -31 38q-22 13 -51 13h-4q-26 0 -54 -13q-30 -16 -46 -37q-18 -25 -23 -52l-57 -333q-5 -28 5 -52q9 -23 30 -40q23 -15 50 -15zM170 736l-8 4l-16 21q-4 3 -4 9q1 4 11 14l1 -1v1
l91 81q12 9 20 9q7 0 16 -8l72 -86q3 -6 2 -10q0 -5 -4 -9l-25 -21l-7 -3q-1 0 -2 -0.5t-2 -0.5q-6 0 -16 12l-45 56l-63 -56q-15 -12 -21 -12z" />
    <glyph glyph-name="Otilde" unicode="&#xd5;" 
d="M118 -10q-23 0 -45 4.5t-33 9.5l-10 5q-4 1 -9.5 4t-20 15.5t-25 29.5t-17 48.5t-2.5 70.5l62 353q5 27 21 61q21 36 41 55q20 22 51 38q24 13 46 19q19 6 46 6h35q31 0 55 -11q28 -9 48 -32q22 -18 30 -45q18 -40 9 -91l-63 -356h-2l1 4h2q-17 -87 -92 -144
q-58 -44 -128 -44zM129 84h4q29 0 57 15q27 18 45 39q17 24 21 53l59 333q4 22 -5 51q-11 23 -31 38q-22 13 -51 13h-4q-26 0 -54 -13q-30 -16 -46 -37q-18 -25 -23 -52l-57 -333q-5 -28 5 -52q9 -23 30 -40q23 -15 50 -15zM293 739q-13 0 -27 6q-26 12 -34 45q-2 20 -22 20
q-3 0 -9 -2h-1q-11 -3 -18 -12.5t-7 -19.5l1 1v-3l-1 -2q-2 -13 -12 -16l-18 -6q-5 -1 -10 0l-5 3q0 1 -1 2.5t-2 2.5l-2 10q0 2 0.5 6t0.5 6q5 22 17 40q18 27 49 39q12 4 26 4q24 0 41.5 -13.5t22.5 -36.5q3 -20 21 -20q3 0 11 2q10 3 17 12.5t6 19.5q0 2 1 3q2 12 13 17
l19 7q6 2 8 2q9 0 10 -15q0 -13 -1 -19q-5 -22 -16 -39q-20 -28 -49 -39q-15 -5 -29 -5z" />
    <glyph glyph-name="Odieresis" unicode="&#xd6;" 
d="M118 -10q-23 0 -45 4.5t-33 9.5l-10 5q-4 1 -9.5 4t-20 15.5t-25 29.5t-17 48.5t-2.5 70.5l62 353q5 27 21 61q21 36 41 55q20 22 51 38q24 13 46 19q19 6 46 6h35q31 0 55 -11q28 -9 48 -32q22 -18 30 -45q18 -40 9 -91l-63 -356h-2l1 4h2q-17 -87 -92 -144
q-58 -44 -128 -44zM129 84h4q29 0 57 15q27 18 45 39q17 24 21 53l59 333q4 22 -5 51q-11 23 -31 38q-22 13 -51 13h-4q-26 0 -54 -13q-30 -16 -46 -37q-18 -25 -23 -52l-57 -333q-5 -28 5 -52q9 -23 30 -40q23 -15 50 -15zM169 745q-6 0 -10 4t-3 10l8 42q2 13 17 13h50
q14 0 12 -13l-8 -42q-2 -14 -16 -14h-50zM281 745q-14 0 -12 14l8 42q2 13 16 13h51q14 0 12 -13l-8 -42q-2 -14 -16 -14h-51z" />
    <glyph glyph-name="multiply" unicode="&#xd7;" horiz-adv-x="307" 
d="M-34 269q2 11 10 19l79 67l-53 64q-4 14 -3 20q1 9 10 20l6 4l1 1q11 8 22 8q12 0 18 -8h1l52 -63l73 62q11 8 23 8q11 0 17 -7l10 -17q1 -2 1 -8q-3 -11 -13 -20v-1l-74 -63l55 -66q6 -7 4 -19q-1 -10 -12 -21l-4 -5q-14 -8 -23 -8q-10 0 -18 8l-55 66l-78 -67
q-11 -8 -22 -8q-9 0 -19 8v1l-5 4q-5 9 -3 21z" />
    <glyph glyph-name="Oslash" unicode="&#xd8;" horiz-adv-x="565" 
d="M184 -6q-23 0 -44.5 4.5t-31.5 9.5l-11 5q-4 1 -11 4.5t-23 19.5t-26 37l-54 -64q-9 -11 -22 -11q-6 0 -13 5l-28 22q-10 7 -7 20q0 7 6 13l103 121l63 354q5 25 20 61q24 38 42 55q20 22 51 38q23 13 46 19q20 6 45 6h35q33 0 55 -11q27 -9 49 -32q6 -6 6 -7l45 52
q9 11 22 11q6 0 13 -5l28 -22q10 -7 7 -20q0 -7 -6 -13l-74 -86q1 -19 -2 -46l-63 -356q-8 -39 -32.5 -75t-36 -46.5t-22.5 -18.5q-60 -44 -129 -44zM196 88h4q29 0 57 15q29 21 45 39q15 24 21 53l47 269l-259 -304q1 -4 5 -17q9 -23 30 -40q23 -15 50 -15zM129 306
l242 283q-13 19 -26 28q-20 13 -50 13h-4q-26 0 -55 -13q-31 -18 -45 -37q-20 -28 -23 -52z" />
    <glyph glyph-name="Ugrave" unicode="&#xd9;" horiz-adv-x="482" 
d="M124 -4q-37 -1 -67.5 11t-47 29.5t-25 30.5t-11.5 22q-15 44 -6 93l88 503q4 18 20 18h55q7 0 11.5 -5.5t3.5 -12.5l-87 -496q-4 -7 -2 -23.5t6.5 -33t22.5 -29.5t46 -14h17q29 1 51.5 13.5t34.5 31t17.5 31.5t7.5 24l88 496q2 7 8 12.5t13 5.5h55q7 0 11.5 -5.5
t2.5 -12.5l-89 -503q-9 -49 -39 -93l-1 -2v-1q-80 -92 -184 -90zM266 732q-8 -6 -12 -6q-7 0 -11 7l-60 102q-4 5 -4 10q1 5 12 12l35 25q4 3 9 3q7 0 10 -5l63 -102q3 -7 2 -11q-2 -6 -8 -10z" />
    <glyph glyph-name="Uacute" unicode="&#xda;" horiz-adv-x="482" 
d="M124 -4q-37 -1 -67.5 11t-47 29.5t-25 30.5t-11.5 22q-15 44 -6 93l88 503q4 18 20 18h55q7 0 11.5 -5.5t3.5 -12.5l-87 -496q-4 -7 -2 -23.5t6.5 -33t22.5 -29.5t46 -14h17q29 1 51.5 13.5t34.5 31t17.5 31.5t7.5 24l88 496q2 7 8 12.5t13 5.5h55q7 0 11.5 -5.5
t2.5 -12.5l-89 -503q-9 -49 -39 -93l-1 -2v-1q-80 -92 -184 -90zM243 734l-28 25q-5 5 -4 10q0 3 6 11l99 102q5 5 11 5q5 0 8 -3l27 -25q8 -8 7 -12q0 -4 -7 -10l-96 -102q-7 -7 -13 -7q-4 0 -10 6z" />
    <glyph glyph-name="Ucircumflex" unicode="&#xdb;" horiz-adv-x="482" 
d="M124 -4q-37 -1 -67.5 11t-47 29.5t-25 30.5t-11.5 22q-15 44 -6 93l88 503q4 18 20 18h55q7 0 11.5 -5.5t3.5 -12.5l-87 -496q-4 -7 -2 -23.5t6.5 -33t22.5 -29.5t46 -14h17q29 1 51.5 13.5t34.5 31t17.5 31.5t7.5 24l88 496q2 7 8 12.5t13 5.5h55q7 0 11.5 -5.5
t2.5 -12.5l-89 -503q-9 -49 -39 -93l-1 -2v-1q-80 -92 -184 -90zM180 738l-9 4l-16 21q-5 3 -3 9q0 4 10 14l1 -1v1l91 81q12 9 20 9t17 -8l71 -86q3 -4 3 -10q-2 -6 -5 -9l-25 -21l-6 -3q-1 0 -2.5 -0.5t-2.5 -0.5q-8 0 -15 12l-45 56l-63 -56q-15 -12 -21 -12z" />
    <glyph glyph-name="Udieresis" unicode="&#xdc;" horiz-adv-x="482" 
d="M124 -4q-37 -1 -67.5 11t-47 29.5t-25 30.5t-11.5 22q-15 44 -6 93l88 503q4 18 20 18h55q7 0 11.5 -5.5t3.5 -12.5l-87 -496q-4 -7 -2 -23.5t6.5 -33t22.5 -29.5t46 -14h17q29 1 51.5 13.5t34.5 31t17.5 31.5t7.5 24l88 496q2 7 8 12.5t13 5.5h55q7 0 11.5 -5.5
t2.5 -12.5l-89 -503q-9 -49 -39 -93l-1 -2v-1q-80 -92 -184 -90zM177 745q-6 0 -10 4t-3 10l8 42q2 13 17 13h50q14 0 12 -13l-8 -42q-2 -14 -16 -14h-50zM289 745q-14 0 -12 14l8 42q2 13 16 13h51q14 0 12 -13l-8 -42q-2 -14 -16 -14h-51z" />
    <glyph glyph-name="Yacute" unicode="&#xdd;" horiz-adv-x="435" 
d="M76 0q-7 0 -11.5 6t-3.5 14l42 242q9 62 3 85l-71 329q-1 3 0 6q1 7 6.5 12t12.5 5h57q10 0 15 -12l50 -265l143 265q9 12 20 12l55 1q10 0 14 -7.5t0 -16.5q-122 -212 -180 -313q-17 -30 -23 -58l1 1q-3 -6 -3 -11l-2 -7l-50 -268q-4 -20 -22 -20h-53zM216 720l-27 25
q-5 4 -5 10q2 6 7 11l99 102q3 5 11 5q3 0 8 -3l26 -25q8 -6 8 -12q-1 -5 -7 -10l-96 -102q-7 -7 -13 -7q-5 0 -11 6z" />
    <glyph glyph-name="Thorn" unicode="&#xde;" horiz-adv-x="415" 
d="M-49 1q-15 0 -10 18l116 658q3 20 18 20h52q15 0 11 -18l-23 -133l134 -2q39 0 63 -29.5t17 -70.5l-28 -160q-8 -41 -43 -71.5t-75 -30.5l-131 -3l-28 -161v-1q-1 -1 -1 -3q-2 -13 -17 -13h-55zM93 261h61q31 0 54 16.5t27 41.5l16 94q5 28 -14.5 44t-56.5 16h-50
q-14 0 -24.5 -10t-12.5 -25l-27 -154q-2 -10 3.5 -16t10.5 -6.5t13 -0.5z" />
    <glyph glyph-name="germandbls" unicode="&#xdf;" horiz-adv-x="487" 
d="M-37 -113q-15 0 -24.5 10.5t-6.5 25.5l126 713q2 19 15 34t28 22q17 11 34 11h160q60 0 97 -37t29 -98l-19 -103q-4 -33 -22 -60.5t-29 -36t-20 -13.5v-1l1 -4l1 4l-3 -4v-1q1 -1 6 -5l7.5 -6t7 -7.5t7 -9.5t5.5 -11.5t4 -15t0.5 -18t-2.5 -21.5l-26 -151h6v3h-5l-1 -1
q-11 -46 -49 -75.5t-86 -29.5h-16q-42 0 -52 7.5t-7 25.5l5 28q6 22 15 25q4 2 10 2q1 0 4 -0.5t5 -0.5q82 2 91 49l19 110q8 66 -57 66q-5 0 -10 -1h-5q-13 0 -19 7l-3 -2l1 -1l2 1q-1 4 -1 9l9 53q3 15 17 15h10q37 0 64 18t31 46l19 108q5 30 -16.5 45.5t-68.5 15.5h-79
q-26 0 -32 -32l-117 -667q-3 -18 -16.5 -29.5t-31.5 -11.5h-12z" />
    <glyph glyph-name="agrave" unicode="&#xe0;" 
d="M-74 0q-10 0 -15 7.5t-2 17.5l249 649q5 12 16 20t24 8h77q11 0 18.5 -7t7.5 -18l21 -646q0 -12 -9 -21.5t-21 -9.5h-37q-11 0 -18 7t-7 17l-1 186q-1 3 -4 3h-153q-3 0 -3 -3l-67 -182q-4 -12 -14.5 -20t-22.5 -8h-39zM104 295h119q4 0 4 4l-6 304q0 3 -2.5 3t-4.5 -3
l-114 -304q0 -4 4 -4zM255 749q-8 -6 -12 -6q-7 0 -11 7l-60 102q-4 5 -4 10q1 5 12 12l35 25q5 3 9 3q7 0 10 -5l63 -102q3 -7 2 -11q-2 -6 -8 -10z" />
    <glyph glyph-name="aacute" unicode="&#xe1;" 
d="M-74 0q-10 0 -15 7.5t-2 17.5l249 649q5 12 16 20t24 8h77q11 0 18.5 -7t7.5 -18l21 -646q0 -12 -9 -21.5t-21 -9.5h-37q-11 0 -18 7t-7 17l-1 186q-1 3 -4 3h-153q-3 0 -3 -3l-67 -182q-4 -12 -14.5 -20t-22.5 -8h-39zM104 295h119q4 0 4 4l-6 304q0 3 -2.5 3t-4.5 -3
l-114 -304q0 -4 4 -4zM232 753l-27 25q-5 4 -5 10q2 5 6 11l99 102q5 5 12 5q3 0 8 -3l26 -25q8 -6 7 -12q0 -4 -7 -10l-96 -102q-7 -7 -13 -7q-4 0 -10 6z" />
    <glyph glyph-name="acircumflex" unicode="&#xe2;" 
d="M-74 0q-10 0 -15 7.5t-2 17.5l249 649q5 12 16 20t24 8h77q11 0 18.5 -7t7.5 -18l21 -646q0 -12 -9 -21.5t-21 -9.5h-37q-11 0 -18 7t-7 17l-1 186q-1 3 -4 3h-153q-3 0 -3 -3l-67 -182q-4 -12 -14.5 -20t-22.5 -8h-39zM104 295h119q4 0 4 4l-6 304q0 3 -2.5 3t-4.5 -3
l-114 -304q0 -4 4 -4zM173 736l-8 4l-16 21q-4 3 -4 9q1 4 11 14l1 -1v1l91 81q12 9 20 9q7 0 16 -8l72 -86q3 -6 2 -10q0 -5 -4 -9l-25 -21l-7 -3l-2 -1h-2q-6 0 -16 12l-45 56l-63 -56q-15 -12 -21 -12z" />
    <glyph glyph-name="atilde" unicode="&#xe3;" 
d="M-74 0q-10 0 -15 7.5t-2 17.5l249 649q5 12 16 20t24 8h77q11 0 18.5 -7t7.5 -18l21 -646q0 -12 -9 -21.5t-21 -9.5h-37q-11 0 -18 7t-7 17l-1 186q-1 3 -4 3h-153q-3 0 -3 -3l-67 -182q-4 -12 -14.5 -20t-22.5 -8h-39zM104 295h119q4 0 4 4l-6 304q0 3 -2.5 3t-4.5 -3
l-114 -304q0 -4 4 -4zM293 727q-13 0 -27 6q-26 12 -34 45q-2 20 -22 20q-3 0 -9 -2h-1q-11 -3 -18 -12.5t-7 -19.5v1v-5q-2 -13 -12 -16l-18 -6q-6 -1 -10 0l-5 3q0 1 -1 2.5t-2 2.5l-2 10q0 2 0.5 6t0.5 6q5 22 17 40q18 27 49 39q12 4 26 4q24 0 41.5 -13.5t22.5 -36.5
q3 -20 21 -20q3 0 11 2q10 3 17 12.5t6 19.5q0 2 1 3q2 12 13 17l19 7q6 2 8 2q9 0 10 -15q0 -13 -1 -19q-5 -23 -17 -39q-18 -27 -48 -39q-15 -5 -29 -5z" />
    <glyph glyph-name="adieresis" unicode="&#xe4;" 
d="M-74 0q-10 0 -15 7.5t-2 17.5l249 649q5 12 16 20t24 8h77q11 0 18.5 -7t7.5 -18l21 -646q0 -12 -9 -21.5t-21 -9.5h-37q-11 0 -18 7t-7 17l-1 186q-1 3 -4 3h-153q-3 0 -3 -3l-67 -182q-4 -12 -14.5 -20t-22.5 -8h-39zM104 295h119q4 0 4 4l-6 304q0 3 -2.5 3t-4.5 -3
l-114 -304q0 -4 4 -4zM169 745q-6 0 -10 4t-3 10l8 42q2 13 17 13h50q14 0 12 -13l-8 -42q-2 -14 -16 -14h-50zM281 745q-14 0 -12 14l8 42q2 13 16 13h51q14 0 12 -13l-8 -42q-2 -14 -16 -14h-51z" />
    <glyph glyph-name="aring" unicode="&#xe5;" 
d="M-74 0q-10 0 -15 7.5t-2 17.5l249 649q5 12 16 20t24 8h77q11 0 18.5 -7t7.5 -18l21 -646q0 -12 -9 -21.5t-21 -9.5h-37q-11 0 -18 7t-7 17l-1 186q-1 3 -4 3h-153q-3 0 -3 -3l-67 -182q-4 -12 -14.5 -20t-22.5 -8h-39zM104 295h119q4 0 4 4l-6 304q0 3 -2.5 3t-4.5 -3
l-114 -304q0 -4 4 -4zM245 729q-35 0 -55 24t-13 58q6 35 34 59t63 24t54.5 -24t13.5 -59q-6 -34 -34.5 -58t-62.5 -24zM254 775q13 0 26.5 12t15.5 26q2 15 -6 26.5t-22 11.5q-16 0 -29.5 -11t-16.5 -27t6.5 -27t25.5 -11z" />
    <glyph glyph-name="ae" unicode="&#xe6;" horiz-adv-x="791" 
d="M608 -2l-310 2q-10 0 -15.5 7t-3.5 17l1 172h-172l-65 -179q-7 -18 -21 -18h-74q-4 0 -6.5 1.5t-3 4t0 4.5t1.5 4v2l250 665q8 22 31 22l504 -1q20 0 20 -24l-6 -35l-1 -2q0 -3 -1 -6t-2.5 -6.5t-4 -6.5t-5.5 -6t-8 -4.5t-11 -1.5h-238l-36 -201h190h1q6 0 10.5 -0.5
t9 -5.5t2.5 -14l-8 -45q0 -3 -1 -8t-8 -11.5t-19 -6.5h-192l-38 -220h243q14 0 15.5 -17t-1.5 -19l-7 -42v-2q-4 -19 -21 -19zM143 292h144l-8 289q0 24 -7 24q-6 0 -16 -26z" />
    <glyph glyph-name="ccedilla" unicode="&#xe7;" horiz-adv-x="450" 
d="M-43 183l61 345q4 31 22 63q13 27 38 54q24 25 54 42l3 2q40 19 83 19h33q34 0 57 -10q30 -11 44 -29q17 -18 30 -48q14 -42 8 -78q-1 -7 -3 -12t-5 -8l-5 -5t-7 -2.5t-8 -1t-10.5 -0.5h-11.5h-22q-19 0 -21 19q1 28 -5 49q-8 22 -27 34q-16 12 -46 12h-3q-27 0 -50 -13
q-24 -12 -41 -34q-18 -22 -23 -52l-60 -340q-5 -31 5 -53q9 -23 29 -38q20 -16 44 -16h3q25 0 51 15q22 13 40 39q7 10 19 46q3 14 19 14l58 2q7 0 11.5 -5t3.5 -12q-5 -38 -20 -63q-16 -33 -36 -55q-31 -32 -52 -43q-40 -23 -76 -26l-5 -27q26 -5 41 -26t12 -50l-2 -12
q-8 -34 -37.5 -57t-63.5 -23q-26 0 -42 12q-5 5 -4 11q1 4 7.5 10.5t12 11t6.5 4.5l1 2q6 4 15 2q10 -4 14 -4q15 0 28.5 11t15.5 27q3 13 -7 23t-25 10q-2 0 -7 -0.5t-8 -0.5h-3q-6 0 -9 1.5t-7.5 7t-8.5 8.5q-5 5 -4 11l8 49q-18 4 -32 10q-22 10 -44 33q-15 16 -28 50h-1
v1q-16 42 -7 94z" />
    <glyph glyph-name="egrave" unicode="&#xe8;" horiz-adv-x="421" 
d="M-35 -1q-8 0 -13 6.5t-4 15.5l116 656q1 9 9 15.5t16 6.5h278q9 0 14.5 -6.5t3.5 -15.5l-8 -47q-2 -9 -9.5 -16t-16.5 -7h-208l-35 -197h168q8 0 13.5 -7t3.5 -16l-7 -41q-6 -22 -25 -22h-168l-42 -235h208q9 0 14.5 -7.5t3.5 -15.5l-8 -45q-1 -9 -9 -15.5t-17 -6.5h-278
zM244 739q-8 -6 -12 -6q-7 0 -11 7l-60 102q-4 5 -4 10q1 5 12 12l35 25q4 3 9 3q7 0 10 -5l63 -102q3 -7 2 -11q0 -5 -8 -10z" />
    <glyph glyph-name="eacute" unicode="&#xe9;" horiz-adv-x="421" 
d="M-35 -1q-8 0 -13 6.5t-4 15.5l116 656q1 9 9 15.5t16 6.5h278q9 0 14.5 -6.5t3.5 -15.5l-8 -47q-2 -9 -9.5 -16t-16.5 -7h-208l-35 -197h168q8 0 13.5 -7t3.5 -16l-7 -41q-6 -22 -25 -22h-168l-42 -235h208q9 0 14.5 -7.5t3.5 -15.5l-8 -45q-1 -9 -9 -15.5t-17 -6.5h-278
zM228 745l-28 25q-5 5 -4 10q0 5 6 11l99 102q5 5 11 5q5 0 8 -3l27 -25q8 -8 7 -12q-2 -5 -7 -10l-96 -102q-7 -7 -13 -7t-10 6z" />
    <glyph glyph-name="ecircumflex" unicode="&#xea;" horiz-adv-x="421" 
d="M-35 -1q-8 0 -13 6.5t-4 15.5l116 656q1 9 9 15.5t16 6.5h278q9 0 14.5 -6.5t3.5 -15.5l-8 -47q-2 -9 -9.5 -16t-16.5 -7h-208l-35 -197h168q8 0 13.5 -7t3.5 -16l-7 -41q-6 -22 -25 -22h-168l-42 -235h208q9 0 14.5 -7.5t3.5 -15.5l-8 -45q-1 -9 -9 -15.5t-17 -6.5h-278
zM162 737l-8 4l-16 21q-4 3 -4 9q1 4 11 14l1 -1v1l91 81q12 9 20 9q7 0 16 -8l72 -86q3 -5 2 -10q0 -5 -4 -9l-25 -21l-6 -3q-1 0 -2.5 -0.5t-2.5 -0.5q-8 0 -15 12l-46 56l-62 -56q-17 -12 -22 -12z" />
    <glyph glyph-name="edieresis" unicode="&#xeb;" horiz-adv-x="421" 
d="M-35 -1q-8 0 -13 6.5t-4 15.5l116 656q1 9 9 15.5t16 6.5h278q9 0 14.5 -6.5t3.5 -15.5l-8 -47q-2 -9 -9.5 -16t-16.5 -7h-208l-35 -197h168q8 0 13.5 -7t3.5 -16l-7 -41q-6 -22 -25 -22h-168l-42 -235h208q9 0 14.5 -7.5t3.5 -15.5l-8 -45q-1 -9 -9 -15.5t-17 -6.5h-278
zM159 745q-6 0 -10 4t-3 10l8 42q2 13 17 13h50q14 0 12 -13l-8 -42q-2 -14 -16 -14h-50zM271 745q-14 0 -12 14l8 42q2 13 16 13h51q14 0 12 -13l-8 -42q-2 -14 -16 -14h-51z" />
    <glyph glyph-name="igrave" unicode="&#xec;" horiz-adv-x="220" 
d="M-31 -2q-8 0 -12.5 6t-3.5 15l116 660q2 8 9 14.5t15 6.5h49q8 0 13 -6t4 -15l-116 -660q-2 -8 -9 -14.5t-16 -6.5h-49zM128 742q-6 0 -10 7l-60 102q-4 4 -4 10q1 4 11 12l36 25q5 3 9 3q7 0 9 -5l64 -102q2 -4 2 -11q-1 -5 -8 -10l-37 -25q-6 -6 -12 -6z" />
    <glyph glyph-name="iacute" unicode="&#xed;" horiz-adv-x="220" 
d="M-31 -2q-8 0 -12.5 6t-3.5 15l116 660q2 8 9 14.5t15 6.5h49q8 0 13 -6t4 -15l-116 -660q-2 -8 -9 -14.5t-16 -6.5h-49zM136 747q-4 0 -10 6l-27 25q-5 4 -5 10q2 5 6 11l99 102q5 5 11 5q4 0 9 -3l26 -25q8 -6 7 -12q0 -4 -7 -10l-96 -102q-6 -7 -13 -7z" />
    <glyph glyph-name="icircumflex" unicode="&#xee;" horiz-adv-x="227" 
d="M-24 -2q-8 0 -12.5 6t-3.5 15l116 660q2 8 9 14.5t15 6.5h49q8 0 13 -6t4 -15l-116 -660q-2 -8 -9 -14.5t-16 -6.5h-49zM55 734l-8 4l-17 21q-4 4 -3 9q1 2 10 14l1 -1v1l92 81q9 9 19 9q8 0 17 -8l72 -86q3 -6 2 -10q-2 -7 -5 -9l-24 -21l-7 -3l-4 -1q-9 0 -16 12
l-45 56l-63 -56q-15 -12 -21 -12z" />
    <glyph glyph-name="idieresis" unicode="&#xef;" horiz-adv-x="220" 
d="M-31 -2q-8 0 -12.5 6t-3.5 15l116 660q2 8 9 14.5t15 6.5h49q8 0 13 -6t4 -15l-116 -660q-2 -8 -9 -14.5t-16 -6.5h-49zM48 745q-6 0 -10 4t-3 10l8 42q2 13 17 13h50q14 0 12 -13l-8 -42q-2 -14 -16 -14h-50zM160 745q-14 0 -12 14l8 42q2 13 16 13h51q14 0 12 -13
l-8 -42q-2 -14 -16 -14h-51z" />
    <glyph glyph-name="eth" unicode="&#xf0;" horiz-adv-x="496" 
d="M-47 329l8 50q1 8 9.5 14t16.5 6h52l49 280q1 8 8.5 14t15.5 6h63h2h132q45 0 79 -26q62 -48 45 -144q-5 -27 -20 -116t-24 -138l-22 -121q-7 -38 -35 -78.5t-77 -62.5q-33 -15 -66 -15h-201q-7 0 -12 6t-4 15l51 290h-52q-8 0 -13.5 6t-4.5 14zM71 88h97q101 0 117 88
l55 314q3 20 3.5 36t-1 28t-6.5 21.5t-9 15.5t-12 10.5t-13 6.5t-14 3t-12.5 1h-11.5h-8h-93l-37 -213h52q9 0 14.5 -6t3.5 -14l-8 -50q-1 -8 -9 -14t-17 -6h-52z" />
    <glyph glyph-name="ntilde" unicode="&#xf1;" horiz-adv-x="544" 
d="M-35 1q-8 0 -13.5 6.5t-3.5 14.5l116 656q2 8 9 14.5t15 6.5h104v1l1 -1v-1h4q17 0 19 -14l93 -544l85 532q2 9 11 18t17 9h49q8 0 13 -6.5t4 -14.5l-115 -655q-2 -8 -9.5 -14.5t-15.5 -6.5h-90q-14 0 -19 15l-110 574l-91 -569q-2 -8 -9 -14.5t-16 -6.5h-48zM351 730
q-12 0 -27 6q-24 12 -34 45q-2 20 -22 20q-3 0 -9 -2h-1q-10 -3 -17.5 -12.5t-6.5 -19.5v1v-5q-4 -13 -13 -16l-18 -6q-5 -1 -10 0l-4 3q-3 3 -3 5l-3 10q1 2 1 6t1 6q3 22 17 40q18 27 48 39q12 4 27 4q23 0 40.5 -13.5t22.5 -36.5q5 -20 22 -20q2 0 10 2q24 7 24 32v3
q1 11 13 17l19 7q6 2 9 2q8 0 9 -15q1 -7 -1 -19q-3 -19 -16 -39q-18 -27 -49 -39q-15 -5 -29 -5z" />
    <glyph glyph-name="ograve" unicode="&#xf2;" 
d="M118 -10q-23 0 -45 4.5t-33 9.5l-10 5q-4 1 -9.5 4t-20 15.5t-25 29.5t-17 48.5t-2.5 70.5l62 353q5 27 21 61q21 36 41 55q20 22 51 38q24 13 46 19q19 6 46 6h35q31 0 55 -11q28 -9 48 -32q22 -18 30 -45q18 -40 9 -91l-63 -356h-2l1 4h2q-17 -87 -92 -144
q-58 -44 -128 -44zM129 84h4q29 0 57 15q27 18 45 39q17 24 21 53l59 333q4 22 -5 51q-11 23 -31 38q-22 13 -51 13h-4q-26 0 -54 -13q-30 -16 -46 -37q-18 -25 -23 -52l-57 -333q-5 -28 5 -52q9 -23 30 -40q23 -15 50 -15zM263 750q-8 -6 -12 -6q-7 0 -11 7l-60 102
q-4 5 -4 10q1 5 12 12l35 25q4 3 9 3q7 0 10 -5l63 -102q3 -7 2 -11q0 -5 -8 -10z" />
    <glyph glyph-name="oacute" unicode="&#xf3;" 
d="M118 -10q-23 0 -45 4.5t-33 9.5l-10 5q-4 1 -9.5 4t-20 15.5t-25 29.5t-17 48.5t-2.5 70.5l62 353q5 27 21 61q21 36 41 55q20 22 51 38q24 13 46 19q19 6 46 6h35q31 0 55 -11q28 -9 48 -32q22 -18 30 -45q18 -40 9 -91l-63 -356h-2l1 4h2q-17 -87 -92 -144
q-58 -44 -128 -44zM129 84h4q29 0 57 15q27 18 45 39q17 24 21 53l59 333q4 22 -5 51q-11 23 -31 38q-22 13 -51 13h-4q-26 0 -54 -13q-30 -16 -46 -37q-18 -25 -23 -52l-57 -333q-5 -28 5 -52q9 -23 30 -40q23 -15 50 -15zM237 751l-28 25q-5 5 -4 10q0 3 6 11l99 102
q5 5 11 5q5 0 8 -3l27 -25q8 -8 7 -12q-2 -6 -7 -10l-96 -102q-7 -7 -13 -7q-4 0 -10 6z" />
    <glyph glyph-name="ocircumflex" unicode="&#xf4;" 
d="M118 -10q-23 0 -45 4.5t-33 9.5l-10 5q-4 1 -9.5 4t-20 15.5t-25 29.5t-17 48.5t-2.5 70.5l62 353q5 27 21 61q21 36 41 55q20 22 51 38q24 13 46 19q19 6 46 6h35q31 0 55 -11q28 -9 48 -32q22 -18 30 -45q18 -40 9 -91l-63 -356h-2l1 4h2q-17 -87 -92 -144
q-58 -44 -128 -44zM129 84h4q29 0 57 15q27 18 45 39q17 24 21 53l59 333q4 22 -5 51q-11 23 -31 38q-22 13 -51 13h-4q-26 0 -54 -13q-30 -16 -46 -37q-18 -25 -23 -52l-57 -333q-5 -28 5 -52q9 -23 30 -40q23 -15 50 -15zM175 736l-8 4l-16 21q-4 3 -4 9q1 4 11 14l1 -1v1
l91 81q12 9 20 9q7 0 16 -8l72 -86q3 -6 2 -10q0 -5 -4 -9l-25 -21l-7 -3l-2 -1h-2q-6 0 -16 12l-45 56l-63 -56q-15 -12 -21 -12z" />
    <glyph glyph-name="otilde" unicode="&#xf5;" 
d="M118 -10q-23 0 -45 4.5t-33 9.5l-10 5q-4 1 -9.5 4t-20 15.5t-25 29.5t-17 48.5t-2.5 70.5l62 353q5 27 21 61q21 36 41 55q20 22 51 38q24 13 46 19q19 6 46 6h35q31 0 55 -11q28 -9 48 -32q22 -18 30 -45q18 -40 9 -91l-63 -356h-2l1 4h2q-17 -87 -92 -144
q-58 -44 -128 -44zM129 84h4q29 0 57 15q27 18 45 39q17 24 21 53l59 333q4 22 -5 51q-11 23 -31 38q-22 13 -51 13h-4q-26 0 -54 -13q-30 -16 -46 -37q-18 -25 -23 -52l-57 -333q-5 -28 5 -52q9 -23 30 -40q23 -15 50 -15zM299 732q-13 0 -27 6q-26 12 -34 45q-2 20 -22 20
q-3 0 -9 -2h-1q-11 -3 -18 -12.5t-7 -19.5v1v-5q-2 -13 -12 -16l-18 -6q-6 -1 -10 0l-5 3q-1 1 -3 5l-2 10q0 8 1 12q5 22 17 40q19 28 49 39q12 4 26 4q24 0 41.5 -13.5t22.5 -36.5q3 -20 21 -20q4 0 10 2q11 3 18 12.5t6 19.5v3q3 12 14 17l19 7q6 2 8 2q9 0 10 -15
q0 -13 -1 -19q-5 -23 -17 -39q-19 -28 -49 -39q-14 -5 -28 -5z" />
    <glyph glyph-name="odieresis" unicode="&#xf6;" 
d="M118 -10q-23 0 -45 4.5t-33 9.5l-10 5q-4 1 -9.5 4t-20 15.5t-25 29.5t-17 48.5t-2.5 70.5l62 353q5 27 21 61q21 36 41 55q20 22 51 38q24 13 46 19q19 6 46 6h35q31 0 55 -11q28 -9 48 -32q22 -18 30 -45q18 -40 9 -91l-63 -356h-2l1 4h2q-17 -87 -92 -144
q-58 -44 -128 -44zM129 84h4q29 0 57 15q27 18 45 39q17 24 21 53l59 333q4 22 -5 51q-11 23 -31 38q-22 13 -51 13h-4q-26 0 -54 -13q-30 -16 -46 -37q-18 -25 -23 -52l-57 -333q-5 -28 5 -52q9 -23 30 -40q23 -15 50 -15zM173 745q-6 0 -10 4t-3 10l8 42q2 13 17 13h50
q14 0 12 -13l-8 -42q-2 -14 -16 -14h-50zM285 745q-14 0 -12 14l8 42q2 13 16 13h51q14 0 12 -13l-8 -42q-2 -14 -16 -14h-51z" />
    <glyph glyph-name="divide" unicode="&#xf7;" horiz-adv-x="495" 
d="M36 320q-9 0 -14 6.5t-3 16.5l6 32q2 9 8.5 15t15.5 6h290q10 0 15.5 -6t3.5 -15l-6 -32q-4 -23 -26 -23h-290zM151 162q-20 0 -31.5 14t-7.5 35q3 20 19.5 34.5t36.5 14.5t32 -14.5t9 -34.5q-4 -20 -20.5 -34.5t-37.5 -14.5zM204 453q-20 0 -31 14t-7 34q4 21 19.5 35
t35.5 14q21 0 33.5 -14t8.5 -35q-4 -20 -21 -34t-38 -14z" />
    <glyph glyph-name="oslash" unicode="&#xf8;" horiz-adv-x="565" 
d="M184 -6q-23 0 -44.5 4.5t-31.5 9.5l-11 5q-4 1 -11 4.5t-23 19.5t-26 37l-54 -64q-9 -11 -22 -11q-6 0 -13 5l-28 22q-10 7 -7 20q0 7 6 13l103 121l63 354q5 25 20 61q24 38 42 55q20 22 51 38q23 13 46 19q20 6 45 6h35q33 0 55 -11q27 -9 49 -32q6 -6 6 -7l45 52
q9 11 22 11q6 0 13 -5l28 -22q10 -7 7 -20q0 -7 -6 -13l-74 -86q1 -19 -2 -46l-63 -356q-8 -39 -32.5 -75t-36 -46.5t-22.5 -18.5q-60 -44 -129 -44zM196 88h4q29 0 57 15q29 21 45 39q15 24 21 53l47 269l-259 -304q1 -4 5 -17q9 -23 30 -40q23 -15 50 -15zM129 306
l242 283q-13 19 -26 28q-20 13 -50 13h-4q-26 0 -55 -13q-31 -18 -45 -37q-20 -28 -23 -52z" />
    <glyph glyph-name="ugrave" unicode="&#xf9;" horiz-adv-x="482" 
d="M124 -4q-37 -1 -67.5 11t-47 29.5t-25 30.5t-11.5 22q-15 44 -6 93l88 503q4 18 20 18h55q7 0 11.5 -5.5t3.5 -12.5l-87 -496q-4 -7 -2 -23.5t6.5 -33t22.5 -29.5t46 -14h17q29 1 51.5 13.5t34.5 31t17.5 31.5t7.5 24l88 496q2 7 8 12.5t13 5.5h55q7 0 11.5 -5.5
t2.5 -12.5l-89 -503q-9 -49 -39 -93l-1 -2v-1q-80 -92 -184 -90zM269 728q-8 -6 -12 -6q-7 0 -11 7l-60 102q-4 6 -3 10q0 5 11 12l35 25q6 3 9 3q7 0 10 -5l63 -102q3 -7 2 -11q0 -5 -8 -10z" />
    <glyph glyph-name="uacute" unicode="&#xfa;" horiz-adv-x="482" 
d="M124 -4q-37 -1 -67.5 11t-47 29.5t-25 30.5t-11.5 22q-15 44 -6 93l88 503q4 18 20 18h55q7 0 11.5 -5.5t3.5 -12.5l-87 -496q-4 -7 -2 -23.5t6.5 -33t22.5 -29.5t46 -14h17q29 1 51.5 13.5t34.5 31t17.5 31.5t7.5 24l88 496q2 7 8 12.5t13 5.5h55q7 0 11.5 -5.5
t2.5 -12.5l-89 -503q-9 -49 -39 -93l-1 -2v-1q-80 -92 -184 -90zM243 736l-27 25q-5 4 -5 10q2 5 6 11l99 102q5 5 12 5q4 0 8 -3l26 -25q8 -6 7 -12q0 -4 -7 -10l-96 -102q-7 -7 -13 -7q-4 0 -10 6z" />
    <glyph glyph-name="ucircumflex" unicode="&#xfb;" horiz-adv-x="482" 
d="M124 -4q-37 -1 -67.5 11t-47 29.5t-25 30.5t-11.5 22q-15 44 -6 93l88 503q4 18 20 18h55q7 0 11.5 -5.5t3.5 -12.5l-87 -496q-4 -7 -2 -23.5t6.5 -33t22.5 -29.5t46 -14h17q29 1 51.5 13.5t34.5 31t17.5 31.5t7.5 24l88 496q2 7 8 12.5t13 5.5h55q7 0 11.5 -5.5
t2.5 -12.5l-89 -503q-9 -49 -39 -93l-1 -2v-1q-80 -92 -184 -90zM182 734l-8 4l-17 21q-4 4 -3 9q1 2 10 14l1 -1v1l92 81q9 9 19 9q8 0 17 -8l72 -86q3 -6 2 -10q-2 -7 -5 -9l-24 -21l-7 -3q-1 0 -2 -0.5t-2 -0.5q-9 0 -16 12l-45 56l-63 -56q-15 -12 -21 -12z" />
    <glyph glyph-name="udieresis" unicode="&#xfc;" horiz-adv-x="482" 
d="M124 -4q-37 -1 -67.5 11t-47 29.5t-25 30.5t-11.5 22q-15 44 -6 93l88 503q4 18 20 18h55q7 0 11.5 -5.5t3.5 -12.5l-87 -496q-4 -7 -2 -23.5t6.5 -33t22.5 -29.5t46 -14h17q29 1 51.5 13.5t34.5 31t17.5 31.5t7.5 24l88 496q2 7 8 12.5t13 5.5h55q7 0 11.5 -5.5
t2.5 -12.5l-89 -503q-9 -49 -39 -93l-1 -2v-1q-80 -92 -184 -90zM175 743q-6 0 -10 4t-3 10l7 42q3 13 18 13h50q14 0 11 -13l-7 -42q-2 -14 -16 -14h-50zM287 743q-14 0 -12 14l7 42q3 13 17 13h51q14 0 11 -13l-7 -42q-2 -14 -16 -14h-51z" />
    <glyph glyph-name="yacute" unicode="&#xfd;" horiz-adv-x="435" 
d="M76 0q-7 0 -11.5 6t-3.5 14l42 242q9 62 3 85l-71 329q-1 3 0 6q1 7 6.5 12t12.5 5h57q10 0 15 -12l50 -265l143 265q9 12 20 12l55 1q10 0 14 -7.5t0 -16.5q-122 -212 -180 -313q-17 -30 -23 -58l1 1q-3 -6 -3 -11l-2 -7l-50 -268q-4 -20 -22 -20h-53zM223 724l-27 25
q-6 5 -5 10q2 5 6 11l99 102q5 5 11 5q5 0 9 -3l26 -25q8 -6 7 -12q0 -4 -7 -10l-96 -102q-7 -7 -13 -7q-4 0 -10 6z" />
    <glyph glyph-name="thorn" unicode="&#xfe;" horiz-adv-x="415" 
d="M-49 1q-15 0 -10 18l116 658q3 20 18 20h52q15 0 11 -18l-23 -133l134 -2q39 0 63 -29.5t17 -70.5l-28 -160q-8 -41 -43 -71.5t-75 -30.5l-131 -3l-28 -161v-1q-1 -1 -1 -3q-2 -13 -17 -13h-55zM93 261h61q31 0 54 16.5t27 41.5l16 94q5 28 -14.5 44t-56.5 16h-50
q-14 0 -24.5 -10t-12.5 -25l-27 -154q-2 -10 3.5 -16t10.5 -6.5t13 -0.5z" />
    <glyph glyph-name="ydieresis" unicode="&#xff;" horiz-adv-x="435" 
d="M76 0q-7 0 -11.5 6t-3.5 14l42 242q9 62 3 85l-71 329q-1 3 0 6q1 7 6.5 12t12.5 5h57q10 0 15 -12l50 -265l143 265q9 12 20 12l55 1q10 0 14 -7.5t0 -16.5q-122 -212 -180 -313q-17 -30 -23 -58l1 1q-3 -6 -3 -11l-2 -7l-50 -268q-4 -20 -22 -20h-53zM154 734
q-6 0 -10 4t-3 10l8 42q2 13 17 13h50q14 0 12 -13l-8 -42q-2 -14 -16 -14h-50zM266 734q-14 0 -12 14l8 42q2 13 16 13h51q14 0 12 -13l-8 -42q-2 -14 -16 -14h-51z" />
    <glyph glyph-name="Amacron" unicode="&#x100;" 
d="M-74 0q-10 0 -15 7.5t-2 17.5l249 649q5 12 16 20t24 8h77q11 0 18.5 -7t7.5 -18l21 -646q0 -12 -9 -21.5t-21 -9.5h-37q-11 0 -18 7t-7 17l-1 186q-1 3 -4 3h-153q-3 0 -3 -3l-67 -182q-4 -12 -14.5 -20t-22.5 -8h-39zM104 295h119q4 0 4 4l-6 304q0 3 -2.5 3t-4.5 -3
l-114 -304q0 -4 4 -4zM118 735q-16 0 -13 17l5 27q3 21 24 21h259q16 0 13 -17l-6 -31q-3 -17 -19 -17h-263z" />
    <glyph glyph-name="amacron" unicode="&#x101;" 
d="M-74 0q-10 0 -15 7.5t-2 17.5l249 649q5 12 16 20t24 8h77q11 0 18.5 -7t7.5 -18l21 -646q0 -12 -9 -21.5t-21 -9.5h-37q-11 0 -18 7t-7 17l-1 186q-1 3 -4 3h-153q-3 0 -3 -3l-67 -182q-4 -12 -14.5 -20t-22.5 -8h-39zM104 295h119q4 0 4 4l-6 304q0 3 -2.5 3t-4.5 -3
l-114 -304q0 -4 4 -4zM112 734q-16 0 -13 17l5 27q3 21 23 21h259q16 0 13 -17l-5 -31q-3 -17 -19 -17h-263z" />
    <glyph glyph-name="Abreve" unicode="&#x102;" 
d="M-74 0q-10 0 -15 7.5t-2 17.5l249 649q5 12 16 20t24 8h77q11 0 18.5 -7t7.5 -18l21 -646q0 -12 -9 -21.5t-21 -9.5h-37q-11 0 -18 7t-7 17l-1 186q-1 3 -4 3h-153q-3 0 -3 -3l-67 -182q-4 -12 -14.5 -20t-22.5 -8h-39zM104 295h119q4 0 4 4l-6 304q0 3 -2.5 3t-4.5 -3
l-114 -304q0 -4 4 -4zM242 731q-40 0 -63 26.5t-22 71.5v2q2 10 13 10h28q7 0 8 -10q0 -22 12 -35t34 -13q21 0 37.5 13.5t22.5 35.5q5 9 11 9h30q4 0 6.5 -3.5t1.5 -7.5q-10 -49 -46.5 -74t-72.5 -25z" />
    <glyph glyph-name="abreve" unicode="&#x103;" 
d="M-74 0q-10 0 -15 7.5t-2 17.5l249 649q5 12 16 20t24 8h77q11 0 18.5 -7t7.5 -18l21 -646q0 -12 -9 -21.5t-21 -9.5h-37q-11 0 -18 7t-7 17l-1 186q-1 3 -4 3h-153q-3 0 -3 -3l-67 -182q-4 -12 -14.5 -20t-22.5 -8h-39zM104 295h119q4 0 4 4l-6 304q0 3 -2.5 3t-4.5 -3
l-114 -304q0 -4 4 -4zM245 737q-40 0 -63 26.5t-22 71.5v2q2 10 13 10h28q7 0 8 -10q0 -22 12 -35t34 -13q21 0 37.5 13.5t22.5 35.5q5 9 11 9h30q4 0 6.5 -3.5t1.5 -7.5q-10 -49 -46.5 -74t-72.5 -25z" />
    <glyph glyph-name="Aogonek" unicode="&#x104;" 
d="M-74 0q-10 0 -15 7.5t-2 17.5l249 649q5 12 16 20t24 8h77q11 0 18.5 -7t7.5 -18l21 -646q0 -12 -9 -21.5t-21 -9.5h-37q-11 0 -18 7t-7 17l-1 186q-1 3 -4 3h-153q-3 0 -3 -3l-67 -182q-4 -12 -14.5 -20t-22.5 -8h-39zM228 -172q-38 0 -61 26t-19 64l3 14l-1 -1
q9 31 31 53.5t52 31.5h85l-3 -20q-9 -14 -30 -26v-1q-6 -3 -14 -2h-1q-2 0 -7 2t-10 2q-18 0 -34.5 -13.5t-21.5 -33.5q-2 -20 9.5 -33t30.5 -13q11 0 20 4l6 1h-1q4 0 6 -3q9 -12 18 -18q2 -3 1 -10q-2 -9 -8 -12h1q-24 -12 -52 -12zM104 295h119q4 0 4 4l-6 304
q0 3 -2.5 3t-4.5 -3l-114 -304q0 -4 4 -4z" />
    <glyph glyph-name="aogonek" unicode="&#x105;" 
d="M-74 0q-10 0 -15 7.5t-2 17.5l249 649q5 12 16 20t24 8h77q11 0 18.5 -7t7.5 -18l20 -665q-13 -12 -29 -12h-37q-11 0 -18 7t-7 17l-1 186q-1 3 -4 3h-153q-3 0 -3 -3l-67 -182q-4 -12 -14.5 -20t-22.5 -8h-39zM230 -176q-38 0 -61 26t-19 64l3 13q18 65 83 85h85l-4 -20
q-7 -11 -29 -26l-1 -1q-6 -3 -14 -2h-1q-2 0 -7 2t-9 2q-18 0 -35 -14t-22 -33q-2 -20 9.5 -33t30.5 -13q11 0 20 4l6 1h-1q4 0 7 -3q7 -11 17 -18q3 -3 2 -10q-1 -9 -8 -12h1q-25 -12 -53 -12zM104 295h119q4 0 4 4l-6 304q0 3 -2.5 3t-4.5 -3l-114 -304q0 -4 4 -4z" />
    <glyph glyph-name="Cacute" unicode="&#x106;" horiz-adv-x="450" 
d="M93 -7q-27 0 -56 12q-22 10 -44 33q-15 16 -28 50h-1v1q-16 42 -7 94l61 345q4 31 22 63q13 27 38 54q24 25 54 42l3 2q40 19 83 19h33q34 0 57 -10q30 -11 44 -29q17 -18 30 -48q14 -42 8 -78q-1 -7 -3 -12t-5 -8l-5 -5t-7 -2.5t-8 -1t-10.5 -0.5h-11.5h-22
q-19 0 -21 19q1 28 -5 49q-8 22 -27 34q-16 12 -46 12h-3q-27 0 -50 -13q-24 -12 -41 -34q-18 -22 -23 -52l-60 -340q-5 -31 5 -53q9 -23 29 -38q20 -16 44 -16h3q25 0 51 15q22 13 40 39q7 10 19 46q3 14 19 14l58 2q7 0 11.5 -5t3.5 -12q-5 -38 -20 -63q-16 -33 -36 -55
q-31 -32 -52 -43q-47 -27 -91 -27h-33zM227 753l-27 25q-5 4 -5 10q2 5 6 11l99 102q5 5 12 5q4 0 8 -3l26 -25q8 -6 7 -12q0 -4 -7 -10l-96 -102q-7 -7 -13 -7q-4 0 -10 6z" />
    <glyph glyph-name="cacute" unicode="&#x107;" horiz-adv-x="450" 
d="M93 -7q-27 0 -56 12q-22 10 -44 33q-15 16 -28 50h-1v1q-16 42 -7 94l61 345q4 31 22 63q13 27 38 54q24 25 54 42l3 2q40 19 83 19h33q34 0 57 -10q30 -11 44 -29q17 -18 30 -48q14 -42 8 -78q-1 -7 -3 -12t-5 -8l-5 -5t-7 -2.5t-8 -1t-10.5 -0.5h-11.5h-22
q-19 0 -21 19q1 28 -5 49q-8 22 -27 34q-16 12 -46 12h-3q-27 0 -50 -13q-24 -12 -41 -34q-18 -22 -23 -52l-60 -340q-5 -31 5 -53q9 -23 29 -38q20 -16 44 -16h3q25 0 51 15q22 13 40 39q7 10 19 46q3 14 19 14l58 2q7 0 11.5 -5t3.5 -12q-5 -38 -20 -63q-16 -33 -36 -55
q-31 -32 -52 -43q-47 -27 -91 -27h-33zM238 749l-28 25q-5 4 -5 10q2 6 7 11l99 102q5 5 11 5q5 0 8 -3l27 -25q8 -8 7 -12q-2 -4 -7 -10l-96 -102q-7 -7 -13 -7t-10 6z" />
    <glyph glyph-name="Ccaron" unicode="&#x10c;" horiz-adv-x="450" 
d="M93 -7q-27 0 -56 12q-22 10 -44 33q-15 16 -28 50h-1v1q-16 42 -7 94l61 345q4 31 22 63q13 27 38 54q24 25 54 42l3 2q40 19 83 19h33q34 0 57 -10q30 -11 44 -29q17 -18 30 -48q14 -42 8 -78q-1 -7 -3 -12t-5 -8l-5 -5t-7 -2.5t-8 -1t-10.5 -0.5h-11.5h-22
q-19 0 -21 19q1 28 -5 49q-8 22 -27 34q-16 12 -46 12h-3q-27 0 -50 -13q-24 -12 -41 -34q-18 -22 -23 -52l-60 -340q-5 -31 5 -53q9 -23 29 -38q20 -16 44 -16h3q25 0 51 15q22 13 40 39q7 10 19 46q3 14 19 14l58 2q7 0 11.5 -5t3.5 -12q-5 -38 -20 -63q-16 -33 -36 -55
q-31 -32 -52 -43q-47 -27 -91 -27h-33zM237 733q-8 0 -17 8l-72 86q-3 6 -2 10q2 7 5 9l24 21l7 3h2l2 1q9 0 16 -12l45 -56l63 56q15 12 21 12l8 -4l17 -21q4 -4 3 -9t-10 -14l-1 1v-1l-92 -81q-9 -9 -19 -9z" />
    <glyph glyph-name="ccaron" unicode="&#x10d;" horiz-adv-x="450" 
d="M93 -7q-27 0 -56 12q-22 10 -44 33q-15 16 -28 50h-1v1q-16 42 -7 94l61 345q4 31 22 63q13 27 38 54q24 25 54 42l3 2q40 19 83 19h33q34 0 57 -10q30 -11 44 -29q17 -18 30 -48q14 -42 8 -78q-1 -7 -3 -12t-5 -8l-5 -5t-7 -2.5t-8 -1t-10.5 -0.5h-11.5h-22
q-19 0 -21 19q1 28 -5 49q-8 22 -27 34q-16 12 -46 12h-3q-27 0 -50 -13q-24 -12 -41 -34q-18 -22 -23 -52l-60 -340q-5 -31 5 -53q9 -23 29 -38q20 -16 44 -16h3q25 0 51 15q22 13 40 39q7 10 19 46q3 14 19 14l58 2q7 0 11.5 -5t3.5 -12q-5 -38 -20 -63q-16 -33 -36 -55
q-31 -32 -52 -43q-47 -27 -91 -27h-33zM237 735q-8 0 -16 8l-72 86q-3 4 -3 10q2 6 5 9l25 21l6 3q1 0 2.5 0.5t2.5 0.5q8 0 15 -12l45 -56l63 56q17 12 21 12l9 -4l16 -21q4 -3 3 -9q0 -4 -10 -14l-1 1v-1l-91 -81q-12 -9 -20 -9z" />
    <glyph glyph-name="Dcaron" unicode="&#x10e;" horiz-adv-x="472" 
d="M-36 -2q-7 0 -12 6t-4 15l116 660q1 8 8.5 14t15.5 6h63h2h132q45 0 79 -26q62 -48 45 -144q-5 -27 -20 -116t-24 -138l-22 -121q-7 -38 -35 -78.5t-77 -62.5q-33 -15 -66 -15h-201zM47 88h97q101 0 117 88l55 314q3 20 3.5 36t-1 28t-6.5 21.5t-9 15.5t-12 10.5t-13 6.5
t-14 3t-12.5 1h-11.5h-8h-93zM240 732q-8 0 -17 8l-72 86q-3 6 -2 10q0 5 4 9l25 21l7 3q1 0 2 0.5t2 0.5q6 0 16 -12l45 -56l63 56q15 12 21 12l8 -4l16 -21q5 -4 4 -9q-1 -4 -11 -14v1l-1 -1l-91 -81q-9 -9 -19 -9z" />
    <glyph glyph-name="dcaron" unicode="&#x10f;" horiz-adv-x="600" 
d="M-36 -2q-7 0 -12 6t-4 15l116 660q1 8 8.5 14t15.5 6h63h2h132q45 0 79 -26q62 -48 45 -144q-5 -27 -20 -116t-24 -138l-22 -121q-7 -38 -35 -78.5t-77 -62.5q-33 -15 -66 -15h-201zM47 88h97q101 0 117 88l55 314q3 20 3.5 36t-1 28t-6.5 21.5t-9 15.5t-12 10.5t-13 6.5
t-14 3t-12.5 1h-11.5h-8h-93zM478 533q-17 0 -14 18l23 133q5 16 20 16h37q6 0 10 -0.5t7.5 -5t2.5 -13.5l-22 -130q-4 -18 -24 -18h-40z" />
    <glyph glyph-name="Dcroat" unicode="&#x110;" horiz-adv-x="496" 
d="M-47 329l8 50q1 8 9.5 14t16.5 6h52l49 280q1 8 8.5 14t15.5 6h63h2h132q45 0 79 -26q62 -48 45 -144q-5 -27 -20 -116t-24 -138l-22 -121q-7 -38 -35 -78.5t-77 -62.5q-33 -15 -66 -15h-201q-7 0 -12 6t-4 15l51 290h-52q-8 0 -13.5 6t-4.5 14zM71 88h97q101 0 117 88
l55 314q3 20 3.5 36t-1 28t-6.5 21.5t-9 15.5t-12 10.5t-13 6.5t-14 3t-12.5 1h-11.5h-8h-93l-37 -213h52q9 0 14.5 -6t3.5 -14l-8 -50q-1 -8 -9 -14t-17 -6h-52z" />
    <glyph glyph-name="dcroat" unicode="&#x111;" horiz-adv-x="553" 
d="M-52 21l117 660q1 8 8 14t15 6h63h2h132q46 0 80 -26q61 -48 44 -144l-22 -127h79q21 0 19 -24l-8 -43q-5 -21 -29 -21h-76q-18 -105 -29 -160q-4 -23 -15.5 -47.5t-37 -51.5t-59.5 -42q-33 -15 -65 -15h-201q-7 0 -12.5 6t-4.5 15zM47 90h97q101 0 117 88l24 138h-79
q-10 0 -15 7.5t-4 16.5l8 41q1 9 8.5 16t21.5 7h76l15 88q3 20 3.5 36t-1 28t-6 21.5t-9 15.5t-12.5 10.5t-13 6.5t-13.5 3t-12 1h-11.5h-8h-93z" />
    <glyph glyph-name="Emacron" unicode="&#x112;" horiz-adv-x="421" 
d="M-35 -1q-8 0 -13 6.5t-4 15.5l116 656q1 9 9 15.5t16 6.5h278q9 0 14.5 -6.5t3.5 -15.5l-8 -47q-2 -9 -9.5 -16t-16.5 -7h-208l-35 -197h168q8 0 13.5 -7t3.5 -16l-7 -41q-6 -22 -25 -22h-168l-42 -235h208q9 0 14.5 -7.5t3.5 -15.5l-8 -45q-1 -9 -9 -15.5t-17 -6.5h-278
zM102 741q-16 0 -13 17l5 27q3 21 24 21h259q16 0 13 -17l-6 -31q-3 -17 -19 -17h-263z" />
    <glyph glyph-name="emacron" unicode="&#x113;" horiz-adv-x="421" 
d="M-35 -1q-8 0 -13 6.5t-4 15.5l116 656q1 9 9 15.5t16 6.5h278q9 0 14.5 -6.5t3.5 -15.5l-8 -47q-2 -9 -9.5 -16t-16.5 -7h-208l-35 -197h168q8 0 13.5 -7t3.5 -16l-7 -41q-6 -22 -25 -22h-168l-42 -235h208q9 0 14.5 -7.5t3.5 -15.5l-8 -45q-1 -9 -9 -15.5t-17 -6.5h-278
zM102 741q-16 0 -13 17l5 27q3 21 24 21h259q16 0 13 -17l-6 -31q-3 -17 -19 -17h-263z" />
    <glyph glyph-name="Edotaccent" unicode="&#x116;" horiz-adv-x="421" 
d="M-35 -1q-8 0 -13 6.5t-4 15.5l116 656q1 9 9 15.5t16 6.5h278q9 0 14.5 -6.5t3.5 -15.5l-8 -47q-2 -9 -9.5 -16t-16.5 -7h-208l-35 -197h168q8 0 13.5 -7t3.5 -16l-7 -41q-6 -22 -25 -22h-168l-42 -235h208q9 0 14.5 -7.5t3.5 -15.5l-8 -45q-1 -9 -9 -15.5t-17 -6.5h-278
zM229 735q-20 0 -31.5 14t-7.5 34q3 19 19.5 33.5t36.5 14.5t31.5 -14t8.5 -34q-4 -20 -20.5 -34t-36.5 -14z" />
    <glyph glyph-name="edotaccent" unicode="&#x117;" horiz-adv-x="421" 
d="M-35 -1q-8 0 -13 6.5t-4 15.5l116 656q1 9 9 15.5t16 6.5h278q9 0 14.5 -6.5t3.5 -15.5l-8 -47q-2 -9 -9.5 -16t-16.5 -7h-208l-35 -197h168q8 0 13.5 -7t3.5 -16l-7 -41q-6 -22 -25 -22h-168l-42 -235h208q9 0 14.5 -7.5t3.5 -15.5l-8 -45q-1 -9 -9 -15.5t-17 -6.5h-278
zM236 746q-20 0 -31.5 14t-7.5 34q3 19 19.5 33.5t36.5 14.5t31.5 -14t8.5 -34q-4 -20 -20.5 -34t-36.5 -14z" />
    <glyph glyph-name="Eogonek" unicode="&#x118;" horiz-adv-x="421" 
d="M-35 -1q-8 0 -13 6.5t-4 15.5l116 656q1 9 9 15.5t16 6.5h278q9 0 14.5 -6.5t3.5 -15.5l-8 -47q-2 -9 -9.5 -16t-16.5 -7h-208l-35 -197h168q8 0 13.5 -7t3.5 -16l-7 -41q-6 -22 -25 -22h-168l-42 -235h208q9 0 14.5 -7.5t3.5 -15.5l-8 -45q-1 -9 -9 -15.5t-17 -6.5h-278
zM88 -180q-38 0 -61 26t-19 64l2 14v-1q18 65 83 85h85l-4 -20q-8 -14 -29 -26v-1q-8 -3 -15 -2h-1q-1 0 -6 2t-10 2q-18 0 -35 -14t-21 -33q-2 -19 9.5 -32.5t30.5 -13.5q11 0 19 4l6 1h-1q4 0 7 -3q10 -14 18 -18q2 -4 1 -10q-1 -9 -8 -12h1q-26 -12 -52 -12z" />
    <glyph glyph-name="eogonek" unicode="&#x119;" horiz-adv-x="421" 
d="M-35 -1q-8 0 -13 6.5t-4 15.5l116 656q1 9 9 15.5t16 6.5h278q9 0 14.5 -6.5t3.5 -15.5l-8 -47q-2 -9 -9.5 -16t-16.5 -7h-208l-35 -197h168q8 0 13.5 -7t3.5 -16l-7 -41q-6 -22 -25 -22h-168l-42 -235h208q9 0 14.5 -7.5t3.5 -15.5l-8 -45q-1 -9 -9 -15.5t-17 -6.5h-278
zM167 -195q-38 0 -61 26t-19 64l2 14v-1q9 31 31 53.5t52 31.5h85l-3 -20q-9 -14 -30 -26v-1q-6 -3 -14 -2h-1q-1 0 -7 2t-10 2q-18 0 -34.5 -13.5t-21.5 -33.5q-2 -19 9.5 -32.5t30.5 -13.5q11 0 20 4l6 1h-1q5 0 6 -3q9 -12 18 -18q3 -3 1 -10q-2 -9 -8 -12h1
q-24 -12 -52 -12z" />
    <glyph glyph-name="Ecaron" unicode="&#x11a;" horiz-adv-x="421" 
d="M-35 -1q-8 0 -13 6.5t-4 15.5l116 656q1 9 9 15.5t16 6.5h278q9 0 14.5 -6.5t3.5 -15.5l-8 -47q-2 -9 -9.5 -16t-16.5 -7h-208l-35 -197h168q8 0 13.5 -7t3.5 -16l-7 -41q-6 -22 -25 -22h-168l-42 -235h208q9 0 14.5 -7.5t3.5 -15.5l-8 -45q-1 -9 -9 -15.5t-17 -6.5h-278
zM229 729q-8 0 -17 8l-71 86q-3 4 -3 10q2 6 5 9l25 21l6 3q1 0 2.5 0.5t2.5 0.5q8 0 15 -12l45 -56l63 56q15 12 21 12l9 -4l16 -21q4 -3 3 -9q0 -4 -10 -14l-1 1v-1l-91 -81q-12 -9 -20 -9z" />
    <glyph glyph-name="ecaron" unicode="&#x11b;" horiz-adv-x="421" 
d="M-35 -1q-8 0 -13 6.5t-4 15.5l116 656q1 9 9 15.5t16 6.5h278q9 0 14.5 -6.5t3.5 -15.5l-8 -47q-2 -9 -9.5 -16t-16.5 -7h-208l-35 -197h168q8 0 13.5 -7t3.5 -16l-7 -41q-6 -22 -25 -22h-168l-42 -235h208q9 0 14.5 -7.5t3.5 -15.5l-8 -45q-1 -9 -9 -15.5t-17 -6.5h-278
zM236 734q-8 0 -17 8l-71 86q-3 4 -3 10q2 7 5 9l25 21l6 3q1 0 3 1h1q9 0 16 -12l45 -56l63 56q15 12 21 12l9 -4l16 -21q4 -4 3 -9q0 -4 -10 -14l-1 1v-1l-91 -81q-12 -9 -20 -9z" />
    <glyph glyph-name="Gcommaaccent" unicode="&#x122;" horiz-adv-x="465" 
d="M101 -5q-36 0 -58 11q-26 10 -48 32q-17 20 -31 51q-16 42 -7 93l61 347q6 35 21 62q14 29 39 55q24 23 55 39v-1l-1 1q45 24 94 24h33q28 0 55 -8q27 -9 49 -25q14 -13 32 -40q12 -27 12 -58q1 -10 -8.5 -19.5t-20.5 -9.5h-45q-15 0 -19 18q0 20 -9 32q-13 19 -32 25
t-46 6h-4q-27 0 -53 -13q-28 -16 -43 -36q-18 -21 -23 -50l-61 -344q-4 -7 -1.5 -23.5t7.5 -34.5t25.5 -32t52.5 -15h3q33 -1 58 13t38 36t18.5 36.5t8.5 26.5l11 54q1 3 -0.5 5t-4.5 2.5t-5.5 0.5h-7.5h-7q-5 0 -16.5 0.5t-16.5 0.5q-9 0 -14.5 6.5t-3.5 15.5l7 40
q1 10 9.5 17t18.5 7l125 -1q9 0 14 -6t4 -16l-24 -137q-6 -37 -22 -64q-16 -31 -41 -57q-25 -27 -53 -42q-43 -25 -92 -25h-33zM62 -226q-2 0 -8 2l-37 13q-11 3 -5 19l63 123q6 12 19 9l36 -13q8 -4 9.5 -6t-2.5 -14l-60 -122q-7 -11 -15 -11z" />
    <glyph glyph-name="gcommaaccent" unicode="&#x123;" horiz-adv-x="465" 
d="M101 -5q-36 0 -58 11q-26 10 -48 32q-17 20 -31 51q-16 42 -7 93l61 347q6 35 21 62q14 29 39 55q24 23 55 39v-1l-1 1q45 24 94 24h33q28 0 55 -8q27 -9 49 -25q14 -13 32 -40q12 -27 12 -58q1 -10 -8.5 -19.5t-20.5 -9.5h-45q-15 0 -19 18q0 20 -9 32q-13 19 -32 25
t-46 6h-4q-27 0 -53 -13q-28 -16 -43 -36q-18 -21 -23 -50l-61 -344q-4 -7 -1.5 -23.5t7.5 -34.5t25.5 -32t52.5 -15h3q33 -1 58 13t38 36t18.5 36.5t8.5 26.5l11 54q1 3 -0.5 5t-4.5 2.5t-5.5 0.5h-7.5h-7q-5 0 -16.5 0.5t-16.5 0.5q-9 0 -14.5 6.5t-3.5 15.5l7 40
q1 10 9.5 17t18.5 7l125 -1q9 0 14 -6t4 -16l-24 -137q-6 -37 -22 -64q-16 -31 -41 -57q-25 -27 -53 -42q-43 -25 -92 -25h-33zM62 -226q-2 0 -8 2l-37 13q-11 3 -5 19l63 123q6 12 19 9l36 -13q8 -4 9.5 -6t-2.5 -14l-60 -122q-7 -11 -15 -11z" />
    <glyph glyph-name="Imacron" unicode="&#x12a;" horiz-adv-x="315" 
d="M12 -2q-8 0 -12.5 6t-3.5 15l116 660q2 8 9 14.5t15 6.5h49q8 0 13 -6t4 -15l-116 -660q-2 -8 -9 -14.5t-16 -6.5h-49zM40 735q-16 0 -13 17l5 27q3 21 24 21h259q16 0 13 -17l-6 -31q-3 -17 -19 -17h-263z" />
    <glyph glyph-name="imacron" unicode="&#x12b;" horiz-adv-x="315" 
d="M12 -2q-8 0 -12.5 6t-3.5 15l116 660q2 8 9 14.5t15 6.5h49q8 0 13 -6t4 -15l-116 -660q-2 -8 -9 -14.5t-16 -6.5h-49zM40 735q-16 0 -13 17l5 27q3 21 24 21h259q16 0 13 -17l-6 -31q-3 -17 -19 -17h-263z" />
    <glyph glyph-name="Iogonek" unicode="&#x12e;" horiz-adv-x="220" 
d="M-47 -1q-3 0 0 20l116 660q2 8 9 14.5t15 6.5h49q8 0 13 -6t4 -15l-116 -660q-3 -15 -5 -17.5t-10 -2.5h-75zM-53 -189q-37 0 -60.5 25.5t-19.5 63.5l2 14q8 30 30.5 52.5t52.5 32.5h84l-2 -20q-6 -10 -30 -27q-3 -3 -14 -2h-1q-1 0 -7 2t-10 2q-18 0 -34.5 -14
t-21.5 -33q-2 -20 9.5 -33t30.5 -13q11 0 20 4l6 1h-1q5 0 6 -3q8 -11 18 -19q3 -1 1 -9q-2 -9 -8 -13l1 1q-24 -12 -52 -12z" />
    <glyph glyph-name="iogonek" unicode="&#x12f;" horiz-adv-x="220" 
d="M-47 -1q-3 0 0 20l116 660q2 8 9 14.5t15 6.5h49q8 0 13 -6t4 -15l-116 -660q-3 -15 -5 -17.5t-10 -2.5h-75zM-53 -189q-37 0 -60.5 25.5t-19.5 63.5l2 14q8 30 30.5 52.5t52.5 32.5h84l-2 -20q-6 -10 -30 -27q-3 -3 -14 -2h-1q-1 0 -7 2t-10 2q-18 0 -34.5 -14
t-21.5 -33q-2 -20 9.5 -33t30.5 -13q11 0 20 4l6 1h-1q5 0 6 -3q8 -11 18 -19q3 -1 1 -9q-2 -9 -8 -13l1 1q-24 -12 -52 -12z" />
    <glyph glyph-name="Kcommaaccent" unicode="&#x136;" horiz-adv-x="492" 
d="M-36 -1q-9 0 -13.5 6t-2.5 15l117 661q4 20 23 20h43q9 0 14.5 -5.5t4.5 -14.5l-45 -252l213 263q4 9 18 9h73q10 0 8 -11q0 -4 -3 -7l-233 -289q-3 -5 -1 -7l169 -369v-6q-2 -13 -13 -13h-80q-10 0 -14 9l-150 336q-1 1 -2 0l-57 -324q-1 -9 -9 -15t-17 -6h-43zM75 -218
q-2 0 -8 2l-36 13q-12 3 -6 19l64 123q6 12 18 9l36 -13q16 -7 8 -20l-61 -122q-6 -11 -15 -11zM-36 -1q-9 0 -13.5 6t-2.5 15l117 661q4 20 23 20h43q9 0 14.5 -5.5t4.5 -14.5l-45 -252l213 263q4 9 18 9h73q6 0 8 -6.5t-3 -11.5l-233 -289q-3 -5 -1 -7l169 -369v-6
q-4 -13 -13 -13h-80q-10 0 -14 9l-150 336q-1 1 -2 0l-57 -324q-1 -9 -9 -15t-17 -6h-43zM-36 -1q-9 0 -13.5 6t-2.5 15l117 661q4 20 23 20h43q9 0 14.5 -5.5t4.5 -14.5l-45 -252l213 263q4 9 18 9h73q6 0 8 -6.5t-3 -11.5l-233 -289q-3 -5 -1 -7l169 -369v-6
q-4 -13 -13 -13h-80q-10 0 -14 9l-150 336q-1 1 -2 0l-57 -324q-1 -9 -9 -15t-17 -6h-43z" />
    <glyph glyph-name="kcommaaccent" unicode="&#x137;" horiz-adv-x="492" 
d="M-36 -1q-9 0 -13.5 6t-2.5 15l117 661q4 20 23 20h43q9 0 14.5 -5.5t4.5 -14.5l-45 -252l213 263q4 9 18 9h73q10 0 8 -11q0 -4 -3 -7l-233 -289q-3 -5 -1 -7l169 -369v-6q-2 -13 -13 -13h-80q-10 0 -14 9l-150 336q-1 1 -2 0l-57 -324q-1 -9 -9 -15t-17 -6h-43zM75 -218
q-2 0 -8 2l-36 13q-12 3 -6 19l64 123q6 12 18 9l36 -13q16 -7 8 -20l-61 -122q-6 -11 -15 -11zM-36 -1q-9 0 -13.5 6t-2.5 15l117 661q4 20 23 20h43q9 0 14.5 -5.5t4.5 -14.5l-45 -252l213 263q4 9 18 9h73q6 0 8 -6.5t-3 -11.5l-233 -289q-3 -5 -1 -7l169 -369v-6
q-4 -13 -13 -13h-80q-10 0 -14 9l-150 336q-1 1 -2 0l-57 -324q-1 -9 -9 -15t-17 -6h-43zM-36 -1q-9 0 -13.5 6t-2.5 15l117 661q4 20 23 20h43q9 0 14.5 -5.5t4.5 -14.5l-45 -252l213 263q4 9 18 9h73q6 0 8 -6.5t-3 -11.5l-233 -289q-3 -5 -1 -7l169 -369v-6
q-4 -13 -13 -13h-80q-10 0 -14 9l-150 336q-1 1 -2 0l-57 -324q-1 -9 -9 -15t-17 -6h-43z" />
    <glyph glyph-name="Lacute" unicode="&#x139;" horiz-adv-x="376" 
d="M-34 1q-9 0 -14 5.5t-4 14.5l116 657q1 8 9 14.5t16 6.5h46q8 0 13.5 -6.5t3.5 -14.5l-104 -590h177q8 0 13.5 -6.5t3.5 -14.5l-8 -46q-1 -9 -8.5 -14.5t-15.5 -5.5h-244zM128 753l-27 25q-5 4 -5 10q2 5 6 11l99 102q5 5 12 5q3 0 8 -3l26 -25q8 -6 7 -12q0 -4 -7 -10
l-96 -102q-7 -7 -13 -7q-4 0 -10 6z" />
    <glyph glyph-name="lacute" unicode="&#x13a;" horiz-adv-x="376" 
d="M-34 1q-9 0 -14 5.5t-4 14.5l116 657q1 8 9 14.5t16 6.5h46q8 0 13.5 -6.5t3.5 -14.5l-104 -590h177q8 0 13.5 -6.5t3.5 -14.5l-8 -46q-1 -9 -8.5 -14.5t-15.5 -5.5h-244zM151 753l-27 25q-5 4 -5 10q2 5 6 11l99 102q5 5 12 5q4 0 8 -3l26 -25q8 -6 7 -12q0 -4 -7 -10
l-96 -102q-7 -7 -13 -7q-4 0 -10 6z" />
    <glyph glyph-name="Lcommaaccent" unicode="&#x13b;" horiz-adv-x="373" 
d="M-34 1q-9 0 -14 5.5t-4 14.5l116 657q1 8 9 14.5t16 6.5h46q8 0 13.5 -6.5t3.5 -14.5l-104 -590h177q8 0 13.5 -6.5t3.5 -14.5l-8 -46q-1 -9 -8.5 -14.5t-15.5 -5.5h-244zM26 -222q-1 0 -7 2l-37 13q-12 3 -6 19l64 123q6 12 19 9l35 -13q16 -7 8 -20l-61 -122
q-5 -11 -15 -11z" />
    <glyph glyph-name="lcommaaccent" unicode="&#x13c;" horiz-adv-x="373" 
d="M-34 1q-9 0 -14 5.5t-4 14.5l116 657q1 8 9 14.5t16 6.5h46q8 0 13.5 -6.5t3.5 -14.5l-104 -590h177q8 0 13.5 -6.5t3.5 -14.5l-8 -46q-1 -9 -8.5 -14.5t-15.5 -5.5h-244zM26 -222q-1 0 -7 2l-37 13q-12 3 -6 19l64 123q6 12 19 9l35 -13q16 -7 8 -20l-61 -122
q-5 -11 -15 -11z" />
    <glyph glyph-name="Lcaron" unicode="&#x13d;" horiz-adv-x="376" 
d="M-34 1q-9 0 -14 5.5t-4 14.5l116 657q1 8 9 14.5t16 6.5h46q8 0 13.5 -6.5t3.5 -14.5l-104 -590h177q8 0 13.5 -6.5t3.5 -14.5l-8 -46q-1 -9 -8.5 -14.5t-15.5 -5.5h-244zM219 533q-17 0 -14 18l23 133q5 16 20 16h37q6 0 10 -0.5t7.5 -5t2.5 -13.5l-22 -130
q-5 -18 -24 -18h-40z" />
    <glyph glyph-name="lcaron" unicode="&#x13e;" horiz-adv-x="376" 
d="M-34 1q-9 0 -14 5.5t-4 14.5l116 657q1 8 9 14.5t16 6.5h46q8 0 13.5 -6.5t3.5 -14.5l-104 -590h177q8 0 13.5 -6.5t3.5 -14.5l-8 -46q-1 -9 -8.5 -14.5t-15.5 -5.5h-244zM219 533q-17 0 -14 18l23 133q5 16 20 16h37q6 0 10 -0.5t7.5 -5t2.5 -13.5l-22 -130
q-5 -18 -24 -18h-40z" />
    <glyph glyph-name="Lslash" unicode="&#x141;" horiz-adv-x="431" 
d="M21 0q-9 0 -14 5.5t-4 14.5l41 234l-36 -33q-9 -10 -22 -10q-8 0 -15 5l-22 17q-12 9 -9 24q2 10 10 19l117 107l52 294q1 8 9 14.5t16 6.5h46q8 0 13.5 -6.5t3.5 -14.5l-35 -197l38 35q9 9 23 9q9 0 13 -4l23 -15q12 -7 8 -24q-2 -12 -10 -19l-117 -110l-47 -265h177
q8 0 13.5 -6.5t3.5 -14.5l-8 -46q-1 -9 -8 -14.5t-16 -5.5h-244z" />
    <glyph glyph-name="lslash" unicode="&#x142;" horiz-adv-x="431" 
d="M21 0q-9 0 -14 5.5t-4 14.5l41 234l-36 -33q-9 -10 -22 -10q-8 0 -15 5l-22 17q-12 9 -9 24q2 10 10 19l117 107l52 294q1 8 9 14.5t16 6.5h46q8 0 13.5 -6.5t3.5 -14.5l-35 -197l38 35q9 9 23 9q9 0 13 -4l23 -15q12 -7 8 -24q-2 -12 -10 -19l-117 -110l-47 -265h177
q8 0 13.5 -6.5t3.5 -14.5l-8 -46q-1 -9 -8 -14.5t-16 -5.5h-244z" />
    <glyph glyph-name="Nacute" unicode="&#x143;" horiz-adv-x="544" 
d="M-35 1q-8 0 -13.5 6.5t-3.5 14.5l116 656q2 8 9 14.5t15 6.5h104v1l1 -1v-1h4q17 0 19 -14l93 -544l85 532q2 9 11 18t17 9h49q8 0 13 -6.5t4 -14.5l-115 -655q-2 -8 -9.5 -14.5t-15.5 -6.5h-90q-14 0 -19 15l-110 574l-91 -569q-2 -8 -9 -14.5t-16 -6.5h-48zM293 729
l-28 25q-5 5 -4 10q2 5 6 11l99 102q5 5 11 5q5 0 8 -3l27 -25q8 -8 7 -12q0 -4 -7 -10l-96 -102q-7 -7 -13 -7q-4 0 -10 6z" />
    <glyph glyph-name="nacute" unicode="&#x144;" horiz-adv-x="544" 
d="M-35 1q-8 0 -13.5 6.5t-3.5 14.5l116 656q2 8 9 14.5t15 6.5h104v1l1 -1v-1h4q17 0 19 -14l93 -544l85 532q2 9 11 18t17 9h49q8 0 13 -6.5t4 -14.5l-115 -655q-2 -8 -9.5 -14.5t-15.5 -6.5h-90q-14 0 -19 15l-110 574l-91 -569q-2 -8 -9 -14.5t-16 -6.5h-48zM297 753
l-27 25q-5 4 -5 10q2 5 6 11l99 102q5 5 12 5q4 0 8 -3l26 -25q8 -6 7 -12q0 -4 -7 -10l-96 -102q-7 -7 -13 -7q-4 0 -10 6z" />
    <glyph glyph-name="Ncommaaccent" unicode="&#x145;" horiz-adv-x="544" 
d="M-35 1q-8 0 -13.5 6.5t-3.5 14.5l116 656q2 8 9 14.5t15 6.5h104v1l1 -1v-1h4q17 0 19 -14l93 -544l85 532q2 9 11 18t17 9h49q8 0 13 -6.5t4 -14.5l-115 -655q-2 -8 -9.5 -14.5t-15.5 -6.5h-90q-14 0 -19 15l-110 574l-91 -569q-2 -8 -9 -14.5t-16 -6.5h-48zM95 -218
q-2 0 -8 2l-36 13q-12 3 -6 19l64 123q6 12 18 9l36 -13q16 -7 8 -20l-61 -122q-6 -11 -15 -11z" />
    <glyph glyph-name="ncommaaccent" unicode="&#x146;" horiz-adv-x="544" 
d="M-35 1q-8 0 -13.5 6.5t-3.5 14.5l116 656q2 8 9 14.5t15 6.5h104v1l1 -1v-1h4q17 0 19 -14l93 -544l85 532q2 9 11 18t17 9h49q8 0 13 -6.5t4 -14.5l-115 -655q-2 -8 -9.5 -14.5t-15.5 -6.5h-90q-14 0 -19 15l-110 574l-91 -569q-2 -8 -9 -14.5t-16 -6.5h-48zM95 -218
q-2 0 -8 2l-36 13q-12 3 -6 19l64 123q6 12 18 9l36 -13q16 -7 8 -20l-61 -122q-6 -11 -15 -11z" />
    <glyph glyph-name="Ncaron" unicode="&#x147;" horiz-adv-x="544" 
d="M-35 1q-8 0 -13.5 6.5t-3.5 14.5l116 656q2 8 9 14.5t15 6.5h104v1l1 -1v-1h4q17 0 19 -14l93 -544l85 532q2 9 11 18t17 9h49q8 0 13 -6.5t4 -14.5l-115 -655q-2 -8 -9.5 -14.5t-15.5 -6.5h-90q-14 0 -19 15l-110 574l-91 -569q-2 -8 -9 -14.5t-16 -6.5h-48zM308 732
q-8 0 -17 8l-72 86q-3 6 -2 10q0 5 4 9l25 21l7 3q1 0 2 0.5t2 0.5q6 0 16 -12l45 -56l63 56q15 12 21 12l8 -4l16 -21q5 -4 4 -9q-1 -4 -11 -14v1l-1 -1l-91 -81q-9 -9 -19 -9z" />
    <glyph glyph-name="ncaron" unicode="&#x148;" horiz-adv-x="544" 
d="M-35 1q-8 0 -13.5 6.5t-3.5 14.5l116 656q2 8 9 14.5t15 6.5h104v1l1 -1v-1h4q17 0 19 -14l93 -544l85 532q2 9 11 18t17 9h49q8 0 13 -6.5t4 -14.5l-115 -655q-2 -8 -9.5 -14.5t-15.5 -6.5h-90q-14 0 -19 15l-110 574l-91 -569q-2 -8 -9 -14.5t-16 -6.5h-48zM308 732
q-8 0 -17 8l-72 86q-3 6 -2 10q0 5 4 9l25 21l7 3q1 0 2 0.5t2 0.5q6 0 16 -12l45 -56l63 56q15 12 21 12l8 -4l16 -21q5 -4 4 -9q-1 -4 -11 -14v1l-1 -1l-91 -81q-9 -9 -19 -9z" />
    <glyph glyph-name="Eng" unicode="&#x14a;" horiz-adv-x="600" 
d="M362 -10q-2 0 -6.5 6t-7.5 6h-90q-14 0 -19 15l-110 574l-91 -569q-2 -8 -9 -14.5t-16 -6.5h-48q-8 0 -13.5 6.5t-3.5 14.5l116 656q2 8 9 14.5t15 6.5h104v1l1 -1v-1h4q17 0 19 -14l93 -544l85 532q2 9 11 18t17 9h49q8 0 13 -6.5t4 -14.5l-115 -655q-6 -33 -11 -33z
M275 -186q-27 0 -47 12h1q-6 3 -5 12q1 7 6 10t24 18q3 3 6 3h-1l6 -1q9 -4 19 -4q19 0 34.5 12.5t19.5 31.5q6 20 -3.5 34.5t-28.5 14.5q-4 0 -13 -2t-11 -2h-1q-10 -1 -20 8t-14 21l-8 35l130 -15q20 -18 23 -38t-3 -47l-2 -13q-9 -38 -41.5 -64t-70.5 -26z" />
    <glyph glyph-name="eng" unicode="&#x14b;" horiz-adv-x="600" 
d="M362 -10q-2 0 -6.5 6t-7.5 6h-90q-14 0 -19 15l-110 574l-91 -569q-2 -8 -9 -14.5t-16 -6.5h-48q-8 0 -13.5 6.5t-3.5 14.5l116 656q2 8 9 14.5t15 6.5h104v1l1 -1v-1h4q17 0 19 -14l93 -544l85 532q2 9 11 18t17 9h49q8 0 13 -6.5t4 -14.5l-115 -655q-6 -33 -11 -33z
M275 -186q-27 0 -47 12h1q-6 3 -5 12q1 7 6 10t24 18q3 3 6 3h-1l6 -1q9 -4 19 -4q19 0 34.5 12.5t19.5 31.5q6 20 -3.5 34.5t-28.5 14.5q-4 0 -13 -2t-11 -2h-1q-10 -1 -20 8t-14 21l-8 35l130 -15q20 -18 23 -38t-3 -47l-2 -13q-9 -38 -41.5 -64t-70.5 -26z" />
    <glyph glyph-name="Omacron" unicode="&#x14c;" 
d="M118 -10q-23 0 -45 4.5t-33 9.5l-10 5q-4 1 -9.5 4t-20 15.5t-25 29.5t-17 48.5t-2.5 70.5l62 353q5 27 21 61q21 36 41 55q20 22 51 38q24 13 46 19q19 6 46 6h35q31 0 55 -11q28 -9 48 -32q22 -18 30 -45q18 -40 9 -91l-63 -356h-2l1 4h2q-17 -87 -92 -144
q-58 -44 -128 -44zM129 84h4q29 0 57 15q27 18 45 39q17 24 21 53l59 333q4 22 -5 51q-11 23 -31 38q-22 13 -51 13h-4q-26 0 -54 -13q-30 -16 -46 -37q-18 -25 -23 -52l-57 -333q-5 -28 5 -52q9 -23 30 -40q23 -15 50 -15zM117 742q-16 0 -13 17l5 27q3 21 24 21h259
q16 0 13 -17l-6 -31q-2 -17 -19 -17h-263z" />
    <glyph glyph-name="omacron" unicode="&#x14d;" 
d="M118 -10q-23 0 -45 4.5t-33 9.5l-10 5q-4 1 -9.5 4t-20 15.5t-25 29.5t-17 48.5t-2.5 70.5l62 353q5 27 21 61q21 36 41 55q20 22 51 38q24 13 46 19q19 6 46 6h35q31 0 55 -11q28 -9 48 -32q22 -18 30 -45q18 -40 9 -91l-63 -356h-2l1 4h2q-17 -87 -92 -144
q-58 -44 -128 -44zM129 84h4q29 0 57 15q27 18 45 39q17 24 21 53l59 333q4 22 -5 51q-11 23 -31 38q-22 13 -51 13h-4q-26 0 -54 -13q-30 -16 -46 -37q-18 -25 -23 -52l-57 -333q-5 -28 5 -52q9 -23 30 -40q23 -15 50 -15zM120 743q-17 0 -13 17l4 27q5 21 24 21h259
q16 0 13 -17l-5 -31q-3 -17 -19 -17h-263z" />
    <glyph glyph-name="Ohungarumlaut" unicode="&#x150;" 
d="M118 -10q-23 0 -45 4.5t-33 9.5l-10 5q-4 1 -9.5 4t-20 15.5t-25 29.5t-17 48.5t-2.5 70.5l62 353q5 27 21 61q21 36 41 55q20 22 51 38q24 13 46 19q19 6 46 6h35q31 0 55 -11q28 -9 48 -32q22 -18 30 -45q18 -40 9 -91l-63 -356h-2l1 4h2q-17 -87 -92 -144
q-58 -44 -128 -44zM129 84h4q29 0 57 15q27 18 45 39q17 24 21 53l59 333q4 22 -5 51q-11 23 -31 38q-22 13 -51 13h-4q-26 0 -54 -13q-30 -16 -46 -37q-18 -25 -23 -52l-57 -333q-5 -28 5 -52q9 -23 30 -40q23 -15 50 -15zM178 736q-6 0 -9 4t0 11q0 1 41 79q6 12 12 17.5
t9 6t11 0.5h23q7 0 10 -2t2 -7q0 -4 -5 -12q-21 -43 -40 -75q-7 -14 -13 -18t-18 -4h-23zM273 734q-6 0 -9 4t0 11q5 11 41 79q6 12 12 17.5t9 6t11 0.5h23q7 0 10 -2t2 -7q-2 -6 -5 -11q-7 -14 -21.5 -40.5t-18.5 -34.5q-8 -15 -13.5 -19t-17.5 -4h-23z" />
    <glyph glyph-name="ohungarumlaut" unicode="&#x151;" 
d="M118 -10q-23 0 -45 4.5t-33 9.5l-10 5q-4 1 -9.5 4t-20 15.5t-25 29.5t-17 48.5t-2.5 70.5l62 353q5 27 21 61q21 36 41 55q20 22 51 38q24 13 46 19q19 6 46 6h35q31 0 55 -11q28 -9 48 -32q22 -18 30 -45q18 -40 9 -91l-63 -356h-2l1 4h2q-17 -87 -92 -144
q-58 -44 -128 -44zM129 84h4q29 0 57 15q27 18 45 39q17 24 21 53l59 333q4 22 -5 51q-11 23 -31 38q-22 13 -51 13h-4q-26 0 -54 -13q-30 -16 -46 -37q-18 -25 -23 -52l-57 -333q-5 -28 5 -52q9 -23 30 -40q23 -15 50 -15zM179 734q-6 0 -9 4t0 11q5 11 41 79q6 12 12 17.5
t9 6t11 0.5h23q7 0 10 -2t2 -7q-3 -8 -5 -12q-5 -10 -40 -75q-8 -15 -13.5 -18.5t-17.5 -3.5h-23zM274 732q-15 0 -10 15q0 1 41 79q6 12 12.5 17.5t9 6t10.5 0.5h23q7 0 10.5 -2t2.5 -7q-1 -1 -2.5 -4.5t-2.5 -6.5q-6 -12 -19.5 -37t-20.5 -38q-8 -15 -13.5 -19t-17.5 -4
h-23z" />
    <glyph glyph-name="OE" unicode="&#x152;" horiz-adv-x="677" 
d="M127 -5v1q-25 -1 -49.5 3.5t-36.5 9.5l-12 5q-3 1 -9 4t-20 15t-24 28.5t-16.5 47.5t-2.5 69l61 346q4 25 21 61q17 30 40 52q19 21 49 38q26 13 45 18q19 6 45 6h45h371q8 0 13 -6t3 -14l-8 -48q-2 -8 -9 -14.5t-15 -6.5h-208l-35 -197h168q9 0 13.5 -6.5t2.5 -15.5
l-7 -40q-3 -21 -23 -21h-168l-42 -235h208q8 0 13 -5.5t4 -13.5l-7 -37l-1 -9q-1 -8 -2 -11.5t-3.5 -10t-6.5 -9.5t-10 -3h-386v-1h-1zM125 94h4q23 0 53 13q26 14 40 38q15 23 19 51l55 314q4 18 -3 48q-9 23 -27 36q-19 13 -47 13h-4q-23 0 -49 -13q-22 -10 -43 -36
q-15 -22 -21 -48l-54 -314q-4 -25 4 -50q10 -26 28 -39q24 -13 45 -13z" />
    <glyph glyph-name="oe" unicode="&#x153;" horiz-adv-x="677" 
d="M127 -5v1q-25 -1 -49.5 3.5t-36.5 9.5l-12 5q-3 1 -9 4t-20 15t-24 28.5t-16.5 47.5t-2.5 69l61 346q4 25 21 61q17 30 40 52q19 21 49 38q26 13 45 18q19 6 45 6h45h371q8 0 13 -6t3 -14l-8 -48q-2 -8 -9 -14.5t-15 -6.5h-208l-35 -197h168q9 0 13.5 -6.5t2.5 -15.5
l-7 -40q-3 -21 -23 -21h-168l-42 -235h208q8 0 13 -5.5t4 -13.5l-7 -37l-1 -9q-1 -8 -2 -11.5t-3.5 -10t-6.5 -9.5t-10 -3h-386v-1h-1zM125 94h4q23 0 53 13q26 14 40 38q15 23 19 51l55 314q4 18 -3 48q-9 23 -27 36q-19 13 -47 13h-4q-23 0 -49 -13q-22 -10 -43 -36
q-15 -22 -21 -48l-54 -314q-4 -25 4 -50q10 -26 28 -39q24 -13 45 -13z" />
    <glyph glyph-name="Racute" unicode="&#x154;" horiz-adv-x="468" 
d="M-27 -3q-13 0 -19.5 9t-4.5 21l113 637q2 14 14.5 25t26.5 11h50q119 3 170 -10q3 -1 7.5 -3t16.5 -11t20.5 -20t14.5 -31.5t4 -45.5l-19 -130q-2 -10 -5 -19q-26 -81 -93 -106l-4 -2l51 -294q1 -11 -7 -20t-19 -9h-39q-21 0 -26 20l-45 267q-4 14 -17 14h-19h-24.5
h-22.5q-14 0 -16 -12l-46 -261q-2 -12 -12 -21t-22 -9h-28zM136 391q30 0 54 2.5t33 5.5l9 3q21 7 34.5 24.5t17.5 31.5l3 14l12 82q1 22 -9 37.5t-21 20.5l-11 5q-24 5 -71 5h-28l-15 -1l-38 -229q6 0 16 -0.5t14 -0.5zM223 742l-27 25q-5 4 -5 10q2 5 6 11l99 102
q5 5 12 5q4 0 8 -3l26 -25q8 -6 7 -12q0 -4 -7 -10l-95 -102q-8 -7 -14 -7q-4 0 -10 6z" />
    <glyph glyph-name="racute" unicode="&#x155;" horiz-adv-x="468" 
d="M-27 -3q-13 0 -19.5 9t-4.5 21l113 637q2 14 14.5 25t26.5 11h50q119 3 170 -10q3 -1 7.5 -3t16.5 -11t20.5 -20t14.5 -31.5t4 -45.5l-19 -130q-2 -10 -5 -19q-26 -81 -93 -106l-4 -2l51 -294q1 -11 -7 -20t-19 -9h-39q-21 0 -26 20l-45 267q-4 14 -17 14h-19h-24.5
h-22.5q-14 0 -16 -12l-46 -261q-2 -12 -12 -21t-22 -9h-28zM136 391q30 0 54 2.5t33 5.5l9 3q21 7 34.5 24.5t17.5 31.5l3 14l12 82q1 22 -9 37.5t-21 20.5l-11 5q-24 5 -71 5h-28l-15 -1l-38 -229q6 0 16 -0.5t14 -0.5zM227 742l-27 25q-5 4 -5 10q2 5 6 11l99 102
q5 5 12 5q4 0 8 -3l26 -25q8 -6 7 -12q0 -4 -7 -10l-95 -102q-8 -7 -14 -7q-4 0 -10 6z" />
    <glyph glyph-name="Rcommaaccent" unicode="&#x156;" horiz-adv-x="468" 
d="M-27 -3q-13 0 -19.5 9t-4.5 21l113 637q2 14 14.5 25t26.5 11h50q119 3 170 -10q3 -1 7.5 -3t16.5 -11t20.5 -20t14.5 -31.5t4 -45.5l-19 -130q-2 -10 -5 -19q-26 -81 -93 -106l-4 -2l51 -294q1 -11 -7 -20t-19 -9h-39q-21 0 -26 20l-45 267q-4 14 -17 14h-19h-24.5
h-22.5q-14 0 -16 -12l-46 -261q-2 -12 -12 -21t-22 -9h-28zM75 -200q-3 0 -7 2l-37 13q-12 3 -6 19l64 123q6 12 19 9l35 -13q16 -7 8 -20l-61 -122q-6 -11 -15 -11zM136 391q30 0 54 2.5t33 5.5l9 3q21 7 34.5 24.5t17.5 31.5l3 14l12 82q1 22 -9 37.5t-21 20.5l-11 5
q-24 5 -71 5h-28l-15 -1l-38 -229q6 0 16 -0.5t14 -0.5z" />
    <glyph glyph-name="rcommaaccent" unicode="&#x157;" horiz-adv-x="468" 
d="M-27 -3q-13 0 -19.5 9t-4.5 21l113 637q2 14 14.5 25t26.5 11h50q119 3 170 -10q3 -1 7.5 -3t16.5 -11t20.5 -20t14.5 -31.5t4 -45.5l-19 -130q-2 -10 -5 -19q-26 -81 -93 -106l-4 -2l51 -294q1 -11 -7 -20t-19 -9h-39q-21 0 -26 20l-45 267q-4 14 -17 14h-19h-24.5
h-22.5q-14 0 -16 -12l-46 -261q-2 -12 -12 -21t-22 -9h-28zM75 -200q-3 0 -7 2l-37 13q-12 3 -6 19l64 123q6 12 19 9l35 -13q16 -7 8 -20l-61 -122q-6 -11 -15 -11zM136 391q30 0 54 2.5t33 5.5l9 3q21 7 34.5 24.5t17.5 31.5l3 14l12 82q1 22 -9 37.5t-21 20.5l-11 5
q-24 5 -71 5h-28l-15 -1l-38 -229q6 0 16 -0.5t14 -0.5z" />
    <glyph glyph-name="Rcaron" unicode="&#x158;" horiz-adv-x="468" 
d="M-27 -3q-13 0 -19.5 9t-4.5 21l113 637q2 14 14.5 25t26.5 11h50q119 3 170 -10q3 -1 7.5 -3t16.5 -11t20.5 -20t14.5 -31.5t4 -45.5l-19 -130q-2 -10 -5 -19q-26 -81 -93 -106l-4 -2l51 -294q1 -11 -7 -20t-19 -9h-39q-21 0 -26 20l-45 267q-4 14 -17 14h-19h-24.5
h-22.5q-14 0 -16 -12l-46 -261q-2 -12 -12 -21t-22 -9h-28zM136 391q30 0 54 2.5t33 5.5l9 3q21 7 34.5 24.5t17.5 31.5l3 14l12 82q1 22 -9 37.5t-21 20.5l-11 5q-24 5 -71 5h-28l-15 -1l-38 -229q6 0 16 -0.5t14 -0.5zM225 735q-8 0 -16 8l-72 86q-3 4 -3 10q2 6 5 9
l25 21l6 3q1 0 2.5 0.5t2.5 0.5q8 0 15 -12l45 -56l63 56q17 12 21 12l9 -4l16 -21q4 -3 3 -9q0 -4 -10 -14l-1 1v-1l-91 -81q-12 -9 -20 -9z" />
    <glyph glyph-name="rcaron" unicode="&#x159;" horiz-adv-x="468" 
d="M-27 -3q-13 0 -19.5 9t-4.5 21l113 637q2 14 14.5 25t26.5 11h50q119 3 170 -10q3 -1 7.5 -3t16.5 -11t20.5 -20t14.5 -31.5t4 -45.5l-19 -130q-2 -10 -5 -19q-26 -81 -93 -106l-4 -2l51 -294q1 -11 -7 -20t-19 -9h-39q-21 0 -26 20l-45 267q-4 14 -17 14h-19h-24.5
h-22.5q-14 0 -16 -12l-46 -261q-2 -12 -12 -21t-22 -9h-28zM136 391q30 0 54 2.5t33 5.5l9 3q21 7 34.5 24.5t17.5 31.5l3 14l12 82q1 22 -9 37.5t-21 20.5l-11 5q-24 5 -71 5h-28l-15 -1l-38 -229q6 0 16 -0.5t14 -0.5zM237 734q-8 0 -17 8l-71 86q-3 4 -3 10q2 7 5 9
l25 21l6 3q1 0 2 1h2q9 0 16 -12l45 -56l63 56q15 12 21 12l9 -4l16 -21q4 -4 3 -9q0 -4 -10 -14l-1 1v-1l-91 -81q-12 -9 -20 -9z" />
    <glyph glyph-name="Sacute" unicode="&#x15a;" horiz-adv-x="429" 
d="M87 -7q-23 0 -45 5q-39 10 -63 33.5t-30 48.5t-8 50.5t3 39.5q4 18 21 18h55q6 0 10 -4.5t3 -11.5q-2 -33 7 -54t26.5 -28t26.5 -8.5t18 -1.5h1l-1 1l-1 -2h1q0 2 2 2v-1q31 1 54 14.5t35.5 34t19 37t9.5 34.5q0 3 0.5 7t1 6t0.5 3l2 13l-1 1v-1q6 34 -2 56t-28.5 31
t-36 11.5t-39.5 3.5q-46 1 -75.5 18.5t-38.5 44t-12 57t4 57.5l18 65q15 41 40.5 69.5t54 41t50 17t42.5 4.5q5 0 10 -0.5t8 -0.5h4l-1 1l-2 -2h1q0 2 2 2v-1q38 -3 64 -17t38 -33t17 -42.5t4.5 -41t-3.5 -33.5q-4 -18 -19 -18h-43q-6 0 -10 4.5t-3 11.5q11 90 -70 90
q-9 0 -33 -3q-41 -5 -62 -36.5t-27 -68.5l-3 -26q0 -26 7 -42.5t21.5 -23.5t24.5 -9.5t30 -2.5t25 -1q157 -15 128 -189q-8 -43 -35 -109q-33 -65 -87 -93t-110 -28zM217 748l-27 25q-5 4 -5 10q2 6 7 11l98 102q5 5 12 5q4 0 8 -3l26 -25q8 -6 7 -12q0 -4 -6 -10l-96 -102
q-7 -7 -13 -7q-5 0 -11 6z" />
    <glyph glyph-name="sacute" unicode="&#x15b;" horiz-adv-x="429" 
d="M87 -7q-23 0 -45 5q-39 10 -63 33.5t-30 48.5t-8 50.5t3 39.5q4 18 21 18h55q6 0 10 -4.5t3 -11.5q-2 -33 7 -54t26.5 -28t26.5 -8.5t18 -1.5h1l-1 1l-1 -2h1q0 2 2 2v-1q31 1 54 14.5t35.5 34t19 37t9.5 34.5q0 3 0.5 7t1 6t0.5 3l2 13l-1 1v-1q6 34 -2 56t-28.5 31
t-36 11.5t-39.5 3.5q-46 1 -75.5 18.5t-38.5 44t-12 57t4 57.5l18 65q15 41 40.5 69.5t54 41t50 17t42.5 4.5q5 0 10 -0.5t8 -0.5h4l-1 1l-2 -2h1q0 2 2 2v-1q38 -3 64 -17t38 -33t17 -42.5t4.5 -41t-3.5 -33.5q-4 -18 -19 -18h-43q-6 0 -10 4.5t-3 11.5q11 90 -70 90
q-9 0 -33 -3q-41 -5 -62 -36.5t-27 -68.5l-3 -26q0 -26 7 -42.5t21.5 -23.5t24.5 -9.5t30 -2.5t25 -1q157 -15 128 -189q-8 -43 -35 -109q-33 -65 -87 -93t-110 -28zM209 739l-28 25q-5 4 -4 10q0 5 6 11l99 102q5 5 11 5q5 0 8 -3l27 -25q8 -8 7 -12q-1 -5 -7 -10l-96 -102
q-7 -7 -13 -7t-10 6z" />
    <glyph glyph-name="Scedilla" unicode="&#x15e;" horiz-adv-x="429" 
d="M87 -7q-23 0 -45 5q-39 10 -63 33.5t-30 48.5t-8 50.5t3 39.5q4 18 21 18h55q6 0 10 -4.5t3 -11.5q-2 -33 7 -54t26.5 -28t26.5 -8.5t18 -1.5h1l-1 1l-1 -2h1q0 2 2 2v-1q31 1 54 14.5t35.5 34t19 37t9.5 34.5q0 3 0.5 7t1 6t0.5 3l2 13l-1 1v-1q6 34 -2 56t-28.5 31
t-36 11.5t-39.5 3.5q-46 1 -75.5 18.5t-38.5 44t-12 57t4 57.5l18 65q15 41 40.5 69.5t54 41t50 17t42.5 4.5q5 0 10 -0.5t8 -0.5h4l-1 1l-2 -2h1q0 2 2 2v-1q38 -3 64 -17t38 -33t17 -42.5t4.5 -41t-3.5 -33.5q-4 -18 -19 -18h-43q-6 0 -10 4.5t-3 11.5q11 90 -70 90
q-9 0 -33 -3q-41 -5 -62 -36.5t-27 -68.5l-3 -26q0 -26 7 -42.5t21.5 -23.5t24.5 -9.5t30 -2.5t25 -1q157 -15 128 -189q-8 -43 -35 -109q-33 -65 -87 -93t-110 -28zM74 -203q-28 0 -42 13q-5 4 -4 10t11.5 15.5t14.5 11.5l1 1q5 4 15 2q10 -4 13 -4q15 0 29 11.5t16 26.5
q2 13 -7.5 23t-24.5 10q-2 0 -7 -0.5t-8 -0.5v2v-2h-3q-6 0 -9 1.5t-7.5 7.5t-8.5 9l1 1l-1 -1q-5 4 -4 10l15 88h4q0 -3 -4 -3v4h71l-12 -68q27 -5 42 -26t12 -50l-2 -12q-8 -34 -37 -57t-64 -23z" />
    <glyph glyph-name="scedilla" unicode="&#x15f;" horiz-adv-x="429" 
d="M87 -7q-23 0 -45 5q-39 10 -63 33.5t-30 48.5t-8 50.5t3 39.5q4 18 21 18h55q6 0 10 -4.5t3 -11.5q-2 -33 7 -54t26.5 -28t26.5 -8.5t18 -1.5h1l-1 1l-1 -2h1q0 2 2 2v-1q31 1 54 14.5t35.5 34t19 37t9.5 34.5q0 3 0.5 7t1 6t0.5 3l2 13l-1 1v-1q6 34 -2 56t-28.5 31
t-36 11.5t-39.5 3.5q-46 1 -75.5 18.5t-38.5 44t-12 57t4 57.5l18 65q15 41 40.5 69.5t54 41t50 17t42.5 4.5q5 0 10 -0.5t8 -0.5h4l-1 1l-2 -2h1q0 2 2 2v-1q38 -3 64 -17t38 -33t17 -42.5t4.5 -41t-3.5 -33.5q-4 -18 -19 -18h-43q-6 0 -10 4.5t-3 11.5q11 90 -70 90
q-9 0 -33 -3q-41 -5 -62 -36.5t-27 -68.5l-3 -26q0 -26 7 -42.5t21.5 -23.5t24.5 -9.5t30 -2.5t25 -1q157 -15 128 -189q-8 -43 -35 -109q-33 -65 -87 -93t-110 -28zM72 -206q-26 0 -42 13q-5 5 -4 10q1 3 3.5 6.5t6 7t7 6.5t6.5 5l3 2l1 1q6 4 16 2q8 -4 13 -4
q15 0 28.5 11.5t16.5 26.5q2 13 -8 23t-25 10q-2 0 -7 -0.5t-8 -0.5l1 2l-1 -2h-3q-6 0 -9 1.5t-7.5 7.5t-8.5 9l2 1l-2 -1q-5 5 -4 10l16 88h4q-1 -3 -5 -3l1 4h71l-12 -68q27 -5 41.5 -26t11.5 -50l-2 -12q-8 -34 -37 -57t-64 -23z" />
    <glyph glyph-name="Scaron" unicode="&#x160;" horiz-adv-x="429" 
d="M87 -7q-23 0 -45 5q-39 10 -63 33.5t-30 48.5t-8 50.5t3 39.5q4 18 21 18h55q6 0 10 -4.5t3 -11.5q-2 -33 7 -54t26.5 -28t26.5 -8.5t18 -1.5h1l-1 1l-1 -2h1q0 2 2 2v-1q31 1 54 14.5t35.5 34t19 37t9.5 34.5q0 3 0.5 7t1 6t0.5 3l2 13l-1 1v-1q6 34 -2 56t-28.5 31
t-36 11.5t-39.5 3.5q-46 1 -75.5 18.5t-38.5 44t-12 57t4 57.5l18 65q15 41 40.5 69.5t54 41t50 17t42.5 4.5q5 0 10 -0.5t8 -0.5h4l-1 1l-2 -2h1q0 2 2 2v-1q38 -3 64 -17t38 -33t17 -42.5t4.5 -41t-3.5 -33.5q-4 -18 -19 -18h-43q-6 0 -10 4.5t-3 11.5q11 90 -70 90
q-9 0 -33 -3q-41 -5 -62 -36.5t-27 -68.5l-3 -26q0 -26 7 -42.5t21.5 -23.5t24.5 -9.5t30 -2.5t25 -1q157 -15 128 -189q-8 -43 -35 -109q-33 -65 -87 -93t-110 -28zM222 733q-8 0 -17 8l-72 86q-3 6 -2 10q2 7 5 9l24 21l7 3q1 0 2 0.5t2 0.5q9 0 16 -12l45 -56l63 56
q15 12 21 12l8 -4l17 -21q4 -4 3 -9t-10 -14l-1 1v-1l-92 -81q-9 -9 -19 -9z" />
    <glyph glyph-name="scaron" unicode="&#x161;" horiz-adv-x="429" 
d="M87 -7q-23 0 -45 5q-39 10 -63 33.5t-30 48.5t-8 50.5t3 39.5q4 18 21 18h55q6 0 10 -4.5t3 -11.5q-2 -33 7 -54t26.5 -28t26.5 -8.5t18 -1.5h1l-1 1l-1 -2h1q0 2 2 2v-1q31 1 54 14.5t35.5 34t19 37t9.5 34.5q0 3 0.5 7t1 6t0.5 3l2 13l-1 1v-1q6 34 -2 56t-28.5 31
t-36 11.5t-39.5 3.5q-46 1 -75.5 18.5t-38.5 44t-12 57t4 57.5l18 65q15 41 40.5 69.5t54 41t50 17t42.5 4.5q5 0 10 -0.5t8 -0.5h4l-1 1l-2 -2h1q0 2 2 2v-1q38 -3 64 -17t38 -33t17 -42.5t4.5 -41t-3.5 -33.5q-4 -18 -19 -18h-43q-6 0 -10 4.5t-3 11.5q11 90 -70 90
q-9 0 -33 -3q-41 -5 -62 -36.5t-27 -68.5l-3 -26q0 -26 7 -42.5t21.5 -23.5t24.5 -9.5t30 -2.5t25 -1q157 -15 128 -189q-8 -43 -35 -109q-33 -65 -87 -93t-110 -28zM218 737q-7 0 -16 8l-72 86q-3 6 -2 10q0 5 4 9l25 21l7 3h2l2 1q6 0 16 -12l45 -56l63 56q15 12 21 12
l8 -4l16 -21q4 -3 4 -9q-1 -4 -11 -14v1l-1 -1l-91 -81q-9 -9 -20 -9z" />
    <glyph glyph-name="uni0162" unicode="&#x162;" horiz-adv-x="355" 
d="M46 -188q-27 0 -41 13q-5 3 -5 10q1 3 3.5 6.5t6 7t7 6.5t6.5 5l3 2l1 1q6 4 16 2q8 -4 13 -4q15 0 28.5 11.5t16.5 26.5q2 13 -7.5 23t-24.5 10q-2 0 -7.5 -0.5t-8.5 -0.5h-3q-6 0 -9 2t-7 7t-8 9q-6 5 -5 10l8 43q-11 5 -9 17l104 593h-92q-8 0 -13 5.5t-3 13.5l9 50
q1 7 8 13t15 6h275q8 0 13 -5.5t4 -13.5l-9 -50q-2 -8 -9 -13.5t-15 -5.5h-92l-104 -593q-2 -10 -11 -16l-4 -23q27 -5 41.5 -26t12.5 -50l-3 -12q-8 -34 -37 -57t-64 -23z" />
    <glyph glyph-name="uni0163" unicode="&#x163;" horiz-adv-x="355" 
d="M46 -188q-27 0 -41 13q-5 3 -5 10q1 3 3.5 6.5t6 7t7 6.5t6.5 5l3 2l1 1q6 4 16 2q8 -4 13 -4q15 0 28.5 11.5t16.5 26.5q2 13 -7.5 23t-24.5 10q-2 0 -7.5 -0.5t-8.5 -0.5h-3q-6 0 -9 2t-7 7t-8 9q-6 5 -5 10l8 43q-11 5 -9 17l104 593h-92q-8 0 -13 5.5t-3 13.5l9 50
q1 7 8 13t15 6h275q8 0 13 -5.5t4 -13.5l-9 -50q-2 -8 -9 -13.5t-15 -5.5h-92l-104 -593q-2 -10 -11 -16l-4 -23q27 -5 41.5 -26t12.5 -50l-3 -12q-8 -34 -37 -57t-64 -23z" />
    <glyph glyph-name="Tcaron" unicode="&#x164;" horiz-adv-x="355" 
d="M35 -1q-7 0 -12 5.5t-3 13.5l116 662q1 7 8 13t15 6h53q7 0 12 -5.5t3 -13.5l-116 -662q-1 -7 -8 -13t-15 -6h-53zM32 611q-8 0 -13 5.5t-3 13.5l8 50q2 8 9 13.5t15 5.5h275q8 0 13 -5.5t3 -13.5l-8 -50q-2 -8 -9 -13.5t-15 -5.5h-275zM198 734q-8 0 -17 8l-71 86
q-3 4 -3 10q2 7 5 9l25 21l6 3q1 0 3 1h1q9 0 16 -12l45 -56l63 56q15 12 21 12l9 -4l16 -21q4 -4 3 -9q0 -4 -10 -14l-1 1v-1l-91 -81q-12 -9 -20 -9z" />
    <glyph glyph-name="tcaron" unicode="&#x165;" horiz-adv-x="477" 
d="M35 -1q-7 0 -12 5.5t-3 13.5l116 662q1 7 8 13t15 6h53q7 0 12 -5.5t3 -13.5l-116 -662q-1 -7 -8 -13t-15 -6h-53zM32 611q-8 0 -13 5.5t-3 13.5l8 50q2 8 9 13.5t15 5.5h275q8 0 13 -5.5t3 -13.5l-8 -50q-2 -8 -9 -13.5t-15 -5.5h-275zM376 534q-16 0 -15 18l23 133
q5 16 20 16h37q6 0 10 -0.5t7.5 -5t2.5 -13.5l-22 -130q-5 -18 -23 -18h-40z" />
    <glyph glyph-name="Tbar" unicode="&#x166;" horiz-adv-x="355" 
d="M35 -1q-7 0 -12 5.5t-3 13.5l116 662q1 7 8 13t15 6h53q7 0 12 -5.5t3 -13.5l-116 -662q-1 -7 -8 -13t-15 -6h-53zM-15 311q-7 0 -12 5.5t-3 13.5l9 50q1 7 7.5 13t14.5 6h262q7 0 12 -5.5t4 -13.5l-9 -50q-1 -7 -8 -13t-15 -6h-262zM32 611q-8 0 -13 5.5t-3 13.5l8 50
q2 8 9 13.5t15 5.5h275q8 0 13 -5.5t3 -13.5l-8 -50q-2 -8 -9 -13.5t-15 -5.5h-275z" />
    <glyph glyph-name="tbar" unicode="&#x167;" horiz-adv-x="355" 
d="M35 -1q-7 0 -12 5.5t-3 13.5l116 662q1 7 8 13t15 6h53q7 0 12 -5.5t3 -13.5l-116 -662q-1 -7 -8 -13t-15 -6h-53zM-15 311q-7 0 -12 5.5t-3 13.5l9 50q1 7 7.5 13t14.5 6h262q7 0 12 -5.5t4 -13.5l-9 -50q-1 -7 -8 -13t-15 -6h-262zM32 611q-8 0 -13 5.5t-3 13.5l8 50
q2 8 9 13.5t15 5.5h275q8 0 13 -5.5t3 -13.5l-8 -50q-2 -8 -9 -13.5t-15 -5.5h-275z" />
    <glyph glyph-name="Umacron" unicode="&#x16a;" horiz-adv-x="482" 
d="M124 -4q-37 -1 -67.5 11t-47 29.5t-25 30.5t-11.5 22q-15 44 -6 93l88 503q4 18 20 18h55q7 0 11.5 -5.5t3.5 -12.5l-87 -496q-4 -7 -2 -23.5t6.5 -33t22.5 -29.5t46 -14h17q29 1 51.5 13.5t34.5 31t17.5 31.5t7.5 24l88 496q2 7 8 12.5t13 5.5h55q7 0 11.5 -5.5
t2.5 -12.5l-89 -503q-9 -49 -39 -93l-1 -2v-1q-80 -92 -184 -90zM129 748q-16 0 -13 17l5 27q3 21 24 21h259q16 0 13 -17l-6 -31q-2 -17 -19 -17h-263z" />
    <glyph glyph-name="umacron" unicode="&#x16b;" horiz-adv-x="482" 
d="M124 -4q-37 -1 -67.5 11t-47 29.5t-25 30.5t-11.5 22q-15 44 -6 93l88 503q4 18 20 18h55q7 0 11.5 -5.5t3.5 -12.5l-87 -496q-4 -7 -2 -23.5t6.5 -33t22.5 -29.5t46 -14h17q29 1 51.5 13.5t34.5 31t17.5 31.5t7.5 24l88 496q2 7 8 12.5t13 5.5h55q7 0 11.5 -5.5
t2.5 -12.5l-89 -503q-9 -49 -39 -93l-1 -2v-1q-80 -92 -184 -90zM134 744q-16 0 -13 17l4 27q5 21 24 21h259q16 0 13 -17l-5 -31q-3 -17 -19 -17h-263z" />
    <glyph glyph-name="Uring" unicode="&#x16e;" horiz-adv-x="482" 
d="M124 -4q-37 -1 -67.5 11t-47 29.5t-25 30.5t-11.5 22q-15 44 -6 93l88 503q4 18 20 18h55q7 0 11.5 -5.5t3.5 -12.5l-87 -496q-4 -7 -2 -23.5t6.5 -33t22.5 -29.5t46 -14h17q29 1 51.5 13.5t34.5 31t17.5 31.5t7.5 24l88 496q2 7 8 12.5t13 5.5h55q7 0 11.5 -5.5
t2.5 -12.5l-89 -503q-9 -49 -39 -93l-1 -2v-1q-80 -92 -184 -90zM253 724q-35 0 -54.5 23.5t-13.5 58.5t34 59t63 24t54.5 -24t13.5 -59q-6 -34 -34.5 -58t-62.5 -24zM262 770q13 0 26.5 12t15.5 26q3 15 -5.5 26.5t-22.5 11.5q-16 0 -29.5 -11t-16.5 -27t6.5 -27t25.5 -11z
" />
    <glyph glyph-name="uring" unicode="&#x16f;" horiz-adv-x="482" 
d="M124 -4q-37 -1 -67.5 11t-47 29.5t-25 30.5t-11.5 22q-15 44 -6 93l88 503q4 18 20 18h55q7 0 11.5 -5.5t3.5 -12.5l-87 -496q-4 -7 -2 -23.5t6.5 -33t22.5 -29.5t46 -14h17q29 1 51.5 13.5t34.5 31t17.5 31.5t7.5 24l88 496q2 7 8 12.5t13 5.5h55q7 0 11.5 -5.5
t2.5 -12.5l-89 -503q-9 -49 -39 -93l-1 -2v-1q-80 -92 -184 -90zM252 709q-35 0 -55 23.5t-14 58.5t34.5 59t63.5 24t54 -24t13 -59q-6 -34 -34 -58t-62 -24zM261 755q13 0 26 12t15 26q3 15 -5.5 26.5t-22.5 11.5q-16 0 -29.5 -11t-16.5 -27q-2 -16 7.5 -27t25.5 -11z" />
    <glyph glyph-name="Uhungarumlaut" unicode="&#x170;" horiz-adv-x="482" 
d="M124 -4q-37 -1 -67.5 11t-47 29.5t-25 30.5t-11.5 22q-15 44 -6 93l88 503q4 18 20 18h55q7 0 11.5 -5.5t3.5 -12.5l-87 -496q-4 -7 -2 -23.5t6.5 -33t22.5 -29.5t46 -14h17q29 1 51.5 13.5t34.5 31t17.5 31.5t7.5 24l88 496q2 7 8 12.5t13 5.5h55q7 0 11.5 -5.5
t2.5 -12.5l-89 -503q-9 -49 -39 -93l-1 -2v-1q-80 -92 -184 -90zM186 719q-6 0 -9 4t0 11q0 1 41 79q6 12 12 17.5t9 6t11 0.5h23q7 0 10 -2t2 -7q0 -4 -5 -12q-21 -43 -40 -75q-7 -15 -12.5 -18.5t-18.5 -3.5h-23zM281 717q-6 0 -9 4t0 11q5 11 41 79q6 12 12 17.5t9 6
t11 0.5h23q7 0 10 -2t2 -7q-2 -6 -5 -11q-7 -14 -21.5 -40.5t-18.5 -34.5q-8 -15 -13.5 -19t-17.5 -4h-23z" />
    <glyph glyph-name="uhungarumlaut" unicode="&#x171;" horiz-adv-x="482" 
d="M124 -4q-37 -1 -67.5 11t-47 29.5t-25 30.5t-11.5 22q-15 44 -6 93l88 503q4 18 20 18h55q7 0 11.5 -5.5t3.5 -12.5l-87 -496q-4 -7 -2 -23.5t6.5 -33t22.5 -29.5t46 -14h17q29 1 51.5 13.5t34.5 31t17.5 31.5t7.5 24l88 496q2 7 8 12.5t13 5.5h55q7 0 11.5 -5.5
t2.5 -12.5l-89 -503q-9 -49 -39 -93l-1 -2v-1q-80 -92 -184 -90zM186 725q-6 0 -9 4t0 11q0 1 41 79q6 12 12 17.5t9 6t11 0.5h23q7 0 10 -2t2 -7q0 -4 -5 -12q-21 -43 -40 -75q-7 -15 -12.5 -18.5t-18.5 -3.5h-23zM281 723q-6 0 -9 4t0 11q5 11 41 79q6 12 12 17.5t9 6
t11 0.5h23q7 0 10 -2t2 -7q-2 -6 -5 -11q-7 -14 -21.5 -40.5t-18.5 -34.5q-8 -15 -13.5 -19t-17.5 -4h-23z" />
    <glyph glyph-name="Uogonek" unicode="&#x172;" horiz-adv-x="482" 
d="M124 -4q-37 -1 -67.5 11t-47 29.5t-25 30.5t-11.5 22q-15 44 -6 93l88 503q4 18 20 18h55q7 0 11.5 -5.5t3.5 -12.5l-87 -496q-4 -7 -2 -23.5t6.5 -33t22.5 -29.5t46 -14h17q29 1 51.5 13.5t34.5 31t17.5 31.5t7.5 24l88 496q2 7 8 12.5t13 5.5h55q7 0 11.5 -5.5
t2.5 -12.5l-89 -503q-9 -49 -39 -93l-1 -2v-1q-80 -92 -184 -90zM102 -182q-38 0 -61 26t-19 64l3 13q18 66 83 85l104 8l-23 -28q-9 -14 -30 -26q-4 -3 -15 -3q-2 0 -7 2t-9 2q-18 0 -35 -14t-22 -33q-2 -20 9.5 -33t30.5 -13q12 0 19 3l7 2h-1q4 0 7 -3q7 -11 17 -18
q3 -3 2 -10q-1 -9 -8 -12h1q-25 -12 -53 -12z" />
    <glyph glyph-name="uogonek" unicode="&#x173;" horiz-adv-x="482" 
d="M124 -4q-37 -1 -67.5 11t-47 29.5t-25 30.5t-11.5 22q-15 44 -6 93l88 503q4 18 20 18h55q7 0 11.5 -5.5t3.5 -12.5l-87 -496q-4 -7 -2 -23.5t6.5 -33t22.5 -29.5t46 -14h17q29 1 51.5 13.5t34.5 31t17.5 31.5t7.5 24l88 496q2 7 8 12.5t13 5.5h55q7 0 11.5 -5.5
t2.5 -12.5l-89 -503q-9 -49 -39 -93l-1 -2v-1q-80 -92 -184 -90zM102 -182q-38 0 -61 26t-19 64l3 13q18 66 83 85l104 8l-23 -28q-9 -14 -30 -26q-4 -3 -15 -3q-2 0 -7 2t-9 2q-18 0 -35 -14t-22 -33q-2 -20 9.5 -33t30.5 -13q12 0 19 3l7 2h-1q4 0 7 -3q7 -11 17 -18
q3 -3 2 -10q-1 -9 -8 -12h1q-25 -12 -53 -12z" />
    <glyph glyph-name="Wcircumflex" unicode="&#x174;" horiz-adv-x="702" 
d="M66 -2q-11 0 -18 6.5t-7 16.5l-7 659l1 2q1 6 6.5 11.5t12.5 5.5l52 -1q15 0 17 -16l7 -500q-1 -3 2.5 -3t5.5 3l165 500q1 7 8 12t14 5h67q7 0 11.5 -4.5t3.5 -11.5l-12 -499q0 -3 3 -3t4 3l187 499q7 16 22 16h54q7 0 10.5 -5.5t1.5 -12.5l-240 -661q-3 -9 -12.5 -15.5
t-19.5 -6.5h-74q-10 0 -16 6.5t-6 15.5l9 447l-151 -447q-3 -9 -11.5 -15.5t-17.5 -6.5h-72zM289 735l-8 4l-16 21q-5 4 -4 9q1 4 11 14v-1l1 1l91 81q9 9 19 9q8 0 17 -8l72 -86q3 -6 2 -10q0 -5 -4 -9l-25 -21l-7 -3h-2l-2 -1q-6 0 -16 12l-45 56l-63 -56q-15 -12 -21 -12
z" />
    <glyph glyph-name="wcircumflex" unicode="&#x175;" horiz-adv-x="702" 
d="M66 -2q-11 0 -18 6.5t-7 16.5l-7 659l1 2q1 6 6.5 11.5t12.5 5.5l52 -1q15 0 17 -16l7 -500q-1 -3 2.5 -3t5.5 3l165 500q1 7 8 12t14 5h67q7 0 11.5 -4.5t3.5 -11.5l-12 -499q0 -3 3 -3t4 3l187 499q7 16 22 16h54q7 0 10.5 -5.5t1.5 -12.5l-240 -661q-3 -9 -12.5 -15.5
t-19.5 -6.5h-74q-10 0 -16 6.5t-6 15.5l9 447l-151 -447q-3 -9 -11.5 -15.5t-17.5 -6.5h-72zM290 735l-8 4l-16 21q-5 4 -4 9q1 4 11 14v-1l1 1l91 81q9 9 19 9q8 0 17 -8l72 -86q3 -6 2 -10q0 -5 -4 -9l-25 -21l-7 -3q-1 0 -2 -0.5t-2 -0.5q-6 0 -16 12l-45 56l-63 -56
q-15 -12 -21 -12z" />
    <glyph glyph-name="Ycircumflex" unicode="&#x176;" horiz-adv-x="435" 
d="M76 0q-7 0 -11.5 6t-3.5 14l42 242q9 62 3 85l-71 329q-1 3 0 6q1 7 6.5 12t12.5 5h57q10 0 15 -12l50 -265l143 265q9 12 20 12l55 1q10 0 14 -7.5t0 -16.5q-122 -212 -180 -313q-17 -30 -23 -58l1 1q-3 -6 -3 -11l-2 -7l-50 -268q-4 -20 -22 -20h-53zM162 732l-9 4
l-16 21q-5 3 -3 9q0 4 10 14l1 -1v1l91 81q12 9 20 9t16 -8l72 -86q3 -4 3 -10q-2 -6 -5 -9l-25 -21l-6 -3q-1 0 -2.5 -0.5t-2.5 -0.5q-8 0 -15 12l-45 56l-63 -56q-17 -12 -21 -12z" />
    <glyph glyph-name="ycircumflex" unicode="&#x177;" horiz-adv-x="435" 
d="M76 0q-7 0 -11.5 6t-3.5 14l42 242q9 62 3 85l-71 329q-1 3 0 6q1 7 6.5 12t12.5 5h57q10 0 15 -12l50 -265l143 265q9 12 20 12l55 1q10 0 14 -7.5t0 -16.5q-122 -212 -180 -313q-17 -30 -23 -58l1 1q-3 -6 -3 -11l-2 -7l-50 -268q-4 -20 -22 -20h-53zM163 732l-9 4
l-16 21q-4 3 -3 9q0 4 10 14l1 -1v1l91 81q12 9 20 9t16 -8l72 -86q3 -4 3 -10q-2 -6 -5 -9l-25 -21l-6 -3q-1 0 -2.5 -0.5t-2.5 -0.5q-8 0 -15 12l-45 56l-63 -56q-17 -12 -21 -12z" />
    <glyph glyph-name="Ydieresis" unicode="&#x178;" horiz-adv-x="435" 
d="M76 0q-7 0 -11.5 6t-3.5 14l42 242q9 62 3 85l-71 329q-1 3 0 6q1 7 6.5 12t12.5 5h57q10 0 15 -12l50 -265l143 265q9 12 20 12l55 1q10 0 14 -7.5t0 -16.5q-122 -212 -180 -313q-17 -30 -23 -58l1 1q-3 -6 -3 -11l-2 -7l-50 -268q-4 -20 -22 -20h-53zM152 745
q-6 0 -10 4t-3 10l8 42q2 13 17 13h50q14 0 12 -13l-8 -42q-2 -14 -16 -14h-50zM264 745q-14 0 -12 14l8 42q2 13 16 13h51q14 0 12 -13l-8 -42q-2 -14 -16 -14h-51z" />
    <glyph glyph-name="Zacute" unicode="&#x179;" horiz-adv-x="444" 
d="M-65 0q-11 0 -8 12q0 6 6 16l340 588h-212q-15 0 -13 14l9 53q3 17 19 17h305q8 0 14.5 -6.5t0.5 -17.5l-333 -592h223q7 0 11.5 -4t2.5 -12l-8 -50q-3 -18 -20 -18h-337zM243 748l-27 25q-5 4 -5 10q2 6 7 11l98 102q5 5 12 5q4 0 8 -3l26 -25q8 -6 7 -12q0 -4 -6 -10
l-96 -102q-7 -7 -13 -7q-5 0 -11 6z" />
    <glyph glyph-name="zacute" unicode="&#x17a;" horiz-adv-x="444" 
d="M-65 0q-11 0 -8 12q0 6 6 16l340 588h-212q-15 0 -13 14l9 53q3 17 19 17h305q8 0 14.5 -6.5t0.5 -17.5l-333 -592h223q7 0 11.5 -4t2.5 -12l-8 -50q-3 -18 -20 -18h-337zM297 753l-27 25q-5 4 -5 10q2 5 6 11l99 102q5 5 12 5q4 0 8 -3l26 -25q8 -6 7 -12q0 -4 -7 -10
l-96 -102q-7 -7 -13 -7q-4 0 -10 6z" />
    <glyph glyph-name="Zdotaccent" unicode="&#x17b;" horiz-adv-x="444" 
d="M-65 0q-11 0 -8 12q0 6 6 16l340 588h-212q-15 0 -13 14l9 53q3 17 19 17h305q8 0 14.5 -6.5t0.5 -17.5l-333 -592h223q7 0 11.5 -4t2.5 -12l-8 -50q-3 -18 -20 -18h-337zM243 743q-20 0 -32 14t-8 34t20.5 34t35.5 14q20 0 32 -14t8 -34t-20 -34t-36 -14z" />
    <glyph glyph-name="zdotaccent" unicode="&#x17c;" horiz-adv-x="444" 
d="M-65 0q-11 0 -8 12q0 6 6 16l340 588h-212q-15 0 -13 14l9 53q3 17 19 17h305q8 0 14.5 -6.5t0.5 -17.5l-333 -592h223q7 0 11.5 -4t2.5 -12l-8 -50q-3 -18 -20 -18h-337zM247 744q-20 0 -32 14t-8 34t21 34t36 14q20 0 31.5 -14t7.5 -34t-20 -34t-36 -14z" />
    <glyph glyph-name="Zcaron" unicode="&#x17d;" horiz-adv-x="444" 
d="M-65 0q-11 0 -8 12q0 6 6 16l340 588h-212q-15 0 -13 14l9 53q3 17 19 17h305q8 0 14.5 -6.5t0.5 -17.5l-333 -592h223q7 0 11.5 -4t2.5 -12l-8 -50q-3 -18 -20 -18h-337zM242 732q-8 0 -17 8l-72 86q-3 6 -2 10q0 5 4 9l25 21l7 3q1 0 2 0.5t2 0.5q6 0 16 -12l45 -56
l63 56q15 12 21 12l8 -4l16 -21q5 -4 4 -9q-1 -4 -11 -14v1l-1 -1l-91 -81q-9 -9 -19 -9z" />
    <glyph glyph-name="zcaron" unicode="&#x17e;" horiz-adv-x="444" 
d="M-65 0q-11 0 -8 12q0 6 6 16l340 588h-212q-15 0 -13 14l9 53q3 17 19 17h305q8 0 14.5 -6.5t0.5 -17.5l-333 -592h223q7 0 11.5 -4t2.5 -12l-8 -50q-3 -18 -20 -18h-337zM243 734q-8 0 -17 8l-71 86q-3 4 -3 10q2 7 5 9l25 21l6 3q1 0 2 1h2q9 0 16 -12l45 -56l63 56
q15 12 21 12l9 -4l16 -21q4 -4 3 -9q0 -4 -10 -14l-1 1v-1l-91 -81q-12 -9 -20 -9z" />
    <glyph glyph-name="circumflex" unicode="&#x2c6;" horiz-adv-x="600" 
d="M220 732l-9 4l-20 21q-5 3 -5 9q0 4 8 14l1 -1v1l77 81q9 9 18 9q7 0 18 -8l87 -86q4 -5 4 -10q0 -6 -3 -9l-21 -21l-6 -3q-10 -3 -22 11l-55 56l-53 -56q-14 -12 -19 -12z" />
    <glyph glyph-name="caron" unicode="&#x2c7;" horiz-adv-x="600" 
d="M364 870l9 -4l20 -21q5 -3 5 -9q0 -4 -8 -14l-1 1v-1l-77 -81q-9 -9 -18 -9q-7 0 -18 8l-87 86q-4 5 -4 10q0 6 3 9l21 21l6 3q10 3 22 -11l55 -56l53 56q14 12 19 12z" />
    <glyph glyph-name="breve" unicode="&#x2d8;" horiz-adv-x="600" 
d="M288 725q-40 0 -68 26.5t-35 71.5v2q0 10 11 10h28q8 0 10 -10q4 -22 18 -35t36 -13q21 0 35.5 13.5t16.5 35.5q4 9 9 9h30q4 0 7 -3.5t3 -7.5q-1 -49 -33 -74t-68 -25z" />
    <glyph glyph-name="dotaccent" unicode="&#x2d9;" horiz-adv-x="600" 
d="M294 740q-20 0 -34 14t-14 34t14 34t34 14t34 -14t14 -34t-14 -34t-34 -14z" />
    <glyph glyph-name="ring" unicode="&#x2da;" horiz-adv-x="600" 
d="M302 725q-35 0 -59 23.5t-24 58.5t24 59t59 24t58.5 -24t23.5 -59q0 -34 -24 -58t-58 -24zM303 771q13 0 24 12t11 26q0 15 -10.5 26.5t-24.5 11.5q-16 0 -27.5 -11t-11.5 -27t11.5 -27t27.5 -11z" />
    <glyph glyph-name="ogonek" unicode="&#x2db;" horiz-adv-x="600" 
d="M317 -195q-38 0 -65.5 26t-30.5 64v-1v15v-1q3 31 21 53.5t47 31.5h85v-20v0q-6 -13 -25 -26v-1q-6 -3 -14 -2h-1q-2 0 -7 2t-10 2q-18 0 -32.5 -14t-15.5 -33q1 -19 15 -32.5t33 -13.5q11 0 19 4l6 1h-1q4 0 7 -3q10 -12 21 -18q3 -3 3 -10q0 -9 -6 -12h1
q-22 -12 -50 -12z" />
    <glyph glyph-name="tilde" unicode="&#x2dc;" horiz-adv-x="600" 
d="M419 825q7 -29 -7 -58q-14 -27 -42 -39q-14 -5 -28 -5q-13 0 -28 6q-27 12 -42 45q-3 11 -13.5 16.5t-20.5 1.5h-1q-10 -3 -15.5 -12.5t-3.5 -19.5v1q4 -16 -9 -21l-17 -6q-5 -1 -10 0l-5 3q-3 3 -4 5l-4 10q-3 29 9 52q14 27 42 39q29 11 57.5 -2.5t40.5 -43.5
q5 -12 14.5 -17t20.5 -1q23 7 18 32q-2 15 10 20l18 7h2q13 4 17 -10q1 -2 1 -3z" />
    <glyph glyph-name="hungarumlaut" unicode="&#x2dd;" horiz-adv-x="600" 
d="M325 702q-15 0 -12 15q2 6 27 79q4 12 9.5 17.5t8 6t10.5 0.5h23q19 0 11 -20q-4 -11 -8.5 -23.5t-10 -28t-8.5 -23.5q-5 -15 -10 -19t-17 -4h-23zM230 704q-15 0 -12 15q2 6 27 79q4 12 9.5 17.5t8 6t10.5 0.5h23q19 0 11 -21q-12 -36 -27 -75q-5 -15 -10 -18.5
t-17 -3.5h-23z" />
    <glyph glyph-name="gravecomb" unicode="&#x300;" horiz-adv-x="0" 
d="M-305 745l-78 102q-10 10 4 22l31 25q11 8 19 -2l81 -102q9 -13 -2 -21l-32 -25q-12 -12 -23 1z" />
    <glyph glyph-name="acutecomb" unicode="&#x301;" horiz-adv-x="0" 
d="M-297 754q-11 -13 -23 -1l-32 25q-11 8 -2 21l81 102q8 10 19 2l31 -25q14 -12 4 -22z" />
    <glyph glyph-name="uni0302" unicode="&#x302;" horiz-adv-x="0" 
d="M-231 719l-9 4l-20 21q-5 3 -5 9q0 4 8 14l1 -1v1l77 81q9 9 18 9q7 0 18 -8l87 -86q4 -5 4 -10q0 -6 -3 -9l-21 -21l-6 -3q-10 -3 -22 11l-55 56l-53 -56q-14 -12 -19 -12z" />
    <glyph glyph-name="tildecomb" unicode="&#x303;" horiz-adv-x="0" 
d="M-64 825q7 -29 -7 -58q-14 -27 -42 -39q-14 -5 -28 -5q-13 0 -28 6q-27 12 -42 45q-3 11 -13.5 16.5t-20.5 1.5h-1q-10 -3 -15.5 -12.5t-3.5 -19.5v1q4 -16 -9 -21l-17 -6q-5 -1 -10 0l-5 3q-3 3 -4 5l-4 10q-3 29 9 52q14 27 42 39q29 11 57.5 -2.5t40.5 -43.5
q5 -12 14.5 -17t20.5 -1q23 7 18 32q-2 15 10 20l18 7h2q13 4 17 -10q1 -2 1 -3z" />
    <glyph glyph-name="uni0304" unicode="&#x304;" horiz-adv-x="0" 
d="M-357 760q0 21 20 21h259q16 0 16 -17v-31q0 -17 -16 -17h-263q-16 0 -16 17v27z" />
    <glyph glyph-name="uni0306" unicode="&#x306;" horiz-adv-x="0" 
d="M-179 724q-40 0 -68 27t-35 71v2q0 10 11 10h28q9 0 10 -9q4 -23 18 -36t36 -13t36 13.5t16 35.5q3 9 9 9h30q10 0 10 -11q-1 -49 -33 -74t-68 -25z" />
    <glyph glyph-name="uni0307" unicode="&#x307;" horiz-adv-x="0" 
d="M-306 740q-20 0 -34 14t-14 34t14 34t34 14t34 -14t14 -34t-14 -34t-34 -14z" />
    <glyph glyph-name="uni0308" unicode="&#x308;" horiz-adv-x="0" 
d="M-388 736q-5 0 -9.5 4t-4.5 9v40q0 13 14 13h48q13 0 13 -13v-40q0 -13 -13 -13h-48zM-281 736q-13 0 -13 13v40q0 13 13 13h49q13 0 13 -13v-40q0 -13 -13 -13h-49z" />
    <glyph glyph-name="uni030A" unicode="&#x30a;" horiz-adv-x="0" 
d="M-137 724q-35 0 -59 23.5t-24 58.5t24 59t59 24t58.5 -24t23.5 -59q0 -34 -24 -58t-58 -24zM-136 770q13 0 24 12t11 26q0 15 -10.5 26.5t-24.5 11.5q-16 0 -27.5 -11t-11.5 -27t11.5 -27t27.5 -11z" />
    <glyph glyph-name="uni030B" unicode="&#x30b;" horiz-adv-x="0" 
d="M-166 715q-15 0 -12 15q2 6 27 79q4 12 9.5 17.5t8 6t10.5 0.5h23q19 0 11 -20q-4 -11 -8.5 -23.5t-10 -28t-8.5 -23.5q-5 -15 -10 -19t-17 -4h-23zM-261 717q-15 0 -12 15q2 6 27 79q4 12 9.5 17.5t8 6t10.5 0.5h23q19 0 11 -21q-12 -36 -27 -75q-5 -15 -10 -18.5
t-17 -3.5h-23z" />
    <glyph glyph-name="uni030C" unicode="&#x30c;" horiz-adv-x="0" 
d="M-107 870l9 -4l20 -21q5 -3 5 -9q0 -4 -8 -14l-1 1v-1l-77 -81q-9 -9 -18 -9q-7 0 -18 8l-87 86q-4 5 -4 10q0 6 3 9l21 21l6 3q10 3 22 -11l55 -56l53 56q14 12 19 12z" />
    <glyph glyph-name="uni0312" unicode="&#x312;" horiz-adv-x="0" 
d="M-299 551q-1 -18 -20 -18h-40q-17 0 -18 18v133q2 16 17 16h37q23 0 23 -19z" />
    <glyph glyph-name="uni0326" unicode="&#x326;" horiz-adv-x="0" 
d="M-299 -212q-6 -16 -21 -9l-39 13q-12 3 -9 19l42 123q4 12 17 9l38 -13q17 -7 11 -20z" />
    <glyph glyph-name="uni0327" unicode="&#x327;" horiz-adv-x="0" 
d="M-259 -223q-27 0 -44 13q-6 4 -6 10t21 27l1 1q5 4 15 2q10 -4 14 -4q15 0 26.5 11.5t11.5 26.5q0 13 -11.5 23t-26.5 10q-2 0 -7 -0.5t-8 -0.5v2v-2h-3q-6 0 -9.5 1.5t-9 7.5t-9.5 9l1 1l-1 -1q-6 5 -6 10v88h4q0 -3 -4 -3v4h71v-4v-64q28 -5 46.5 -26t20.5 -50v-12
q-2 -34 -27 -57t-60 -23z" />
    <glyph glyph-name="uni0328" unicode="&#x328;" horiz-adv-x="0" 
d="M-266 -188q-37 0 -65 25.5t-31 63.5v15v-1q3 30 21.5 53t46.5 32h85v-20v0q-6 -13 -25 -26l-1 -1q-5 -3 -13 -2h-1q-1 0 -7 2t-10 2q-18 0 -32.5 -14t-15.5 -33q1 -19 15 -32.5t33 -13.5q10 0 19 4l6 1h-1q4 0 7 -3q9 -11 21 -19q3 -1 3 -9q0 -9 -6 -12h1
q-22 -12 -50 -12z" />
    <glyph glyph-name="uni0335" unicode="&#x335;" horiz-adv-x="0" 
d="M-54 302q11 0 19 8t8 19v23q0 11 -8 19t-19 8h-574q-11 0 -18.5 -8t-7.5 -19v-23q0 -11 7.5 -19t18.5 -8h574z" />
    <glyph glyph-name="uni0337" unicode="&#x337;" horiz-adv-x="0" 
d="M-428 203q-10 6 -11.5 18t5.5 22l218 239q16 16 33 4l25 -15q11 -7 12.5 -19t-6.5 -22l-217 -240q-15 -18 -34 -4z" />
    <glyph glyph-name="uni0338" unicode="&#x338;" horiz-adv-x="0" 
d="M-149 691q-19 0 -27 -16l-323 -655q-3 -7 1 -13t12 -6h46q17 0 26 16l322 655q3 7 -1 13t-12 6h-44z" />
    <glyph glyph-name="Wgrave" unicode="&#x1e80;" horiz-adv-x="702" 
d="M66 -2q-11 0 -18 6.5t-7 16.5l-7 659l1 2q1 6 6.5 11.5t12.5 5.5l52 -1q15 0 17 -16l7 -500q-1 -3 2.5 -3t5.5 3l165 500q1 7 8 12t14 5h67q7 0 11.5 -4.5t3.5 -11.5l-12 -499q0 -3 3 -3t4 3l187 499q7 16 22 16h54q7 0 10.5 -5.5t1.5 -12.5l-240 -661q-3 -9 -12.5 -15.5
t-19.5 -6.5h-74q-10 0 -16 6.5t-6 15.5l9 447l-151 -447q-3 -9 -11.5 -15.5t-17.5 -6.5h-72zM370 739q-8 -6 -12 -6q-7 0 -11 7l-60 102q-4 5 -4 10q1 5 12 12l35 25q4 3 9 3q7 0 10 -5l63 -102q3 -7 2 -11q0 -5 -8 -10z" />
    <glyph glyph-name="wgrave" unicode="&#x1e81;" horiz-adv-x="702" 
d="M66 -2q-11 0 -18 6.5t-7 16.5l-7 659l1 2q1 6 6.5 11.5t12.5 5.5l52 -1q15 0 17 -16l7 -500q-1 -3 2.5 -3t5.5 3l165 500q1 7 8 12t14 5h67q7 0 11.5 -4.5t3.5 -11.5l-12 -499q0 -3 3 -3t4 3l187 499q7 16 22 16h54q7 0 10.5 -5.5t1.5 -12.5l-240 -661q-3 -9 -12.5 -15.5
t-19.5 -6.5h-74q-10 0 -16 6.5t-6 15.5l9 447l-151 -447q-3 -9 -11.5 -15.5t-17.5 -6.5h-72zM373 739q-8 -6 -12 -6q-7 0 -11 7l-60 102q-4 5 -4 10q1 5 12 12l35 25q5 3 9 3q7 0 10 -5l63 -102q3 -7 2 -11q0 -5 -8 -10z" />
    <glyph glyph-name="Wacute" unicode="&#x1e82;" horiz-adv-x="702" 
d="M66 -2q-11 0 -18 6.5t-7 16.5l-7 659l1 2q1 6 6.5 11.5t12.5 5.5l52 -1q15 0 17 -16l7 -500q-1 -3 2.5 -3t5.5 3l165 500q1 7 8 12t14 5h67q7 0 11.5 -4.5t3.5 -11.5l-12 -499q0 -3 3 -3t4 3l187 499q7 16 22 16h54q7 0 10.5 -5.5t1.5 -12.5l-240 -661q-3 -9 -12.5 -15.5
t-19.5 -6.5h-74q-10 0 -16 6.5t-6 15.5l9 447l-151 -447q-3 -9 -11.5 -15.5t-17.5 -6.5h-72zM355 756l-28 25q-5 4 -4 10q0 5 6 11l99 102q5 5 11 5q5 0 8 -3l27 -25q8 -8 7 -12q-1 -5 -7 -10l-96 -102q-7 -7 -13 -7t-10 6z" />
    <glyph glyph-name="wacute" unicode="&#x1e83;" horiz-adv-x="702" 
d="M66 -2q-11 0 -18 6.5t-7 16.5l-7 659l1 2q1 6 6.5 11.5t12.5 5.5l52 -1q15 0 17 -16l7 -500q-1 -3 2.5 -3t5.5 3l165 500q1 7 8 12t14 5h67q7 0 11.5 -4.5t3.5 -11.5l-12 -499q0 -3 3 -3t4 3l187 499q7 16 22 16h54q7 0 10.5 -5.5t1.5 -12.5l-240 -661q-3 -9 -12.5 -15.5
t-19.5 -6.5h-74q-10 0 -16 6.5t-6 15.5l9 447l-151 -447q-3 -9 -11.5 -15.5t-17.5 -6.5h-72zM361 753l-27 25q-5 4 -5 10q2 5 6 11l99 102q5 5 12 5q3 0 8 -3l26 -25q8 -6 7 -12q0 -4 -7 -10l-96 -102q-7 -7 -13 -7q-4 0 -10 6z" />
    <glyph glyph-name="Wdieresis" unicode="&#x1e84;" horiz-adv-x="702" 
d="M66 -2q-11 0 -18 6.5t-7 16.5l-7 659l1 2q1 6 6.5 11.5t12.5 5.5l52 -1q15 0 17 -16l7 -500q-1 -3 2.5 -3t5.5 3l165 500q1 7 8 12t14 5h67q7 0 11.5 -4.5t3.5 -11.5l-12 -499q0 -3 3 -3t4 3l187 499q7 16 22 16h54q7 0 10.5 -5.5t1.5 -12.5l-240 -661q-3 -9 -12.5 -15.5
t-19.5 -6.5h-74q-10 0 -16 6.5t-6 15.5l9 447l-151 -447q-3 -9 -11.5 -15.5t-17.5 -6.5h-72zM290 748q-6 0 -9.5 4t-2.5 10l7 42q3 13 18 13h50q14 0 11 -13l-7 -42q-3 -14 -17 -14h-50zM402 748q-14 0 -11 14l7 42q3 13 17 13h51q14 0 11 -13l-7 -42q-4 -14 -17 -14h-51z
" />
    <glyph glyph-name="wdieresis" unicode="&#x1e85;" horiz-adv-x="702" 
d="M66 -2q-11 0 -18 6.5t-7 16.5l-7 659l1 2q1 6 6.5 11.5t12.5 5.5l52 -1q15 0 17 -16l7 -500q-1 -3 2.5 -3t5.5 3l165 500q1 7 8 12t14 5h67q7 0 11.5 -4.5t3.5 -11.5l-12 -499q0 -3 3 -3t4 3l187 499q7 16 22 16h54q7 0 10.5 -5.5t1.5 -12.5l-240 -661q-3 -9 -12.5 -15.5
t-19.5 -6.5h-74q-10 0 -16 6.5t-6 15.5l9 447l-151 -447q-3 -9 -11.5 -15.5t-17.5 -6.5h-72zM287 745q-6 0 -10 4t-3 10l8 42q2 13 17 13h50q14 0 12 -13l-8 -42q-2 -14 -16 -14h-50zM399 745q-14 0 -12 14l8 42q2 13 16 13h51q14 0 12 -13l-8 -42q-2 -14 -16 -14h-51z" />
    <glyph glyph-name="Ygrave" unicode="&#x1ef2;" horiz-adv-x="435" 
d="M76 0q-7 0 -11.5 6t-3.5 14l42 242q9 62 3 85l-71 329q-1 3 0 6q1 7 6.5 12t12.5 5h57q10 0 15 -12l50 -265l143 265q9 12 20 12l55 1q10 0 14 -7.5t0 -16.5q-122 -212 -180 -313q-17 -30 -23 -58l1 1q-3 -6 -3 -11l-2 -7l-50 -268q-4 -20 -22 -20h-53zM244 729
q-8 -6 -12 -6q-5 0 -11 7l-60 102q-4 6 -3 10t11 12l35 25q6 3 10 3q6 0 9 -5l63 -102q3 -6 3 -11q-1 -5 -9 -10z" />
    <glyph glyph-name="ygrave" unicode="&#x1ef3;" horiz-adv-x="435" 
d="M76 0q-7 0 -11.5 6t-3.5 14l42 242q9 62 3 85l-71 329q-1 3 0 6q1 7 6.5 12t12.5 5h57q10 0 15 -12l50 -265l143 265q9 12 20 12l55 1q10 0 14 -7.5t0 -16.5q-122 -212 -180 -313q-17 -30 -23 -58l1 1q-3 -6 -3 -11l-2 -7l-50 -268q-4 -20 -22 -20h-53zM245 723
q-8 -6 -12 -6q-5 0 -11 7l-60 102q-4 6 -3 10t11 12l35 25q6 3 10 3q6 0 9 -5l63 -102q3 -7 2 -11q0 -5 -8 -10z" />
    <glyph glyph-name="endash" unicode="&#x2013;" horiz-adv-x="507" 
d="M-12 246q-12 0 -19.5 8.5t-5.5 21.5l4 24q2 13 13 21.5t23 8.5h387q13 0 19.5 -8.5t4.5 -21.5l-4 -24q-2 -13 -12 -21.5t-23 -8.5h-387z" />
    <glyph glyph-name="emdash" unicode="&#x2014;" horiz-adv-x="777" 
d="M-9 243q-14 0 -22 9t-6 22l4 21q2 14 13.5 23t25.5 9h649q14 0 22.5 -9.5t6.5 -22.5l-4 -21q-2 -13 -14 -22t-26 -9h-649z" />
    <glyph glyph-name="quoteleft" unicode="&#x2018;" horiz-adv-x="222" 
d="M-86 -93q-8 0 -10.5 6.5t1.5 13.5l111 194q5 9 14 9l57 1q8 0 11 -6.5t-2 -14.5l-109 -190q-7 -13 -21 -13h-52z" />
    <glyph glyph-name="quoteright" unicode="&#x2019;" horiz-adv-x="222" 
d="M16 496q-7 0 -10.5 6.5t0.5 13.5l111 194q7 9 16 9l55 1q8 0 11.5 -7t-0.5 -14l-110 -190q-7 -13 -20 -13h-53z" />
    <glyph glyph-name="quotesinglbase" unicode="&#x201a;" horiz-adv-x="600" 
d="M-76 -56q-4 0 -4 4q0 1 1 2.5t2 2.5l24 31l3 6q2 8 -5 11l-1 1q-14 3 -10 22l10 60q5 24 28 24h62q10 0 15.5 -7t3.5 -17l-10 -60q-1 -8 -10 -18l-56 -61v1q0 -2 -8 -2h-45z" />
    <glyph glyph-name="quotedblleft" unicode="&#x201c;" horiz-adv-x="376" 
d="M-86 -93q-8 0 -10.5 6.5t1.5 13.5l111 194q5 9 14 9l57 1q8 0 11 -6.5t-2 -14.5l-109 -190q-7 -13 -21 -13h-52zM-86 -93q-8 0 -10.5 6.5t1.5 13.5l111 194q5 9 14 9l57 1q8 0 11 -6.5t-2 -14.5l-109 -190q-7 -13 -21 -13h-52zM79 -93q-8 0 -10.5 6.5t1.5 13.5l111 194
q5 9 14 9l57 1q8 0 11 -6.5t-2 -14.5l-109 -190q-6 -13 -21 -13h-52z" />
    <glyph glyph-name="quotedblright" unicode="&#x201d;" horiz-adv-x="376" 
d="M16 496q-7 0 -10.5 6.5t0.5 13.5l111 194q7 9 16 9l55 1q8 0 11.5 -7t-0.5 -14l-110 -190q-7 -13 -20 -13h-53zM16 496q-7 0 -10.5 6.5t0.5 13.5l111 194q7 9 16 9l55 1q8 0 11.5 -7t-0.5 -14l-110 -190q-7 -13 -20 -13h-53zM165 496q-7 0 -10.5 6.5t0.5 13.5l111 194
q7 9 16 9l55 1q8 0 11.5 -7t-0.5 -14l-110 -190q-6 -13 -20 -13h-53z" />
    <glyph glyph-name="quotedblbase" unicode="&#x201e;" horiz-adv-x="179" 
d="M-76 -56q-4 0 -4 4q0 1 1 2.5t2 2.5l24 31l3 6q2 8 -5 11l-1 1q-14 3 -10 22l10 60q5 24 28 24h62q10 0 15.5 -7t3.5 -17l-10 -60q-1 -8 -10 -18l-56 -61v1q0 -2 -8 -2h-45zM-76 -56q-4 0 -4 4q0 1 1 2.5t2 2.5l24 31l3 6q2 8 -5 11l-1 1q-14 3 -10 22l10 60q5 24 28 24
h62q10 0 15.5 -7t3.5 -17l-10 -60q-1 -8 -10 -18l-56 -61v1q0 -2 -8 -2h-45z" />
    <glyph glyph-name="dagger" unicode="&#x2020;" horiz-adv-x="295" 
d="M76 279h15q9 0 17.5 7t9.5 16l66 375q2 9 -4 16t-15 7h-15q-10 0 -18.5 -6.5t-9.5 -16.5l-66 -375q-2 -10 4 -16.5t16 -6.5zM76 279q-10 0 -16 6.5t-4 16.5l66 375q1 10 9.5 16.5t18.5 6.5h15q9 0 15 -7t4 -16l-66 -375q-1 -9 -9.5 -16t-17.5 -7h-15zM32 544
q-10 0 -14.5 9t-2.5 21v1q2 12 10.5 21.5t17.5 9.5h191q10 0 15 -9.5t3 -21.5v-1q-2 -12 -10.5 -21t-18.5 -9h-191zM32 544q-10 0 -14.5 9t-2.5 21v1q2 12 10.5 21.5t17.5 9.5h191q10 0 15 -9.5t3 -21.5v-1q-2 -12 -10.5 -21t-18.5 -9h-191z" />
    <glyph glyph-name="daggerdbl" unicode="&#x2021;" horiz-adv-x="297" 
d="M-7 440v1q2 12 10.5 21.5t18.5 9.5h65l13 72h-67q-10 0 -14.5 9t-2.5 21v1q2 12 10.5 21.5t17.5 9.5h67l12 71q1 10 9.5 16.5t18.5 6.5h15q9 0 15 -7t4 -16l-12 -71h62q10 0 15 -9.5t3 -21.5v-1q-2 -12 -10.5 -21t-18.5 -9h-62l-13 -72h64q10 0 14.5 -9.5t2.5 -21.5v-1
q-2 -12 -10 -21t-18 -9h-64l-19 -108q-1 -9 -9.5 -16t-17.5 -7h-15q-10 0 -16 6.5t-4 16.5l19 108h-65q-10 0 -15 9t-3 21z" />
    <glyph glyph-name="bullet" unicode="&#x2022;" horiz-adv-x="312" 
d="M87 244q-44 0 -69.5 31t-18.5 74t44 74.5t81 31.5q43 0 68.5 -31t17.5 -75t-44 -74.5t-79 -30.5z" />
    <glyph glyph-name="ellipsis" unicode="&#x2026;" horiz-adv-x="509" 
d="M-66 0q-8 0 -13 6t-3 14l12 66q1 8 7.5 14t14.5 6h61q8 0 13 -6t3 -14l-12 -66q-4 -20 -22 -20h-61zM-66 0q-8 0 -13 6t-3 14l12 66q1 8 7.5 14t14.5 6h61q8 0 13 -6t3 -14l-12 -66q-4 -20 -22 -20h-61zM-66 0q-8 0 -13 6t-3 14l12 66q1 8 7.5 14t14.5 6h61q8 0 13 -6
t3 -14l-12 -66q-4 -20 -22 -20h-61z" />
    <glyph glyph-name="perthousand" unicode="&#x2030;" horiz-adv-x="728" 
d="M-37 -2q-8 0 -10.5 6t1.5 13l429 669q11 16 27 16h43q8 0 11 -6t-1 -13l-429 -669q-12 -16 -28 -16h-43zM264 -3q-31 0 -50 27v2l2 1v-3h-2q-15 23 -11 48l21 120q8 42 49 65q16 8 38 8h12q41 0 58 -36q6 -14 2 -37l-20 -120q-7 -42 -49 -65q-22 -10 -38 -10h-12zM278 47
h1q10 0 19 7.5t11 19.5l20 118q5 24 -20 24h-1q-25 0 -30 -24l-20 -118q-2 -12 3.5 -19.5t16.5 -7.5zM84 426q-36 0 -53 26l1 2l2 1l-1 -3h-2q-14 17 -8 48l21 120q6 39 47 65l2 -1v-1h-1v-1l-2 1l1 2q18 9 40 9h12q41 0 58 -36l-2 -2h-1l1 3l2 -1q5 -14 2 -37l-21 -121
q-4 -19 -17.5 -37t-31.5 -27q-19 -10 -37 -10h-12zM96 476h2q10 0 18.5 7.5t10.5 19.5l21 118q3 23 -20 23h-2q-25 0 -29 -23l-21 -118q-2 -12 4 -19.5t16 -7.5zM476 -4q-31 0 -50 27v2l2 1v-3h-2q-15 23 -11 48l21 120q8 42 49 65q16 8 38 8h12q39 0 58 -36q6 -14 2 -37
l-20 -120q-7 -42 -49 -65q-22 -10 -38 -10h-12zM490 46h1q10 0 19 7.5t10 19.5l21 118q5 24 -21 24h-1q-24 0 -29 -24l-21 -118q-1 -12 4.5 -19.5t16.5 -7.5z" />
    <glyph glyph-name="guilsinglleft" unicode="&#x2039;" horiz-adv-x="256" 
d="M94 169q-2 0 -14 12l-102 131q-8 6 -4 22q1 8 12 20l159 145q8 7 14 7q4 0 18 -14l-1 1l14 -18q3 -3 2 -10q0 -4 -5 -9l-133 -122l85 -114q5 -6 3 -12q-1 -6 -7 -11l-26 -22q-7 -6 -15 -6z" />
    <glyph glyph-name="guilsinglright" unicode="&#x203a;" horiz-adv-x="253" 
d="M-12 169q-8 0 -13 6l-18 22q-4 5 -3 11q1 4 7 12l125 114l-89 122q-3 3 -3 9q1 5 6 10l20 18l-1 -1q20 14 24 14t10 -7l109 -145q6 -9 4 -20v-3q-2 -13 -10 -19l-150 -131q-15 -12 -18 -12z" />
    <glyph glyph-name="fraction" unicode="&#x2044;" horiz-adv-x="405" 
d="M-77 -3q-9 0 -13.5 5t-2.5 13q3 8 4 10l375 651q15 24 39 24h50q18 0 15 -18q-2 -6 -4 -10l-375 -651q-4 -10 -15.5 -17t-22.5 -7h-50z" />
    <glyph glyph-name="Euro" unicode="&#x20ac;" horiz-adv-x="476" 
d="M157 -5q-39 0 -64 12q-20 9 -41 33q-16 19 -26 50l-2 -1l2 1q-13 39 -4 94l10 59h-76q-9 0 -7 10l10 58q2 9 11 9h76l12 71h-76q-9 0 -7 9l10 59q2 9 11 9h76l11 64q7 33 21 63q9 18 36 54q24 26 49 41l3 2q35 19 86 19h7q45 0 64 -10q28 -10 41 -28q15 -19 26 -49
q13 -36 6 -76q-2 -6 -2 -9q-1 -4 -2.5 -7.5t-4.5 -5.5l-4.5 -3t-6 -1.5t-6.5 -0.5h-9h-9h-20q-16 0 -18 16q3 30 -3 50q-9 25 -26 36q-13 12 -43 12h-3q-26 0 -47 -13q-23 -13 -39 -36q-15 -20 -22 -53l-11 -65h106q9 0 7 -9l-10 -59q-2 -9 -11 -9h-106l-12 -71h106
q9 0 7 -9l-10 -58q-2 -10 -11 -10h-106l-9 -53q-6 -32 3 -54q13 -28 27 -39q19 -16 41 -16h3q26 0 47 15q20 11 40 40q9 13 18 47q2 12 16 12l53 2q6 0 9.5 -4.5t1.5 -11.5q-6 -40 -17 -61q-19 -37 -35 -55q-28 -34 -48 -44q-46 -26 -91 -26h-8z" />
    <glyph glyph-name="trademark" unicode="&#x2122;" horiz-adv-x="326" 
d="M121 498q-8 0 -6 7l33 188q2 9 10 9h32q5 0 7.5 -1.5t1.5 -5.5v1l16 -101l54 100q3 7 10 7h32q9 0 7 -9l-33 -188q-1 -7 -8 -7h-18q-7 0 -5 7l27 158l2 -1l-54 -104q-7 -7 -12 -7h-15q-8 0 -11 7l-17 107l2 -1l-27 -159q-2 -7 -11 -7h-17zM31 498q-8 0 -6 7l33 189
q2 8 9 8h18q7 0 5 -8l-33 -189q-2 -7 -8 -7h-18zM27 673q-8 0 -8 7l3 14q2 8 10 8h88q9 0 7 -8l-3 -14q0 -7 -9 -7h-88z" />
    <glyph glyph-name="partialdiff" unicode="&#x2202;" horiz-adv-x="453" 
d="M75 3q-27 0 -47 9q-44 16 -63.5 61t-9.5 105q7 46 29 83q34 65 89.5 104.5t112.5 39.5q20 0 47 -9l2 1l4 -1l-3 1l-2 -1q22 -9 33 -18h1v1l-1 -1l3 -2l-2 -1v-1q4 15 9 42q27 159 -172 210q-22 3 -17 27q0 2 6 16l15 19q12 13 26 13h5l2 -1q16 -5 24.5 -7.5t28 -9.5
t32 -14.5t31.5 -19.5t31 -26t27 -33t22.5 -42t13.5 -51t5 -62.5t-8 -73.5q-22 -123 -74 -213q-35 -66 -90 -105.5t-110 -39.5zM90 76q32 0 65 29.5t58 80.5l-2 -1l20 -2l-1 -3l-20 3l1 -1q16 29 21 61q13 73 -59 88q-5 1 -14 1q-34 0 -68.5 -31t-53.5 -78v-1q-6 -22 -9 -35
q-8 -48 9 -79.5t53 -31.5z" />
    <glyph glyph-name="emptyset" unicode="&#x2205;" horiz-adv-x="608" 
d="M205 114q-88 0 -144 56l-71 -52q-6 -2 -10 -2q-7 0 -12 5l-16 25q-4 4 -3 12t8 13l69 51q-25 65 -13 124q16 96 96.5 163.5t176.5 67.5q85 0 141 -56l69 50q7 4 13 4q8 0 11 -3l1 1l18 -32q1 -1 1 -7l-3 -6l-2 -3l-74 -55q27 -53 15 -124q-17 -96 -96 -164t-175 -68z
M213 186q67 0 122.5 47t67.5 113q6 45 -6 76l-273 -205q37 -31 89 -31zM89 270l273 203q-32 33 -92 33q-65 0 -121 -47t-67 -113q-7 -36 7 -76z" />
    <glyph glyph-name="product" unicode="&#x220f;" horiz-adv-x="651" 
d="M51 2q-11 0 -9 11l106 602q0 5 -4 5h-97q-11 0 -9 10l10 58q2 10 11 10h298q8 0 8 -4l-12 -70q-2 -4 -10 -4h-102q-6 0 -6 -5l-106 -603q-3 -10 -11 -10h-67zM301 2q-4 0 -7 5t-1 10l105 598q0 5 -4 5h-98q-5 0 -6.5 1t-0.5 3l12 70q0 4 9 4h298q9 0 7 -10l-10 -58
q-3 -10 -11 -10h-102q-6 0 -6 -5l-106 -600q-2 -13 -13 -13h-66z" />
    <glyph glyph-name="summation" unicode="&#x2211;" horiz-adv-x="477" 
d="M-55 3q-15 0 -12 15l7 42v1l218 286v1l-100 274q-3 6 -3 17l8 45q3 15 18 15h355q14 0 11 -15l-7 -43q-4 -16 -17 -16h-277l100 -274v-9q-3 -6 -5 -8l-192 -258h262q16 0 12 -16l-7 -42q-3 -15 -18 -15h-353z" />
    <glyph glyph-name="minus" unicode="&#x2212;" horiz-adv-x="301" 
d="M-7 328q-20 0 -17 21l6 36q1 8 9 14.5t16 6.5h199q8 0 13.5 -6.5t3.5 -14.5l-6 -36q-3 -21 -25 -21h-199z" />
    <glyph glyph-name="radical" unicode="&#x221a;" horiz-adv-x="589" 
d="M108 3q-23 -1 -34.5 2t-14 7t-5.5 16l-57 297q-1 1 0 6q4 19 24 23l11 1q16 2 20 2q18 0 24 -28l34 -182l188 515q6 15 20 24.5t29 9.5h188q20 0 15 -32l-2 -9q-5 -31 -23 -31l-157 -1l-212 -584q-6 -16 -14.5 -24.5t-14.5 -9.5t-19 -2z" />
    <glyph glyph-name="infinity" unicode="&#x221e;" horiz-adv-x="677" 
d="M-15 346v3q10 56 51 95.5t90 39.5h87q61 0 85 -57q44 57 105 57h88q48 0 74.5 -39.5t16.5 -95.5v-3q-11 -57 -51 -96.5t-88 -39.5h-88q-61 0 -85 57q-44 -57 -105 -57h-87q-49 0 -76 40t-17 96zM54 345q-4 -25 8 -42t32 -17q22 -1 43 -1q37 0 45 3q51 4 63 60
q3 20 -0.5 33t-14.5 19t-20 8.5t-25 3.5h-69q-21 0 -38 -17t-22 -43zM323 349q0 -7 -0.5 -20t10 -26.5t30.5 -14.5q2 0 17 -1.5t28 -1.5l45 1q21 0 38.5 17.5t21.5 41.5l2 7q4 25 -7.5 42.5t-32.5 17.5h-69q-72 0 -83 -63z" />
    <glyph glyph-name="integral" unicode="&#x222b;" horiz-adv-x="600" 
d="M117 7h-153q-11 0 -18 9.5t-5 19.5l3 20q2 13 12.5 22t21.5 9h119l276 575q14 30 43 30h156q11 0 16.5 -8.5t3.5 -20.5l-3 -20q-2 -12 -11 -20.5t-20 -8.5h-119l-276 -577q-14 -28 -46 -30z" />
    <glyph glyph-name="approxequal" unicode="&#x2248;" horiz-adv-x="460" 
d="M219 155q-25 0 -41 9q-32 15 -51 60v2l-3 4q-2 15 -14.5 25t-28.5 10q-9 0 -18 -3q-18 -5 -31 -19t-16 -31q-1 -3 -1 -10v-4q-3 -13 -15 -18l-29 -9q-2 -1 -6 -1q-5 0 -8 2l-1 1q-5 3 -7 11l-2 -1h2q-1 13 2 30q4 29 25 56q30 42 76 57q20 6 39 6q36 0 63.5 -20t35.5 -54
q8 -35 42 -35q10 0 20 3q18 5 30.5 19t15.5 31q1 3 1 10v4q3 12 16 17l27 10q14 2 15 -1v1l1 -2q6 -4 7 -11q1 -13 -2 -28q-4 -30 -25 -57q-28 -41 -76 -57q-18 -7 -43 -7zM250 326q-24 0 -40 9q-32 15 -52 60l1 2l-4 4q-2 16 -14 25.5t-29 9.5q-9 0 -18 -3q-18 -5 -31 -19
t-16 -31q-1 -3 -1 -10v-4q-2 -12 -15 -18l-29 -9q-2 -1 -6 -1q-5 0 -8 2l-1 1q-6 6 -7 11l-2 -1h2q-1 13 2 30q4 29 25 56q30 42 76 57q20 6 39 6q36 0 63.5 -20t35.5 -54q8 -35 43 -35q10 0 20 3q38 12 45 50q1 3 1 10v4q3 12 16 17l28 10q13 2 14 -1l1 1v-2q6 -4 7 -11
q1 -10 -1 -28q-6 -33 -26 -57q-28 -41 -76 -57q-18 -7 -43 -7z" />
    <glyph glyph-name="notequal" unicode="&#x2260;" horiz-adv-x="391" 
d="M-26 195q0 2 2 8l64 77h-42q-9 0 -15 7t-4 16l2 14q6 24 28 24h82l43 52h-115q-9 0 -15 6t-4 15l2 15q2 10 10 17.5t18 7.5h155l74 90q8 8 18 8q4 0 11 -4l24 -15h-1q5 -7 2 -17q0 -5 -5 -12l-42 -50h30q9 0 14.5 -8t3.5 -17l-2 -15q-2 -9 -10 -15t-17 -6h-69l-44 -52
h102q10 0 15 -7t3 -17l-2 -14q-1 -9 -9.5 -16t-17.5 -7h-142l-92 -111q-6 -10 -17 -10q-6 0 -13 4l-20 14q-7 5 -5 18z" />
    <glyph glyph-name="lessequal" unicode="&#x2264;" horiz-adv-x="300" 
d="M125 277q-12 0 -19 7l-96 105q-3 4 -1 16q3 13 14 21l129 105q14 8 23 8q7 0 9 -1l15 -14q7 -6 5 -17t-12 -20l-103 -81l73 -79q6 -6 4 -18q-1 -9 -9 -17l-8 -6q-13 -9 -24 -9zM-20 172q-7 0 -10.5 5t-1.5 11l5 33q4 15 18 15h170q5 0 9 -5t3 -10l-5 -33q-2 -6 -7.5 -11
t-10.5 -5h-170z" />
    <glyph glyph-name="greaterequal" unicode="&#x2265;" horiz-adv-x="300" 
d="M37 277q-10 0 -20 9l-6 6q-5 5 -3 17q1 9 10 18l101 79l-75 81q-6 7 -4 20q2 11 11 17l19 14q4 1 11 1q8 0 19 -8l93 -105q9 -9 6 -21q-2 -12 -7 -16l-132 -105q-10 -7 -23 -7zM-20 172q-5 0 -9 5t-3 11l5 33q2 5 7.5 10t10.5 5h170q7 0 10.5 -5t1.5 -10l-5 -33
q-4 -16 -18 -16h-170z" />
    <glyph glyph-name="unbenannt" horiz-adv-x="600" 
 />
    </font>
</defs>
</svg>
